<svg width="223" height="134" viewBox="0 0 223 134" fill="none" xmlns="http://www.w3.org/2000/svg">
<circle cx="117.884" cy="48.5106" r="47.5616" stroke="#4B491A" stroke-width="1.35503"/>
<circle cx="118.155" cy="48.2394" r="42.006" stroke="#A59E11" stroke-width="2.16805"/>
<circle cx="117.884" cy="48.5102" r="36.8569" fill="#FFEC65"/>
<path d="M100.131 47.4763C113.377 46.7559 118.402 51.1304 118.402 51.1304C118.402 51.1304 129.364 16.5383 169.102 20.0706C208.84 23.6029 209.754 68.0305 209.754 68.0305C209.754 68.0305 223 74.4252 223 90.8686C223 107.312 207.927 113.707 201.532 113.707H96.9338C96.9338 113.707 73.1822 110.053 69.9849 85.8442C66.7875 61.6359 86.8851 48.1966 100.131 47.4763Z" fill="#F8F8F8"/>
<path d="M33.0914 61.7318C47.4696 60.9498 52.9233 65.6982 52.9233 65.6982C52.9233 65.6982 64.8225 28.1497 107.957 31.9838C151.092 35.818 152.083 84.0427 152.083 84.0427C152.083 84.0427 166.461 90.9839 166.461 108.833C166.461 126.681 150.1 133.623 143.159 133.623H29.6208C29.6208 133.623 3.83921 129.656 0.368618 103.379C-3.10198 77.1016 18.7132 62.5137 33.0914 61.7318Z" fill="white"/>
</svg>
