<svg width="223" height="134" viewBox="0 0 223 134" fill="none" xmlns="http://www.w3.org/2000/svg">
<g clip-path="url(#clip0_30_478)">
<path d="M105.825 1.67613C106.413 2.39135 106.774 3.26665 106.86 4.18892C106.946 5.1112 106.753 6.03807 106.307 6.84978C102.821 13.2504 101 20.4248 101.013 27.7132C101.013 51.9594 120.779 71.5928 145.14 71.5928C148.317 71.5928 151.411 71.2611 154.383 70.628C155.295 70.4306 156.244 70.5061 157.112 70.845C157.981 71.1839 158.731 71.7711 159.268 72.5334C159.834 73.326 160.123 74.2837 160.089 75.2575C160.056 76.2313 159.701 77.1667 159.081 77.9181C154.351 83.7275 148.385 88.4083 141.617 91.6191C134.849 94.83 127.45 96.49 119.959 96.4781C92.1609 96.4781 69.6453 74.0831 69.6453 46.4903C69.6453 25.7233 82.3925 7.91104 100.542 0.361611C101.447 -0.020492 102.45 -0.0989169 103.403 0.138117C104.355 0.375151 105.205 0.914846 105.825 1.67613Z" fill="#FFF467"/>
<path d="M134.732 18.9819C134.818 18.7207 134.985 18.4935 135.208 18.3324C135.431 18.1714 135.699 18.0847 135.974 18.0847C136.249 18.0847 136.517 18.1714 136.74 18.3324C136.963 18.4935 137.13 18.7207 137.216 18.9819L139.55 25.9886C140.593 29.1121 143.041 31.5602 146.165 32.6034L153.171 34.937C153.432 35.0234 153.66 35.19 153.821 35.413C153.982 35.636 154.068 35.904 154.068 36.1791C154.068 36.4542 153.982 36.7223 153.821 36.9453C153.66 37.1682 153.432 37.3348 153.171 37.4213L146.165 39.7548C144.624 40.2681 143.224 41.1331 142.076 42.2812C140.928 43.4294 140.063 44.8292 139.55 46.3696L137.216 53.3764C137.13 53.6375 136.963 53.8647 136.74 54.0258C136.517 54.1869 136.249 54.2735 135.974 54.2735C135.699 54.2735 135.431 54.1869 135.208 54.0258C134.985 53.8647 134.818 53.6375 134.732 53.3764L132.398 46.3696C131.885 44.8292 131.02 43.4294 129.872 42.2812C128.724 41.1331 127.324 40.2681 125.784 39.7548L118.777 37.4213C118.516 37.3348 118.288 37.1682 118.127 36.9453C117.966 36.7223 117.88 36.4542 117.88 36.1791C117.88 35.904 117.966 35.636 118.127 35.413C118.288 35.19 118.516 35.0234 118.777 34.937L125.784 32.6034C127.324 32.0901 128.724 31.2252 129.872 30.077C131.02 28.9289 131.885 27.5291 132.398 25.9886L134.732 18.9819ZM153.238 0.59672C153.297 0.425026 153.409 0.276146 153.557 0.170778C153.705 0.0654092 153.882 0.00878906 154.064 0.00878906C154.245 0.00878906 154.423 0.0654092 154.571 0.170778C154.719 0.276146 154.83 0.425026 154.89 0.59672L156.446 5.26386C157.139 7.3502 158.773 8.9843 160.859 9.67774L165.527 11.2335C165.698 11.293 165.847 11.4045 165.953 11.5526C166.058 11.7006 166.115 11.8778 166.115 12.0595C166.115 12.2413 166.058 12.4185 165.953 12.5665C165.847 12.7146 165.698 12.8261 165.527 12.8856L160.859 14.4414C159.831 14.7834 158.897 15.3604 158.131 16.1266C157.365 16.8928 156.788 17.8271 156.446 18.8552L154.89 23.5224C154.83 23.6941 154.719 23.8429 154.571 23.9483C154.423 24.0537 154.245 24.1103 154.064 24.1103C153.882 24.1103 153.705 24.0537 153.557 23.9483C153.409 23.8429 153.297 23.6941 153.238 23.5224L151.682 18.8552C151.34 17.8271 150.763 16.8928 149.997 16.1266C149.23 15.3604 148.296 14.7834 147.268 14.4414L142.601 12.8856C142.429 12.8261 142.28 12.7146 142.175 12.5665C142.07 12.4185 142.013 12.2413 142.013 12.0595C142.013 11.8778 142.07 11.7006 142.175 11.5526C142.28 11.4045 142.429 11.293 142.601 11.2335L147.268 9.67774C149.354 8.9843 150.988 7.3502 151.682 5.26386L153.238 0.602749V0.59672Z" fill="#FFF467"/>
</g>
<path d="M100.131 47.4763C113.377 46.7559 118.402 51.1304 118.402 51.1304C118.402 51.1304 129.364 16.5383 169.102 20.0706C208.84 23.6029 209.754 68.0305 209.754 68.0305C209.754 68.0305 223 74.4252 223 90.8686C223 107.312 207.927 113.707 201.532 113.707H96.9338C96.9338 113.707 73.1822 110.053 69.9849 85.8442C66.7875 61.6359 86.8851 48.1966 100.131 47.4763Z" fill="#F8F8F8"/>
<path d="M33.0914 61.7318C47.4696 60.9498 52.9233 65.6982 52.9233 65.6982C52.9233 65.6982 64.8225 28.1497 107.957 31.9838C151.092 35.818 152.083 84.0427 152.083 84.0427C152.083 84.0427 166.461 90.9839 166.461 108.833C166.461 126.681 150.1 133.623 143.159 133.623H29.6208C29.6208 133.623 3.83921 129.656 0.368618 103.379C-3.10198 77.1016 18.7132 62.5137 33.0914 61.7318Z" fill="white"/>
<defs>
<clipPath id="clip0_30_478">
<rect width="96.4783" height="96.4783" fill="white" transform="translate(69.6453)"/>
</clipPath>
</defs>
</svg>
