<svg width="178" height="179" viewBox="0 0 178 179" fill="none" xmlns="http://www.w3.org/2000/svg">
<path d="M89 173.406C135.081 173.406 172.438 135.84 172.438 89.5C172.438 43.1599 135.081 5.59375 89 5.59375C42.9187 5.59375 5.5625 43.1599 5.5625 89.5C5.5625 135.84 42.9187 173.406 89 173.406Z" fill="#FFEC65"/>
<path d="M139.062 118.028C149.815 118.028 158.531 109.263 158.531 98.4502C158.531 87.6375 149.815 78.8721 139.062 78.8721C128.31 78.8721 119.594 87.6375 119.594 98.4502C119.594 109.263 128.31 118.028 139.062 118.028Z" fill="#C2BD57"/>
<path d="M50.3406 125.859C59.5569 125.859 67.0281 118.346 67.0281 109.078C67.0281 99.8101 59.5569 92.2969 50.3406 92.2969C41.1244 92.2969 33.6531 99.8101 33.6531 109.078C33.6531 118.346 41.1244 125.859 50.3406 125.859Z" fill="#C2BD57"/>
<path d="M67.3063 165.016C81.1307 165.016 92.3375 153.746 92.3375 139.844C92.3375 125.942 81.1307 114.672 67.3063 114.672C53.4819 114.672 42.275 125.942 42.275 139.844C42.275 153.746 53.4819 165.016 67.3063 165.016Z" fill="#C2BD57"/>
<path d="M66.75 59.2939C72.8942 59.2939 77.875 54.2851 77.875 48.1064C77.875 41.9278 72.8942 36.9189 66.75 36.9189C60.6058 36.9189 55.625 41.9278 55.625 48.1064C55.625 54.2851 60.6058 59.2939 66.75 59.2939Z" fill="#C2BD57"/>
<path d="M102.906 62.0908C109.05 62.0908 114.031 57.082 114.031 50.9033C114.031 44.7246 109.05 39.7158 102.906 39.7158C96.7621 39.7158 91.7812 44.7246 91.7812 50.9033C91.7812 57.082 96.7621 62.0908 102.906 62.0908Z" fill="#C2BD57"/>
<path d="M33.6531 83.626C39.7973 83.626 44.7781 78.6172 44.7781 72.4385C44.7781 66.2598 39.7973 61.251 33.6531 61.251C27.509 61.251 22.5281 66.2598 22.5281 72.4385C22.5281 78.6172 27.509 83.626 33.6531 83.626Z" fill="#C2BD57"/>
<path d="M108.469 31.3252C111.541 31.3252 114.031 28.8208 114.031 25.7314C114.031 22.6421 111.541 20.1377 108.469 20.1377C105.397 20.1377 102.906 22.6421 102.906 25.7314C102.906 28.8208 105.397 31.3252 108.469 31.3252Z" fill="#C2BD57"/>
<path d="M22.5281 114.672C25.6002 114.672 28.0906 112.167 28.0906 109.078C28.0906 105.989 25.6002 103.484 22.5281 103.484C19.4561 103.484 16.9656 105.989 16.9656 109.078C16.9656 112.167 19.4561 114.672 22.5281 114.672Z" fill="#C2BD57"/>
<path d="M144.625 145.438C147.697 145.438 150.188 142.933 150.188 139.844C150.188 136.754 147.697 134.25 144.625 134.25C141.553 134.25 139.062 136.754 139.062 139.844C139.062 142.933 141.553 145.438 144.625 145.438Z" fill="#C2BD57"/>
<path d="M69.5312 92.0166C74.1394 92.0166 77.875 88.26 77.875 83.626C77.875 78.992 74.1394 75.2354 69.5312 75.2354C64.9231 75.2354 61.1875 78.992 61.1875 83.626C61.1875 88.26 64.9231 92.0166 69.5312 92.0166Z" fill="#C2BD57"/>
<path d="M41.7188 49.5049C44.7908 49.5049 47.2812 47.0005 47.2812 43.9111C47.2812 40.8218 44.7908 38.3174 41.7188 38.3174C38.6467 38.3174 36.1562 40.8218 36.1562 43.9111C36.1562 47.0005 38.6467 49.5049 41.7188 49.5049Z" fill="#C2BD57"/>
<path d="M127.938 158.303C134.082 158.303 139.062 153.294 139.062 147.115C139.062 140.937 134.082 135.928 127.938 135.928C121.793 135.928 116.812 140.937 116.812 147.115C116.812 153.294 121.793 158.303 127.938 158.303Z" fill="#C2BD57"/>
<path d="M67.3063 30.2061C67.3063 38.0373 73.425 44.1904 81.2125 44.1904C89 44.1904 95.1188 38.0373 95.1188 30.2061C95.1188 22.3748 89 16.2217 81.2125 16.2217C73.425 15.942 67.3063 22.3748 67.3063 30.2061Z" fill="#C2BD57"/>
</svg>
