<svg width="168" height="187" viewBox="0 0 168 187" fill="none" xmlns="http://www.w3.org/2000/svg">
<g clip-path="url(#clip0_30_306)">
<path d="M33.3718 30.2772C47.8718 29.4886 53.3717 34.2772 53.3717 34.2772C53.3717 34.2772 65.3717 -3.58949 108.872 0.277184C152.372 4.14386 153.372 52.7772 153.372 52.7772C153.372 52.7772 167.872 59.7772 167.872 77.7772C167.872 95.7772 151.372 102.777 144.372 102.777H29.8717C29.8717 102.777 3.87174 98.7772 0.371741 72.2772C-3.12826 45.7772 18.8718 31.0657 33.3718 30.2772Z" fill="white"/>
<rect x="111.074" y="107.777" width="7.6651" height="26.5907" rx="3.83255" transform="rotate(15.1682 111.074 107.777)" fill="#ADE8FF"/>
<rect x="93.6191" y="108.046" width="7.6651" height="40.303" rx="3.83255" transform="rotate(15.1682 93.6191 108.046)" fill="#ADE8FF"/>
<rect x="78.0737" y="108.028" width="7.6651" height="78.7367" rx="3.83255" transform="rotate(15.0142 78.0737 108.028)" fill="#ADE8FF"/>
<rect x="59.5454" y="108.028" width="7.6651" height="40.303" rx="3.83255" transform="rotate(15.1682 59.5454 108.028)" fill="#ADE8FF"/>
<path d="M166.558 71.4962L166.497 71.4912H166.436L115.436 71.4912H115.406L115.377 71.4924C113.428 71.5698 111.806 71.7926 110.319 72.4602C108.833 73.1268 107.617 74.1742 106.344 75.6598C105.658 76.3218 105.112 77.0372 104.649 78.1087C104.2 79.1516 103.844 80.501 103.465 82.3974L103.418 82.6343L103.447 82.874C103.683 84.7941 104.023 86.3029 104.659 87.6502C105.302 89.0114 106.199 90.1046 107.389 91.2652L107.435 91.3103L107.485 91.3512C108.698 92.3453 109.802 93.0781 111.092 93.5449C112.379 94.0107 113.743 94.1725 115.419 94.1911L115.539 94.1925L115.657 94.1749C117.35 93.9233 118.713 93.5775 119.978 92.9427C121.244 92.3073 122.317 91.43 123.496 90.2527L123.714 90.0347L123.829 89.7484C124.342 88.4645 124.477 87.2528 124.133 86.1567C123.788 85.0525 123.032 84.3018 122.233 83.8008C121.591 83.3973 120.977 83.0767 120.199 83.0115C119.636 82.9642 119.026 83.0687 118.448 83.1678C118.361 83.1827 118.276 83.1974 118.191 83.2114L117.72 83.2894L117.381 83.6247C116.65 84.3476 116.222 84.6129 115.908 84.7394C115.625 84.8534 115.336 84.8992 114.768 84.9389C113.828 84.6592 113.495 84.4009 113.34 84.2077C113.177 84.0059 113.022 83.6472 112.943 82.7167C113.044 81.8961 113.234 81.5963 113.4 81.4263C113.611 81.21 113.987 80.9891 114.851 80.6912H166.436C167.124 80.6912 168.227 80.5298 169.21 79.9106C170.284 79.2346 171.136 78.0495 171.136 76.2912C171.136 74.8196 170.73 73.5631 169.753 72.6843C168.829 71.8525 167.632 71.5837 166.558 71.4962Z" fill="white" stroke="black" stroke-width="3"/>
<path d="M170.936 64.6466C170.936 61.6654 168.304 59.4436 165.178 59.7975H95.3052C94.7663 59.5268 94.4683 59.2102 94.2872 58.883C94.0658 58.4828 93.937 57.9163 93.9685 57.0922C93.9688 57.0826 93.9852 56.9343 94.2257 56.6851C94.4574 56.445 94.8123 56.2062 95.2328 56.0387C96.2026 55.6523 96.7532 55.8745 96.8904 56.023C98.0791 57.31 99.9212 57.7294 101.498 57.4044C103.148 57.0643 104.712 55.8601 105.092 53.7482C105.388 52.1002 105.218 50.7918 104.312 49.7482C103.92 49.296 103.451 48.9711 103.049 48.717C102.878 48.6085 102.696 48.4991 102.524 48.3959C102.492 48.377 102.461 48.3583 102.43 48.3398C102.225 48.2164 102.025 48.0949 101.822 47.9629C100.837 47.3223 99.4978 46.5711 97.662 46.2977C95.8241 46.024 93.6241 46.2478 90.9145 47.3179C85.0318 49.641 83.8472 55.2746 83.9413 58.5997C83.9974 60.5867 85.2198 63.1877 86.9669 65.2387C88.7335 67.3125 91.3509 69.1912 94.4778 69.1912L165.269 69.1912C166.694 69.1912 168.079 68.9083 169.152 68.1606C170.298 67.3618 170.936 66.1327 170.936 64.6466Z" fill="white" stroke="black" stroke-width="3"/>
</g>
<defs>
<clipPath id="clip0_30_306">
<rect width="167.872" height="186.062" fill="white"/>
</clipPath>
</defs>
</svg>
