<svg width="168" height="187" viewBox="0 0 168 187" fill="none" xmlns="http://www.w3.org/2000/svg">
<path d="M33.3718 30.2772C47.8718 29.4886 53.3717 34.2772 53.3717 34.2772C53.3717 34.2772 65.3717 -3.58949 108.872 0.277184C152.372 4.14386 153.372 52.7772 153.372 52.7772C153.372 52.7772 167.872 59.7772 167.872 77.7772C167.872 95.7772 151.372 102.777 144.372 102.777H29.8717C29.8717 102.777 3.87174 98.7772 0.371741 72.2772C-3.12826 45.7772 18.8718 31.0657 33.3718 30.2772Z" fill="white"/>
<rect x="111.074" y="107.777" width="7.6651" height="26.5907" rx="3.83255" transform="rotate(15.1682 111.074 107.777)" fill="#ADE8FF"/>
<rect x="93.619" y="108.046" width="7.6651" height="40.303" rx="3.83255" transform="rotate(15.1682 93.619 108.046)" fill="#ADE8FF"/>
<rect x="78.0737" y="108.028" width="7.6651" height="78.7367" rx="3.83255" transform="rotate(15.0142 78.0737 108.028)" fill="#ADE8FF"/>
<rect x="59.5454" y="108.028" width="7.6651" height="40.303" rx="3.83255" transform="rotate(15.1682 59.5454 108.028)" fill="#ADE8FF"/>
</svg>
