<svg width="180" height="222" viewBox="0 0 180 222" fill="none" xmlns="http://www.w3.org/2000/svg">
<path d="M42.25 1.49402C42.7747 2.13157 43.0961 2.9118 43.1728 3.73391C43.2494 4.55602 43.0778 5.38222 42.68 6.10577C39.5725 11.8112 37.9496 18.2065 37.9608 24.7033C37.9608 46.3162 55.58 63.8172 77.295 63.8172C80.1276 63.8172 82.885 63.5215 85.5349 62.9571C86.3472 62.7812 87.1933 62.8485 87.9676 63.1506C88.7419 63.4527 89.41 63.9761 89.8886 64.6556C90.3938 65.3622 90.6514 66.2159 90.6212 67.0839C90.5911 67.952 90.275 68.7857 89.722 69.4555C85.5063 74.634 80.1881 78.8064 74.1551 81.6685C68.1221 84.5307 61.5265 86.0104 54.849 85.9998C30.0702 85.9998 10 66.037 10 41.441C10 22.9295 21.3628 7.05177 37.5415 0.322273C38.3474 -0.0183304 39.2421 -0.0882378 40.0911 0.123053C40.9402 0.334343 41.6977 0.815422 42.25 1.49402Z" fill="#FFF467"/>
<path d="M68.0177 16.9208C68.0948 16.688 68.2433 16.4854 68.4421 16.3419C68.6408 16.1983 68.8798 16.121 69.125 16.121C69.3702 16.121 69.6091 16.1983 69.8079 16.3419C70.0067 16.4854 70.1552 16.688 70.2322 16.9208L72.3124 23.1665C73.2422 25.9508 75.4245 28.133 78.2087 29.0629L84.4545 31.143C84.6873 31.2201 84.8898 31.3686 85.0334 31.5673C85.1769 31.7661 85.2542 32.0051 85.2542 32.2503C85.2542 32.4954 85.1769 32.7344 85.0334 32.9332C84.8898 33.132 84.6873 33.2804 84.4545 33.3575L78.2087 35.4376C76.8356 35.8951 75.5878 36.6662 74.5644 37.6896C73.5409 38.7131 72.7699 39.9608 72.3124 41.334L70.2322 47.5798C70.1552 47.8125 70.0067 48.0151 69.8079 48.1586C69.6091 48.3022 69.3702 48.3795 69.125 48.3795C68.8798 48.3795 68.6408 48.3022 68.4421 48.1586C68.2433 48.0151 68.0948 47.8125 68.0177 47.5798L65.9376 41.334C65.4801 39.9608 64.7091 38.7131 63.6856 37.6896C62.6622 36.6662 61.4144 35.8951 60.0412 35.4376L53.7955 33.3575C53.5627 33.2804 53.3602 33.132 53.2166 32.9332C53.073 32.7344 52.9958 32.4954 52.9958 32.2503C52.9958 32.0051 53.073 31.7661 53.2166 31.5673C53.3602 31.3686 53.5627 31.2201 53.7955 31.143L60.0412 29.0629C61.4144 28.6054 62.6622 27.8343 63.6856 26.8109C64.7091 25.7874 65.4801 24.5397 65.9376 23.1665L68.0177 16.9208ZM84.5136 0.532377C84.5667 0.379331 84.6661 0.246621 84.7981 0.152696C84.93 0.0587715 85.088 0.00830078 85.25 0.00830078C85.412 0.00830078 85.5699 0.0587715 85.7019 0.152696C85.8339 0.246621 85.9333 0.379331 85.9864 0.532377L87.3731 4.69263C87.9912 6.55238 89.4479 8.009 91.3076 8.62713L95.4679 10.0139C95.6209 10.0669 95.7536 10.1664 95.8475 10.2983C95.9415 10.4303 95.9919 10.5883 95.9919 10.7503C95.9919 10.9122 95.9415 11.0702 95.8475 11.2022C95.7536 11.3341 95.6209 11.4336 95.4679 11.4866L91.3076 12.8734C90.3911 13.1783 89.5583 13.6926 88.8753 14.3756C88.1924 15.0586 87.678 15.8914 87.3731 16.8079L85.9864 20.9681C85.9333 21.1212 85.8339 21.2539 85.7019 21.3478C85.5699 21.4417 85.412 21.4922 85.25 21.4922C85.088 21.4922 84.93 21.4417 84.7981 21.3478C84.6661 21.2539 84.5667 21.1212 84.5136 20.9681L83.1269 16.8079C82.822 15.8914 82.3076 15.0586 81.6246 14.3756C80.9417 13.6926 80.1089 13.1783 79.1924 12.8734L75.0321 11.4866C74.8791 11.4336 74.7464 11.3341 74.6524 11.2022C74.5585 11.0702 74.508 10.9122 74.508 10.7503C74.508 10.5883 74.5585 10.4303 74.6524 10.2983C74.7464 10.1664 74.8791 10.0669 75.0321 10.0139L79.1924 8.62713C81.0521 8.009 82.5087 6.55238 83.1269 4.69263L84.5136 0.537752V0.532377Z" fill="#FFF467"/>
<path d="M45.3718 65.2772C59.8718 64.4886 65.3717 69.2772 65.3717 69.2772C65.3717 69.2772 77.3717 31.4105 120.872 35.2772C164.372 39.1439 165.372 87.7772 165.372 87.7772C165.372 87.7772 179.872 94.7772 179.872 112.777C179.872 130.777 163.372 137.777 156.372 137.777H41.8717C41.8717 137.777 15.8717 133.777 12.3717 107.277C8.87174 80.7772 30.8718 66.0657 45.3718 65.2772Z" fill="white"/>
<rect x="117.074" y="142.777" width="7.6651" height="26.5907" rx="3.83255" transform="rotate(15.1682 117.074 142.777)" fill="#ADE8FF"/>
<rect x="99.619" y="143.046" width="7.6651" height="40.303" rx="3.83255" transform="rotate(15.1682 99.619 143.046)" fill="#ADE8FF"/>
<rect x="84.0737" y="143.028" width="7.6651" height="78.7367" rx="3.83255" transform="rotate(15.0142 84.0737 143.028)" fill="#ADE8FF"/>
<rect x="65.5454" y="143.028" width="7.6651" height="40.303" rx="3.83255" transform="rotate(15.1682 65.5454 143.028)" fill="#ADE8FF"/>
</svg>
