<svg width="180" height="222" viewBox="0 0 180 222" fill="none" xmlns="http://www.w3.org/2000/svg">
<circle cx="51.7095" cy="52" r="50.9832" stroke="#4B491A" stroke-width="1.45251"/>
<circle cx="52" cy="51.7095" r="45.0279" stroke="#A59E11" stroke-width="2.32402"/>
<circle cx="51.7095" cy="52" r="39.5084" fill="#FFEC65"/>
<path d="M45.3718 65.2772C59.8718 64.4886 65.3717 69.2772 65.3717 69.2772C65.3717 69.2772 77.3717 31.4105 120.872 35.2772C164.372 39.1439 165.372 87.7772 165.372 87.7772C165.372 87.7772 179.872 94.7772 179.872 112.777C179.872 130.777 163.372 137.777 156.372 137.777H41.8717C41.8717 137.777 15.8717 133.777 12.3717 107.277C8.87174 80.7772 30.8718 66.0657 45.3718 65.2772Z" fill="white"/>
<rect x="117.074" y="142.777" width="7.6651" height="26.5907" rx="3.83255" transform="rotate(15.1682 117.074 142.777)" fill="#ADE8FF"/>
<rect x="99.6191" y="143.046" width="7.6651" height="40.303" rx="3.83255" transform="rotate(15.1682 99.6191 143.046)" fill="#ADE8FF"/>
<rect x="84.0737" y="143.028" width="7.6651" height="78.7367" rx="3.83255" transform="rotate(15.0142 84.0737 143.028)" fill="#ADE8FF"/>
<rect x="65.5454" y="143.028" width="7.6651" height="40.303" rx="3.83255" transform="rotate(15.1682 65.5454 143.028)" fill="#ADE8FF"/>
</svg>
