<svg width="168" height="155" viewBox="0 0 168 155" fill="none" xmlns="http://www.w3.org/2000/svg">
<path d="M33.3718 30.2772C47.8718 29.4886 53.3717 34.2772 53.3717 34.2772C53.3717 34.2772 65.3717 -3.58949 108.872 0.277184C152.372 4.14386 153.372 52.7772 153.372 52.7772C153.372 52.7772 167.872 59.7772 167.872 77.7772C167.872 95.7772 151.372 102.777 144.372 102.777H29.8717C29.8717 102.777 3.87174 98.7772 0.371741 72.2772C-3.12826 45.7772 18.8718 31.0657 33.3718 30.2772Z" fill="white"/>
<path d="M122.558 103.371L122.497 103.366H122.436L71.436 103.366H71.4063L71.3765 103.367C69.4276 103.445 67.8062 103.668 66.3186 104.335C64.8333 105.002 63.6173 106.049 62.3443 107.535C61.6583 108.197 61.1116 108.912 60.6494 109.984C60.1996 111.027 59.8439 112.376 59.4651 114.272L59.4178 114.509L59.4472 114.749C59.683 116.669 60.0231 118.178 60.6594 119.525C61.3023 120.886 62.1985 121.98 63.3889 123.14L63.4351 123.185L63.485 123.226C64.6975 124.22 65.8019 124.953 67.0921 125.42C68.3795 125.886 69.7434 126.048 71.4194 126.066L71.5386 126.067L71.6565 126.05C73.3497 125.798 74.7129 125.453 75.978 124.818C77.2442 124.182 78.3168 123.305 79.4959 122.128L79.7142 121.91L79.8287 121.623C80.3423 120.34 80.4766 119.128 80.1334 118.032C79.7877 116.928 79.0318 116.177 78.2335 115.676C77.5907 115.272 76.9768 114.952 76.1993 114.886C75.6359 114.839 75.026 114.944 74.4477 115.043C74.3613 115.058 74.2755 115.072 74.1907 115.086L73.7203 115.164L73.3812 115.5C72.6504 116.223 72.2221 116.488 71.908 116.614C71.6251 116.728 71.3364 116.774 70.7676 116.814C69.8275 116.534 69.4948 116.276 69.3395 116.083C69.1773 115.881 69.0224 115.522 68.9428 114.592C69.0439 113.771 69.2342 113.471 69.3999 113.301C69.6108 113.085 69.9872 112.864 70.8515 112.566H122.436C123.124 112.566 124.227 112.405 125.21 111.786C126.284 111.11 127.136 109.924 127.136 108.166C127.136 106.695 126.73 105.438 125.753 104.559C124.829 103.727 123.632 103.459 122.558 103.371Z" fill="white" stroke="black" stroke-width="3"/>
<path d="M126.936 96.5218C126.936 93.5406 124.304 91.3187 121.178 91.6727H51.3052C50.7663 91.402 50.4683 91.0854 50.2872 90.7582C50.0658 90.358 49.937 89.7915 49.9685 88.9674C49.9688 88.9578 49.9852 88.8095 50.2257 88.5603C50.4574 88.3201 50.8123 88.0814 51.2328 87.9139C52.2026 87.5275 52.7532 87.7497 52.8904 87.8982C54.0791 89.1852 55.9212 89.6046 57.4977 89.2796C59.1478 88.9395 60.7122 87.7353 61.0917 85.6234C61.3879 83.9754 61.2177 82.6669 60.3122 81.6234C59.9197 81.1712 59.451 80.8463 59.0493 80.5922C58.8777 80.4837 58.6955 80.3743 58.5237 80.2711C58.4922 80.2522 58.461 80.2335 58.4303 80.215C58.2251 80.0916 58.0253 79.9701 57.8222 79.838C56.8369 79.1974 55.4978 78.4463 53.662 78.1729C51.8241 77.8992 49.6241 78.1229 46.9145 79.193C41.0318 81.5162 39.8472 87.1498 39.9413 90.4749C39.9974 92.4619 41.2198 95.0629 42.9669 97.1139C44.7335 99.1877 47.3509 101.066 50.4778 101.066L121.269 101.066C122.694 101.066 124.079 100.783 125.152 100.036C126.298 99.237 126.936 98.0079 126.936 96.5218Z" fill="white" stroke="black" stroke-width="3"/>
</svg>
