<svg width="170" height="162" viewBox="0 0 170 162" fill="none" xmlns="http://www.w3.org/2000/svg">
<path d="M32.25 1.49402C32.7747 2.13157 33.0961 2.9118 33.1728 3.73391C33.2494 4.55602 33.0778 5.38222 32.68 6.10577C29.5725 11.8112 27.9496 18.2065 27.9608 24.7033C27.9608 46.3162 45.58 63.8172 67.295 63.8172C70.1276 63.8172 72.885 63.5215 75.5349 62.9571C76.3472 62.7812 77.1933 62.8485 77.9676 63.1506C78.7419 63.4527 79.41 63.9761 79.8886 64.6556C80.3938 65.3622 80.6514 66.2159 80.6212 67.0839C80.5911 67.952 80.275 68.7857 79.722 69.4555C75.5063 74.634 70.1881 78.8064 64.1551 81.6685C58.1221 84.5307 51.5265 86.0104 44.849 85.9998C20.0702 85.9998 0 66.037 0 41.441C0 22.9295 11.3628 7.05177 27.5415 0.322273C28.3474 -0.0183304 29.2421 -0.0882378 30.0911 0.123053C30.9402 0.334343 31.6977 0.815422 32.25 1.49402Z" fill="#FFF467"/>
<path d="M58.0177 16.9208C58.0948 16.688 58.2433 16.4854 58.4421 16.3419C58.6408 16.1983 58.8798 16.121 59.125 16.121C59.3702 16.121 59.6091 16.1983 59.8079 16.3419C60.0067 16.4854 60.1552 16.688 60.2322 16.9208L62.3124 23.1665C63.2422 25.9508 65.4245 28.133 68.2087 29.0629L74.4545 31.143C74.6873 31.2201 74.8898 31.3686 75.0334 31.5673C75.1769 31.7661 75.2542 32.0051 75.2542 32.2503C75.2542 32.4954 75.1769 32.7344 75.0334 32.9332C74.8898 33.132 74.6873 33.2804 74.4545 33.3575L68.2087 35.4376C66.8356 35.8951 65.5878 36.6662 64.5644 37.6896C63.5409 38.7131 62.7699 39.9608 62.3124 41.334L60.2322 47.5798C60.1552 47.8125 60.0067 48.0151 59.8079 48.1586C59.6091 48.3022 59.3702 48.3795 59.125 48.3795C58.8798 48.3795 58.6408 48.3022 58.4421 48.1586C58.2433 48.0151 58.0948 47.8125 58.0177 47.5798L55.9376 41.334C55.4801 39.9608 54.7091 38.7131 53.6856 37.6896C52.6622 36.6662 51.4144 35.8951 50.0412 35.4376L43.7955 33.3575C43.5627 33.2804 43.3602 33.132 43.2166 32.9332C43.073 32.7344 42.9958 32.4954 42.9958 32.2503C42.9958 32.0051 43.073 31.7661 43.2166 31.5673C43.3602 31.3686 43.5627 31.2201 43.7955 31.143L50.0412 29.0629C51.4144 28.6054 52.6622 27.8343 53.6856 26.8109C54.7091 25.7874 55.4801 24.5397 55.9376 23.1665L58.0177 16.9208ZM74.5136 0.532377C74.5667 0.379331 74.6661 0.246621 74.7981 0.152696C74.93 0.0587715 75.088 0.00830078 75.25 0.00830078C75.412 0.00830078 75.5699 0.0587715 75.7019 0.152696C75.8339 0.246621 75.9333 0.379331 75.9864 0.532377L77.3731 4.69263C77.9912 6.55238 79.4479 8.009 81.3076 8.62713L85.4679 10.0139C85.6209 10.0669 85.7536 10.1664 85.8475 10.2983C85.9415 10.4303 85.9919 10.5883 85.9919 10.7503C85.9919 10.9122 85.9415 11.0702 85.8475 11.2022C85.7536 11.3341 85.6209 11.4336 85.4679 11.4866L81.3076 12.8734C80.3911 13.1783 79.5583 13.6926 78.8753 14.3756C78.1924 15.0586 77.678 15.8914 77.3731 16.8079L75.9864 20.9681C75.9333 21.1212 75.8339 21.2539 75.7019 21.3478C75.5699 21.4417 75.412 21.4922 75.25 21.4922C75.088 21.4922 74.93 21.4417 74.7981 21.3478C74.6661 21.2539 74.5667 21.1212 74.5136 20.9681L73.1269 16.8079C72.822 15.8914 72.3076 15.0586 71.6246 14.3756C70.9417 13.6926 70.1089 13.1783 69.1924 12.8734L65.0321 11.4866C64.8791 11.4336 64.7464 11.3341 64.6524 11.2022C64.5585 11.0702 64.508 10.9122 64.508 10.7503C64.508 10.5883 64.5585 10.4303 64.6524 10.2983C64.7464 10.1664 64.8791 10.0669 65.0321 10.0139L69.1924 8.62713C71.0521 8.009 72.5087 6.55238 73.1269 4.69263L74.5136 0.537752V0.532377Z" fill="#FFF467"/>
<path d="M35.3718 65.2772C49.8718 64.4886 55.3717 69.2772 55.3717 69.2772C55.3717 69.2772 67.3717 31.4105 110.872 35.2772C154.372 39.1439 155.372 87.7772 155.372 87.7772C155.372 87.7772 169.872 94.7772 169.872 112.777C169.872 130.777 153.372 137.777 146.372 137.777H31.8717C31.8717 137.777 5.87174 133.777 2.37174 107.277C-1.12826 80.7772 20.8718 66.0657 35.3718 65.2772Z" fill="white"/>
<mask id="path-4-outside-1_30_370" maskUnits="userSpaceOnUse" x="51" y="82" width="71" height="80" fill="black">
<rect fill="white" x="51" y="82" width="71" height="80"/>
<path d="M83.3822 92.5C83.3822 92.5 82.3822 85 86.3822 85C90.3822 85 89.3822 92.5 89.3822 92.5C89.3822 92.5 93.3822 92.5 93.3822 96C93.3822 99.5 89.3822 99.5 89.3822 99.5V116.5L104.382 108C104.382 108 102.882 104.5 105.382 103C107.882 101.5 110.382 104.5 110.382 104.5C110.382 104.5 115.882 100 118.382 103C120.882 106 113.382 110 113.382 110C113.382 110 115.382 113.5 112.882 115C110.382 116.5 107.382 113.5 107.382 113.5L92.8822 122L107.382 130.5C107.382 130.5 109.882 127.5 112.382 129C114.882 130.5 113.382 133.5 113.382 133.5C113.382 133.5 120.382 137.5 118.382 140.5C116.382 143.5 110.382 139.5 110.382 139.5C110.382 139.5 107.882 142.25 105.382 141C102.882 139.75 103.882 136 103.882 136L89.3822 128V144.5C89.3822 144.5 93.3822 145 93.3822 148C93.3822 151 89.3822 151.5 89.3822 151.5C89.3822 151.5 90.3822 159 86.3822 159C82.3822 159 82.8822 151.5 82.8822 151.5C82.8822 151.5 79.3822 151 79.3822 148C79.3822 145 82.8822 144.5 82.8822 144.5V128L68.3822 136C68.3822 136 69.8822 139 67.3822 140.5C64.8822 142 62.3822 139.5 62.3822 139.5C62.3822 139.5 56.3822 143.5 54.3822 140.5C52.3822 137.5 58.8822 134 58.8822 134C58.8822 134 57.8822 130 60.3822 128.5C62.8822 127 65.8822 130 65.8822 130L79.3822 122L64.8822 113.5C64.8822 113.5 63.3822 116.5 60.3822 115C57.3822 113.5 59.3822 110 59.3822 110C59.3822 110 52.3822 107 54.3822 103.5C56.3822 100 62.3822 104.5 62.3822 104.5C62.3822 104.5 64.3822 102 66.8822 103C69.3822 104 68.3822 107.5 68.3822 107.5L83.3822 116.5V99.5C83.3822 99.5 79.3822 99 79.3822 96C79.3822 93 83.3822 92.5 83.3822 92.5Z"/>
</mask>
<path d="M83.3822 92.5C83.3822 92.5 82.3822 85 86.3822 85C90.3822 85 89.3822 92.5 89.3822 92.5C89.3822 92.5 93.3822 92.5 93.3822 96C93.3822 99.5 89.3822 99.5 89.3822 99.5V116.5L104.382 108C104.382 108 102.882 104.5 105.382 103C107.882 101.5 110.382 104.5 110.382 104.5C110.382 104.5 115.882 100 118.382 103C120.882 106 113.382 110 113.382 110C113.382 110 115.382 113.5 112.882 115C110.382 116.5 107.382 113.5 107.382 113.5L92.8822 122L107.382 130.5C107.382 130.5 109.882 127.5 112.382 129C114.882 130.5 113.382 133.5 113.382 133.5C113.382 133.5 120.382 137.5 118.382 140.5C116.382 143.5 110.382 139.5 110.382 139.5C110.382 139.5 107.882 142.25 105.382 141C102.882 139.75 103.882 136 103.882 136L89.3822 128V144.5C89.3822 144.5 93.3822 145 93.3822 148C93.3822 151 89.3822 151.5 89.3822 151.5C89.3822 151.5 90.3822 159 86.3822 159C82.3822 159 82.8822 151.5 82.8822 151.5C82.8822 151.5 79.3822 151 79.3822 148C79.3822 145 82.8822 144.5 82.8822 144.5V128L68.3822 136C68.3822 136 69.8822 139 67.3822 140.5C64.8822 142 62.3822 139.5 62.3822 139.5C62.3822 139.5 56.3822 143.5 54.3822 140.5C52.3822 137.5 58.8822 134 58.8822 134C58.8822 134 57.8822 130 60.3822 128.5C62.8822 127 65.8822 130 65.8822 130L79.3822 122L64.8822 113.5C64.8822 113.5 63.3822 116.5 60.3822 115C57.3822 113.5 59.3822 110 59.3822 110C59.3822 110 52.3822 107 54.3822 103.5C56.3822 100 62.3822 104.5 62.3822 104.5C62.3822 104.5 64.3822 102 66.8822 103C69.3822 104 68.3822 107.5 68.3822 107.5L83.3822 116.5V99.5C83.3822 99.5 79.3822 99 79.3822 96C79.3822 93 83.3822 92.5 83.3822 92.5Z" fill="white"/>
<path d="M83.3822 92.5L83.7543 95.4768L86.7557 95.1017L86.3559 92.1035L83.3822 92.5ZM83.3822 99.5H86.3822V96.8517L83.7543 96.5232L83.3822 99.5ZM83.3822 116.5L81.8387 119.072L86.3822 121.799V116.5H83.3822ZM68.3822 107.5L65.4977 106.676L64.8655 108.889L66.8387 110.072L68.3822 107.5ZM62.3822 104.5L60.5822 106.9L62.9084 108.645L64.7248 106.374L62.3822 104.5ZM59.3822 110L61.987 111.488L63.6559 108.568L60.564 107.243L59.3822 110ZM64.8822 113.5L66.3994 110.912L63.633 109.29L62.199 112.158L64.8822 113.5ZM79.3822 122L80.9116 124.581L85.2905 121.986L80.8994 119.412L79.3822 122ZM65.8822 130L63.7609 132.121L65.4079 133.768L67.4116 132.581L65.8822 130ZM58.8822 134L60.3045 136.641L62.3584 135.535L61.7927 133.272L58.8822 134ZM54.3822 140.5L51.8861 142.164H51.8861L54.3822 140.5ZM62.3822 139.5L64.5036 137.379L62.7645 135.64L60.7181 137.004L62.3822 139.5ZM68.3822 136L66.933 133.373L64.4106 134.765L65.699 137.342L68.3822 136ZM82.8822 128H85.8822V122.919L81.433 125.373L82.8822 128ZM82.8822 144.5L83.3065 147.47L85.8822 147.102V144.5H82.8822ZM82.8822 151.5L85.8756 151.7L86.0607 148.924L83.3065 148.53L82.8822 151.5ZM89.3822 151.5L89.0101 148.523L86.0088 148.898L86.4086 151.896L89.3822 151.5ZM89.3822 144.5H86.3822V147.148L89.0101 147.477L89.3822 144.5ZM89.3822 128L90.8315 125.373L86.3822 122.919V128H89.3822ZM103.882 136L106.781 136.773L107.385 134.506L105.331 133.373L103.882 136ZM110.382 139.5L112.046 137.004L109.899 135.572L108.162 137.482L110.382 139.5ZM113.382 133.5L110.699 132.158L109.43 134.697L111.894 136.105L113.382 133.5ZM107.382 130.5L105.865 133.088L108.059 134.374L109.687 132.421L107.382 130.5ZM92.8822 122L91.3651 119.412L86.9501 122L91.3651 124.588L92.8822 122ZM107.382 113.5L109.504 111.379L107.865 109.74L105.865 110.912L107.382 113.5ZM113.382 110L111.97 107.353L109.245 108.807L110.778 111.488L113.382 110ZM110.382 104.5L108.078 106.421L109.981 108.705L112.282 106.822L110.382 104.5ZM104.382 108L105.861 110.61L108.197 109.286L107.14 106.818L104.382 108ZM89.3822 116.5H86.3822V121.648L90.8613 119.11L89.3822 116.5ZM89.3822 99.5V96.5H86.3822V99.5H89.3822ZM89.3822 92.5L86.4086 92.1035L85.9557 95.5H89.3822V92.5ZM86.3822 82C84.2389 82 82.6724 83.094 81.7298 84.5078C80.8907 85.7664 80.5582 87.2314 80.4086 88.3535C80.2518 89.529 80.2557 90.658 80.2914 91.4613C80.3097 91.871 80.3371 92.215 80.3606 92.4622C80.3724 92.5861 80.3833 92.6867 80.3918 92.7601C80.3961 92.7969 80.3997 92.8269 80.4026 92.8498C80.404 92.8612 80.4052 92.8709 80.4062 92.8787C80.4067 92.8826 80.4072 92.886 80.4076 92.889C80.4078 92.8905 80.4079 92.8918 80.4081 92.8931C80.4082 92.8937 80.4083 92.8946 80.4083 92.8949C80.4084 92.8957 80.4085 92.8965 83.3822 92.5C86.3559 92.1035 86.356 92.1042 86.3561 92.105C86.3561 92.1051 86.3562 92.1058 86.3563 92.1062C86.3564 92.107 86.3565 92.1077 86.3565 92.1083C86.3567 92.1094 86.3568 92.1102 86.3568 92.1105C86.3569 92.111 86.3568 92.1099 86.3564 92.1072C86.3557 92.1016 86.3542 92.0896 86.3521 92.0714C86.3479 92.035 86.3413 91.9744 86.3336 91.8933C86.318 91.7303 86.2986 91.4884 86.2855 91.1949C86.2587 90.592 86.2627 89.846 86.3559 89.1465C86.4563 88.3936 86.6237 87.9836 86.7221 87.836C86.7514 87.7921 86.721 87.8534 86.6041 87.9208C86.4734 87.9962 86.3725 88 86.3822 88V82ZM83.3822 92.5C83.0101 89.5232 83.009 89.5233 83.0079 89.5234C83.0075 89.5235 83.0064 89.5236 83.0056 89.5237C83.0041 89.5239 83.0024 89.5241 83.0007 89.5244C82.9974 89.5248 82.9937 89.5253 82.9898 89.5258C82.982 89.5268 82.9731 89.528 82.9633 89.5293C82.9436 89.532 82.9198 89.5354 82.8923 89.5395C82.8373 89.5478 82.7668 89.5591 82.683 89.5741C82.5161 89.6039 82.2923 89.6489 82.0296 89.7146C81.5167 89.8428 80.7948 90.0646 80.0406 90.4417C78.5825 91.1708 76.3822 92.8511 76.3822 96L82.3822 96C82.3822 95.9657 82.3866 95.9774 82.3735 96.0135C82.3612 96.0473 82.3473 96.0648 82.3498 96.0616C82.3684 96.0384 82.468 95.9362 82.7239 95.8083C82.9697 95.6854 83.2478 95.5947 83.4848 95.5354C83.5972 95.5073 83.6859 95.4899 83.7377 95.4806C83.7633 95.4761 83.7787 95.4737 83.7823 95.4732C83.7841 95.4729 83.7828 95.4731 83.7782 95.4737C83.776 95.474 83.7728 95.4745 83.7689 95.475C83.7669 95.4752 83.7647 95.4755 83.7623 95.4758C83.761 95.476 83.7598 95.4761 83.7585 95.4763C83.7578 95.4764 83.7568 95.4765 83.7564 95.4766C83.7554 95.4767 83.7543 95.4768 83.3822 92.5ZM76.3822 96C76.3822 99.1489 78.5825 100.829 80.0406 101.558C80.7948 101.935 81.5167 102.157 82.0296 102.285C82.2923 102.351 82.5161 102.396 82.683 102.426C82.7668 102.441 82.8373 102.452 82.8923 102.46C82.9198 102.465 82.9436 102.468 82.9633 102.471C82.9731 102.472 82.982 102.473 82.9898 102.474C82.9937 102.475 82.9974 102.475 83.0007 102.476C83.0024 102.476 83.0041 102.476 83.0056 102.476C83.0064 102.476 83.0075 102.477 83.0079 102.477C83.009 102.477 83.0101 102.477 83.3822 99.5C83.7543 96.5232 83.7554 96.5233 83.7564 96.5234C83.7568 96.5235 83.7578 96.5236 83.7585 96.5237C83.7598 96.5239 83.761 96.524 83.7623 96.5242C83.7647 96.5245 83.7669 96.5248 83.7689 96.525C83.7728 96.5255 83.7759 96.526 83.7782 96.5263C83.7828 96.5269 83.7841 96.5271 83.7823 96.5268C83.7787 96.5263 83.7633 96.5239 83.7377 96.5194C83.6859 96.5101 83.5972 96.4927 83.4848 96.4646C83.2478 96.4053 82.9697 96.3146 82.7239 96.1917C82.468 96.0638 82.3684 95.9616 82.3498 95.9384C82.3473 95.9352 82.3612 95.9527 82.3735 95.9865C82.3866 96.0226 82.3822 96.0343 82.3822 96L76.3822 96ZM80.3822 99.5V116.5H86.3822V99.5H80.3822ZM84.9257 113.928L69.9257 104.928L66.8387 110.072L81.8387 119.072L84.9257 113.928ZM68.3822 107.5C71.2668 108.324 71.2671 108.323 71.2674 108.322C71.2675 108.322 71.2678 108.321 71.268 108.32C71.2685 108.318 71.2689 108.317 71.2694 108.315C71.2703 108.312 71.2712 108.308 71.2723 108.305C71.2743 108.297 71.2766 108.289 71.2792 108.28C71.2842 108.261 71.2901 108.239 71.2967 108.214C71.3099 108.163 71.3261 108.098 71.344 108.02C71.3795 107.866 71.4226 107.657 71.4622 107.409C71.5392 106.925 71.613 106.224 71.5639 105.438C71.469 103.92 70.8107 101.34 67.9964 100.215L65.7681 105.785C65.7681 105.785 65.7644 105.784 65.7578 105.781C65.7511 105.777 65.7419 105.772 65.7308 105.765C65.7078 105.751 65.6811 105.732 65.6536 105.707C65.5956 105.654 65.5599 105.602 65.5426 105.571C65.5192 105.528 65.5615 105.587 65.5756 105.812C65.5889 106.026 65.5691 106.263 65.5367 106.466C65.5215 106.561 65.506 106.634 65.4967 106.675C65.492 106.695 65.4892 106.706 65.489 106.707C65.4889 106.707 65.4895 106.705 65.4909 106.7C65.4916 106.697 65.4925 106.694 65.4936 106.69C65.4942 106.688 65.4948 106.686 65.4955 106.684C65.4958 106.682 65.4962 106.681 65.4965 106.68C65.4967 106.679 65.497 106.678 65.4971 106.678C65.4974 106.677 65.4977 106.676 68.3822 107.5ZM67.9964 100.215C65.5362 99.2305 63.3852 100.043 62.1224 100.82C61.4841 101.213 60.9859 101.642 60.65 101.967C60.4789 102.132 60.3412 102.278 60.2399 102.391C60.189 102.448 60.1468 102.497 60.1134 102.536C60.0967 102.556 60.0822 102.574 60.0699 102.589C60.0637 102.596 60.0581 102.603 60.0531 102.609C60.0506 102.612 60.0482 102.615 60.0459 102.618C60.0448 102.619 60.0437 102.621 60.0427 102.622C60.0422 102.623 60.0414 102.624 60.0411 102.624C60.0404 102.625 60.0396 102.626 62.3822 104.5C64.7248 106.374 64.7241 106.375 64.7234 106.376C64.7232 106.376 64.7224 106.377 64.722 106.378C64.721 106.379 64.7201 106.38 64.7193 106.381C64.7175 106.383 64.7159 106.385 64.7143 106.387C64.7112 106.391 64.7085 106.394 64.7062 106.397C64.7017 106.403 64.6987 106.406 64.6972 106.408C64.6944 106.411 64.6975 106.408 64.7062 106.398C64.724 106.378 64.7622 106.337 64.8176 106.283C64.9348 106.17 65.0929 106.037 65.267 105.93C65.6293 105.707 65.7282 105.769 65.7681 105.785L67.9964 100.215ZM62.3822 104.5C64.1822 102.1 64.1816 102.1 64.1809 102.099C64.1807 102.099 64.18 102.098 64.1794 102.098C64.1784 102.097 64.1773 102.096 64.1761 102.095C64.1737 102.094 64.1709 102.092 64.1677 102.089C64.1613 102.084 64.1535 102.079 64.1442 102.072C64.1257 102.058 64.1012 102.04 64.0713 102.019C64.0115 101.975 63.9294 101.917 63.8274 101.846C63.6241 101.706 63.3386 101.515 62.9914 101.3C62.3107 100.879 61.3306 100.328 60.2292 99.8952C59.176 99.4815 57.7364 99.0643 56.2268 99.1901C54.5367 99.3309 52.8326 100.165 51.7775 102.012L56.987 104.988C56.9978 104.969 56.954 105.045 56.8364 105.115C56.7311 105.178 56.671 105.174 56.7251 105.169C56.9031 105.154 57.3384 105.206 58.0353 105.48C58.6838 105.735 59.3287 106.09 59.8356 106.403C60.0822 106.556 60.281 106.689 60.4136 106.781C60.4796 106.826 60.5283 106.861 60.5574 106.882C60.5719 106.892 60.5814 106.899 60.5857 106.903C60.5878 106.904 60.5886 106.905 60.5881 106.904C60.5878 106.904 60.5872 106.904 60.5862 106.903C60.5857 106.903 60.5851 106.902 60.5845 106.902C60.5841 106.901 60.5836 106.901 60.5834 106.901C60.5828 106.9 60.5822 106.9 62.3822 104.5ZM51.7775 102.012C50.7128 103.875 50.8822 105.779 51.6203 107.301C52.282 108.666 53.3733 109.705 54.2701 110.415C55.2075 111.157 56.1857 111.735 56.8994 112.119C57.2632 112.315 57.5747 112.468 57.8005 112.575C57.9137 112.629 58.0063 112.671 58.0741 112.702C58.108 112.717 58.1359 112.729 58.1571 112.739C58.1677 112.743 58.1767 112.747 58.1839 112.75C58.1875 112.752 58.1907 112.753 58.1935 112.754C58.1949 112.755 58.1961 112.756 58.1973 112.756C58.1979 112.756 58.1987 112.757 58.199 112.757C58.1997 112.757 58.2005 112.757 59.3822 110C60.564 107.243 60.5647 107.243 60.5653 107.243C60.5655 107.243 60.5661 107.243 60.5665 107.244C60.5673 107.244 60.5679 107.244 60.5684 107.244C60.5695 107.245 60.5702 107.245 60.5704 107.245C60.571 107.246 60.5699 107.245 60.5673 107.244C60.5622 107.242 60.5509 107.237 60.5341 107.229C60.5004 107.214 60.4445 107.189 60.3702 107.153C60.221 107.083 60.0013 106.974 59.7401 106.834C59.2037 106.546 58.557 106.156 57.9943 105.71C57.3911 105.233 57.1075 104.866 57.0192 104.683C56.9899 104.623 57.0229 104.665 57.0229 104.784C57.0229 104.919 56.9806 105 56.987 104.988L51.7775 102.012ZM59.3822 110C56.7775 108.512 56.7769 108.513 56.7763 108.514C56.7761 108.514 56.7754 108.515 56.775 108.516C56.7741 108.518 56.7732 108.519 56.7723 108.521C56.7704 108.524 56.7684 108.528 56.7663 108.531C56.7621 108.539 56.7573 108.547 56.7521 108.557C56.7417 108.576 56.7294 108.598 56.7155 108.624C56.6877 108.676 56.653 108.743 56.6136 108.822C56.5351 108.981 56.4352 109.196 56.3312 109.456C56.1297 109.96 55.8809 110.71 55.7778 111.587C55.675 112.46 55.6999 113.611 56.2091 114.782C56.7448 116.014 57.7083 117.017 59.0406 117.683L61.7239 112.317C61.5562 112.233 61.6447 112.236 61.7116 112.39C61.7521 112.483 61.7144 112.477 61.7367 112.288C61.7585 112.102 61.8223 111.884 61.902 111.684C61.9387 111.593 61.9715 111.523 61.9907 111.484C62.0001 111.465 62.0055 111.455 62.0055 111.455C62.0055 111.455 62.004 111.458 62.001 111.463C61.9995 111.466 61.9976 111.47 61.9953 111.474C61.9941 111.476 61.9928 111.478 61.9915 111.481C61.9908 111.482 61.99 111.483 61.9893 111.484C61.9889 111.485 61.9883 111.486 61.9881 111.486C61.9876 111.487 61.987 111.488 59.3822 110ZM59.0406 117.683C60.2601 118.293 61.5095 118.527 62.7231 118.375C63.9143 118.226 64.8639 117.732 65.5572 117.213C66.24 116.7 66.7225 116.129 67.0272 115.71C67.1838 115.495 67.3052 115.303 67.3928 115.155C67.4369 115.081 67.4732 115.016 67.5018 114.964C67.5161 114.937 67.5285 114.914 67.5391 114.893C67.5444 114.883 67.5493 114.874 67.5537 114.865C67.5559 114.861 67.558 114.857 67.5599 114.853C67.5609 114.851 67.5619 114.849 67.5628 114.847C67.5633 114.846 67.564 114.845 67.5642 114.844C67.5649 114.843 67.5655 114.842 64.8822 113.5C62.199 112.158 62.1996 112.157 62.2002 112.156C62.2005 112.155 62.2011 112.154 62.2015 112.153C62.2024 112.152 62.2032 112.15 62.204 112.148C62.2056 112.145 62.2071 112.142 62.2086 112.139C62.2115 112.134 62.2142 112.128 62.2165 112.124C62.2213 112.115 62.225 112.108 62.2276 112.103C62.2327 112.094 62.2338 112.092 62.231 112.097C62.2249 112.107 62.2057 112.138 62.1748 112.181C62.1044 112.278 62.0244 112.362 61.9572 112.413C61.9006 112.455 61.9127 112.43 61.9789 112.422C62.0675 112.411 62.0043 112.457 61.7239 112.317L59.0406 117.683ZM63.3651 116.088L77.8651 124.588L80.8994 119.412L66.3994 110.912L63.3651 116.088ZM77.8528 119.419L64.3528 127.419L67.4116 132.581L80.9116 124.581L77.8528 119.419ZM65.8822 130C68.0036 127.879 68.0028 127.878 68.0021 127.877C68.0019 127.877 68.0012 127.876 68.0006 127.876C67.9996 127.875 67.9986 127.874 67.9974 127.873C67.9952 127.87 67.9928 127.868 67.9901 127.865C67.9849 127.86 67.9788 127.854 67.972 127.847C67.9584 127.834 67.9416 127.818 67.9219 127.799C67.8824 127.761 67.8307 127.713 67.7677 127.655C67.6421 127.541 67.469 127.39 67.2554 127.218C66.8366 126.88 66.2221 126.433 65.4734 126.036C64.1063 125.312 61.4632 124.353 58.8387 125.928L61.9257 131.072C61.9284 131.071 61.916 131.077 61.9005 131.08C61.8899 131.082 61.9074 131.077 61.965 131.083C62.1016 131.098 62.3402 131.166 62.6661 131.339C62.9798 131.505 63.2717 131.713 63.4934 131.892C63.6002 131.978 63.6809 132.049 63.7292 132.093C63.7531 132.114 63.7683 132.129 63.774 132.134C63.7768 132.137 63.7772 132.137 63.7751 132.135C63.774 132.134 63.7723 132.133 63.77 132.13C63.7688 132.129 63.7674 132.128 63.7659 132.126C63.7652 132.126 63.7644 132.125 63.7636 132.124C63.7631 132.124 63.7625 132.123 63.7623 132.123C63.7616 132.122 63.7609 132.121 65.8822 130ZM58.8387 125.928C56.3 127.451 55.7801 130.112 55.6989 131.655C55.6549 132.49 55.7208 133.234 55.7929 133.759C55.8296 134.027 55.8696 134.249 55.9024 134.414C55.9189 134.496 55.9337 134.564 55.9456 134.617C55.9516 134.643 55.9569 134.666 55.9613 134.684C55.9635 134.694 55.9655 134.702 55.9672 134.709C55.9681 134.713 55.9689 134.716 55.9697 134.719C55.9701 134.721 55.9704 134.722 55.9708 134.724C55.971 134.724 55.9712 134.725 55.9713 134.726C55.9716 134.727 55.9718 134.728 58.8822 134C61.7927 133.272 61.7929 133.273 61.7931 133.274C61.7932 133.275 61.7934 133.275 61.7936 133.276C61.7939 133.277 61.7941 133.278 61.7944 133.279C61.7949 133.282 61.7954 133.283 61.7958 133.285C61.7966 133.288 61.7972 133.291 61.7976 133.293C61.7984 133.296 61.7983 133.296 61.7976 133.292C61.7961 133.286 61.7919 133.267 61.7859 133.237C61.7738 133.176 61.7552 133.075 61.7372 132.944C61.6999 132.672 61.672 132.322 61.6906 131.97C61.7097 131.607 61.7726 131.352 61.8391 131.2C61.8909 131.083 61.9196 131.076 61.9257 131.072L58.8387 125.928ZM58.8822 134C57.4599 131.359 57.4593 131.359 57.4586 131.359C57.4583 131.359 57.4576 131.36 57.4571 131.36C57.4561 131.361 57.4549 131.361 57.4537 131.362C57.4512 131.363 57.4483 131.365 57.445 131.367C57.4385 131.37 57.4303 131.375 57.4207 131.38C57.4013 131.391 57.3759 131.405 57.3447 131.422C57.2825 131.457 57.1975 131.505 57.0934 131.566C56.8858 131.687 56.5993 131.86 56.2653 132.077C55.6093 132.502 54.7144 133.132 53.8642 133.905C53.0538 134.642 52.0695 135.699 51.4931 137.016C50.8551 138.475 50.6939 140.376 51.8861 142.164L56.8784 138.836C57.0706 139.124 56.9718 139.463 56.9901 139.421C57.07 139.239 57.3357 138.858 57.9002 138.345C58.4251 137.868 59.0301 137.435 59.5304 137.111C59.7745 136.952 59.9802 136.828 60.1203 136.747C60.19 136.706 60.2427 136.676 60.2747 136.658C60.2907 136.649 60.3015 136.643 60.3066 136.64C60.3092 136.639 60.3103 136.638 60.31 136.638C60.3098 136.639 60.3093 136.639 60.3084 136.639C60.3079 136.64 60.3074 136.64 60.3067 136.64C60.3064 136.64 60.3059 136.641 60.3057 136.641C60.3051 136.641 60.3045 136.641 58.8822 134ZM51.8861 142.164C53.0398 143.895 54.7844 144.52 56.3096 144.605C57.7293 144.684 59.1029 144.321 60.1412 143.95C61.2207 143.565 62.1873 143.078 62.8645 142.704C63.209 142.514 63.4924 142.344 63.6945 142.22C63.7957 142.158 63.8773 142.106 63.9366 142.068C63.9663 142.049 63.9905 142.033 64.0089 142.021C64.0181 142.015 64.0258 142.01 64.0321 142.006C64.0352 142.004 64.0379 142.002 64.0403 142C64.0415 141.999 64.0426 141.999 64.0436 141.998C64.0441 141.998 64.0448 141.997 64.045 141.997C64.0457 141.997 64.0463 141.996 62.3822 139.5C60.7181 137.004 60.7187 137.003 60.7193 137.003C60.7194 137.003 60.72 137.003 60.7203 137.002C60.7209 137.002 60.7215 137.002 60.722 137.001C60.7229 137.001 60.7235 137 60.7237 137C60.7242 137 60.7233 137 60.721 137.002C60.7166 137.005 60.7068 137.011 60.6921 137.021C60.6626 137.04 60.6133 137.071 60.5466 137.112C60.4127 137.195 60.2117 137.315 59.9624 137.452C59.4521 137.734 58.7938 138.06 58.1232 138.3C57.4116 138.554 56.9102 138.629 56.6424 138.614C56.48 138.605 56.7246 138.605 56.8784 138.836L51.8861 142.164ZM62.3822 139.5C60.2609 141.621 60.2618 141.622 60.2626 141.623C60.2629 141.623 60.2638 141.624 60.2644 141.625C60.2655 141.626 60.2668 141.627 60.2681 141.628C60.2706 141.631 60.2733 141.634 60.2762 141.637C60.282 141.642 60.2885 141.649 60.2956 141.656C60.3099 141.669 60.3269 141.686 60.3465 141.704C60.3857 141.742 60.4357 141.788 60.4959 141.842C60.6157 141.949 60.7786 142.088 60.9795 142.243C61.3734 142.546 61.9536 142.944 62.6761 143.281C64.1078 143.949 66.4953 144.531 68.9257 143.072L65.8387 137.928C65.7692 137.969 65.6566 138.051 65.2134 137.844C64.9984 137.744 64.7973 137.61 64.6443 137.492C64.5718 137.436 64.5198 137.391 64.4932 137.367C64.4801 137.356 64.4739 137.35 64.4753 137.351C64.476 137.352 64.4787 137.354 64.4833 137.359C64.4857 137.361 64.4885 137.364 64.4919 137.367C64.4936 137.369 64.4954 137.371 64.4973 137.372C64.4983 137.373 64.4993 137.374 64.5003 137.375C64.5009 137.376 64.5017 137.377 64.5019 137.377C64.5027 137.378 64.5036 137.379 62.3822 139.5ZM68.9257 143.072C71.4304 141.57 71.9249 139.166 71.8131 137.488C71.7599 136.69 71.5786 136.009 71.4236 135.544C71.344 135.305 71.2656 135.106 71.2025 134.958C71.1708 134.883 71.1425 134.82 71.1193 134.77C71.1077 134.745 71.0972 134.723 71.0882 134.705C71.0837 134.695 71.0795 134.687 71.0758 134.679C71.0739 134.675 71.0721 134.672 71.0703 134.668C71.0695 134.666 71.0687 134.665 71.0679 134.663C71.0675 134.662 71.0669 134.661 71.0667 134.661C71.0661 134.66 71.0655 134.658 68.3822 136C65.699 137.342 65.6984 137.341 65.6978 137.339C65.6977 137.339 65.6971 137.338 65.6967 137.337C65.696 137.336 65.6953 137.334 65.6947 137.333C65.6933 137.33 65.6921 137.328 65.6909 137.325C65.6885 137.321 65.6865 137.316 65.6847 137.313C65.6812 137.305 65.6789 137.301 65.6776 137.298C65.6751 137.292 65.6767 137.295 65.6811 137.306C65.6903 137.328 65.7096 137.375 65.7315 137.441C65.7796 137.585 65.817 137.747 65.8264 137.887C65.8357 138.027 65.8106 138.041 65.8357 137.982C65.8787 137.882 65.9351 137.87 65.8387 137.928L68.9257 143.072ZM69.8315 138.627L84.3315 130.627L81.433 125.373L66.933 133.373L69.8315 138.627ZM79.8822 128V144.5H85.8822V128H79.8822ZM82.8822 144.5C82.458 141.53 82.4567 141.53 82.4555 141.531C82.4551 141.531 82.4538 141.531 82.4529 141.531C82.4512 141.531 82.4494 141.531 82.4475 141.532C82.4438 141.532 82.4398 141.533 82.4357 141.533C82.4273 141.535 82.418 141.536 82.4078 141.538C82.3874 141.541 82.3634 141.545 82.336 141.549C82.2813 141.559 82.2126 141.571 82.132 141.588C81.9714 141.621 81.759 141.67 81.5112 141.74C81.0271 141.879 80.3496 142.117 79.6438 142.52C78.1995 143.346 76.3822 145.06 76.3822 148H82.3822C82.3822 147.959 82.3852 147.932 82.3874 147.918C82.3885 147.91 82.3896 147.905 82.3903 147.902C82.391 147.899 82.3914 147.898 82.3914 147.898C82.3914 147.898 82.3911 147.899 82.3906 147.9C82.39 147.902 82.3893 147.903 82.3885 147.905C82.3868 147.908 82.3858 147.909 82.3868 147.908C82.3933 147.899 82.4497 147.827 82.6206 147.73C82.7899 147.633 82.9874 147.559 83.1595 147.51C83.2399 147.487 83.3009 147.473 83.3317 147.467C83.3468 147.464 83.3533 147.463 83.3498 147.463C83.3481 147.464 83.3437 147.464 83.3366 147.465C83.333 147.466 83.3287 147.467 83.3237 147.467C83.3212 147.468 83.3185 147.468 83.3157 147.469C83.3142 147.469 83.3128 147.469 83.3112 147.469C83.3105 147.469 83.3093 147.469 83.3089 147.47C83.3077 147.47 83.3065 147.47 82.8822 144.5ZM76.3822 148C76.3822 150.94 78.1995 152.654 79.6438 153.48C80.3496 153.883 81.0271 154.121 81.5112 154.26C81.759 154.33 81.9714 154.379 82.132 154.412C82.2126 154.429 82.2813 154.441 82.336 154.451C82.3634 154.455 82.3874 154.459 82.4078 154.462C82.418 154.464 82.4273 154.465 82.4357 154.467C82.4398 154.467 82.4438 154.468 82.4475 154.468C82.4494 154.469 82.4512 154.469 82.4529 154.469C82.4538 154.469 82.4551 154.469 82.4555 154.469C82.4567 154.47 82.458 154.47 82.8822 151.5C83.3065 148.53 83.3077 148.53 83.3089 148.53C83.3093 148.531 83.3105 148.531 83.3112 148.531C83.3128 148.531 83.3142 148.531 83.3157 148.531C83.3185 148.532 83.3212 148.532 83.3237 148.533C83.3287 148.533 83.333 148.534 83.3366 148.535C83.3437 148.536 83.3481 148.536 83.3498 148.537C83.3533 148.537 83.3468 148.536 83.3317 148.533C83.3009 148.527 83.2399 148.513 83.1595 148.49C82.9874 148.441 82.7899 148.367 82.6206 148.27C82.4497 148.173 82.3933 148.101 82.3868 148.092C82.3858 148.091 82.3868 148.092 82.3885 148.095C82.3893 148.097 82.39 148.098 82.3906 148.1C82.3911 148.101 82.3914 148.102 82.3914 148.102C82.3914 148.102 82.391 148.101 82.3903 148.098C82.3896 148.095 82.3885 148.09 82.3874 148.082C82.3852 148.068 82.3822 148.041 82.3822 148H76.3822ZM82.8822 151.5C79.8889 151.3 79.8888 151.301 79.8888 151.302C79.8887 151.302 79.8887 151.303 79.8886 151.304C79.8886 151.305 79.8885 151.307 79.8884 151.308C79.8882 151.311 79.888 151.315 79.8877 151.318C79.8872 151.326 79.8866 151.336 79.886 151.348C79.8846 151.371 79.883 151.401 79.8812 151.438C79.8776 151.511 79.8733 151.612 79.8698 151.737C79.8627 151.984 79.8582 152.329 79.8673 152.739C79.8852 153.543 79.9567 154.669 80.1905 155.838C80.4152 156.962 80.84 158.39 81.7286 159.602C82.7047 160.933 84.2623 162 86.3822 162V156C86.3729 156 86.4474 156.004 86.5403 156.055C86.6187 156.099 86.6205 156.127 86.5671 156.054C86.4245 155.86 86.2243 155.413 86.074 154.662C85.9328 153.956 85.8792 153.207 85.8659 152.605C85.8594 152.312 85.8627 152.07 85.8673 151.908C85.8696 151.827 85.8722 151.767 85.874 151.731C85.8749 151.713 85.8756 151.701 85.8759 151.695C85.876 151.693 85.8761 151.692 85.8761 151.692C85.876 151.693 85.876 151.693 85.8759 151.695C85.8759 151.695 85.8758 151.696 85.8758 151.697C85.8757 151.697 85.8757 151.698 85.8757 151.698C85.8756 151.699 85.8756 151.7 82.8822 151.5ZM86.3822 162C88.5256 162 90.0921 160.906 91.0346 159.492C91.8737 158.234 92.2063 156.769 92.3559 155.646C92.5127 154.471 92.5087 153.342 92.473 152.539C92.4548 152.129 92.4274 151.785 92.4039 151.538C92.3921 151.414 92.3811 151.313 92.3727 151.24C92.3684 151.203 92.3648 151.173 92.3619 151.15C92.3605 151.139 92.3593 151.129 92.3583 151.121C92.3577 151.117 92.3573 151.114 92.3569 151.111C92.3567 151.11 92.3565 151.108 92.3564 151.107C92.3563 151.106 92.3562 151.105 92.3561 151.105C92.356 151.104 92.3559 151.104 89.3822 151.5C86.4086 151.896 86.4085 151.896 86.4084 151.895C86.4083 151.895 86.4082 151.894 86.4082 151.894C86.4081 151.893 86.408 151.892 86.4079 151.892C86.4078 151.891 86.4077 151.89 86.4076 151.89C86.4076 151.889 86.4077 151.89 86.4081 151.893C86.4087 151.898 86.4102 151.91 86.4123 151.929C86.4165 151.965 86.4232 152.026 86.4309 152.107C86.4464 152.27 86.4659 152.512 86.4789 152.805C86.5057 153.408 86.5018 154.154 86.4086 154.854C86.3082 155.606 86.1407 156.016 86.0423 156.164C86.0131 156.208 86.0435 156.147 86.1604 156.079C86.291 156.004 86.392 156 86.3822 156V162ZM89.3822 151.5C89.7543 154.477 89.7554 154.477 89.7565 154.477C89.7569 154.477 89.7581 154.476 89.7588 154.476C89.7604 154.476 89.762 154.476 89.7637 154.476C89.7671 154.475 89.7708 154.475 89.7747 154.474C89.7825 154.473 89.7913 154.472 89.8012 154.471C89.8209 154.468 89.8446 154.465 89.8722 154.46C89.9272 154.452 89.9977 154.441 90.0815 154.426C90.2484 154.396 90.4722 154.351 90.7348 154.285C91.2478 154.157 91.9697 153.935 92.7239 153.558C94.182 152.829 96.3822 151.149 96.3822 148H90.3822C90.3822 148.034 90.3778 148.023 90.3909 147.986C90.4032 147.953 90.4171 147.935 90.4146 147.938C90.3961 147.962 90.2964 148.064 90.0406 148.192C89.7947 148.315 89.5166 148.405 89.2796 148.465C89.1673 148.493 89.0786 148.51 89.0267 148.519C89.0012 148.524 88.9857 148.526 88.9821 148.527C88.9804 148.527 88.9817 148.527 88.9862 148.526C88.9885 148.526 88.9916 148.526 88.9956 148.525C88.9976 148.525 88.9998 148.524 89.0022 148.524C89.0034 148.524 89.0047 148.524 89.006 148.524C89.0067 148.524 89.0077 148.523 89.008 148.523C89.0091 148.523 89.0101 148.523 89.3822 151.5ZM96.3822 148C96.3822 144.851 94.182 143.171 92.7239 142.442C91.9697 142.065 91.2478 141.843 90.7348 141.715C90.4722 141.649 90.2484 141.604 90.0815 141.574C89.9977 141.559 89.9272 141.548 89.8722 141.54C89.8446 141.535 89.8209 141.532 89.8012 141.529C89.7913 141.528 89.7825 141.527 89.7747 141.526C89.7708 141.525 89.7671 141.525 89.7637 141.524C89.762 141.524 89.7604 141.524 89.7588 141.524C89.7581 141.524 89.7569 141.523 89.7565 141.523C89.7554 141.523 89.7543 141.523 89.3822 144.5C89.0101 147.477 89.0091 147.477 89.008 147.477C89.0077 147.477 89.0067 147.476 89.006 147.476C89.0047 147.476 89.0034 147.476 89.0022 147.476C88.9998 147.476 88.9976 147.475 88.9956 147.475C88.9916 147.474 88.9885 147.474 88.9862 147.474C88.9817 147.473 88.9804 147.473 88.9821 147.473C88.9857 147.474 89.0012 147.476 89.0267 147.481C89.0786 147.49 89.1673 147.507 89.2796 147.535C89.5166 147.595 89.7947 147.685 90.0406 147.808C90.2964 147.936 90.3961 148.038 90.4146 148.062C90.4171 148.065 90.4032 148.047 90.3909 148.014C90.3778 147.977 90.3822 147.966 90.3822 148H96.3822ZM92.3822 144.5V128H86.3822V144.5H92.3822ZM87.933 130.627L102.433 138.627L105.331 133.373L90.8315 125.373L87.933 130.627ZM103.882 136C100.984 135.227 100.983 135.228 100.983 135.229C100.983 135.229 100.983 135.23 100.982 135.231C100.982 135.233 100.982 135.234 100.981 135.236C100.98 135.239 100.979 135.242 100.979 135.246C100.977 135.253 100.974 135.262 100.972 135.271C100.967 135.289 100.962 135.312 100.956 135.337C100.943 135.389 100.928 135.456 100.911 135.536C100.876 135.695 100.835 135.91 100.797 136.168C100.723 136.672 100.653 137.393 100.7 138.202C100.786 139.718 101.362 142.344 104.041 143.683L106.724 138.317C106.722 138.316 106.745 138.328 106.771 138.356C106.794 138.38 106.798 138.393 106.788 138.374C106.761 138.318 106.707 138.157 106.69 137.86C106.674 137.575 106.698 137.281 106.733 137.043C106.75 136.929 106.767 136.842 106.778 136.791C106.783 136.766 106.787 136.751 106.788 136.747C106.788 136.746 106.788 136.747 106.787 136.751C106.786 136.753 106.785 136.756 106.785 136.759C106.784 136.761 106.783 136.763 106.783 136.766C106.783 136.767 106.782 136.768 106.782 136.769C106.782 136.77 106.782 136.771 106.781 136.771C106.781 136.772 106.781 136.773 103.882 136ZM104.041 143.683C106.593 144.96 108.984 144.074 110.299 143.329C110.991 142.937 111.547 142.5 111.923 142.172C112.116 142.005 112.271 141.857 112.384 141.744C112.441 141.688 112.488 141.639 112.524 141.601C112.543 141.582 112.558 141.566 112.571 141.552C112.578 141.545 112.583 141.538 112.589 141.533C112.591 141.53 112.594 141.527 112.596 141.525C112.597 141.524 112.598 141.522 112.599 141.521C112.6 141.521 112.6 141.52 112.601 141.52C112.601 141.519 112.602 141.518 110.382 139.5C108.162 137.482 108.163 137.481 108.164 137.48C108.164 137.48 108.165 137.479 108.165 137.479C108.166 137.478 108.167 137.477 108.168 137.476C108.169 137.474 108.171 137.473 108.172 137.471C108.175 137.468 108.177 137.466 108.179 137.464C108.182 137.461 108.183 137.459 108.183 137.46C108.181 137.461 108.172 137.471 108.156 137.487C108.123 137.52 108.063 137.578 107.982 137.648C107.812 137.797 107.586 137.97 107.341 138.109C107.088 138.252 106.905 138.308 106.802 138.322C106.737 138.331 106.737 138.323 106.724 138.317L104.041 143.683ZM110.382 139.5C108.718 141.996 108.719 141.997 108.719 141.997C108.72 141.997 108.72 141.998 108.721 141.998C108.722 141.999 108.723 141.999 108.724 142C108.727 142.002 108.729 142.004 108.732 142.006C108.739 142.01 108.746 142.015 108.756 142.021C108.774 142.033 108.798 142.049 108.828 142.068C108.887 142.106 108.969 142.158 109.07 142.22C109.272 142.344 109.555 142.514 109.9 142.704C110.577 143.078 111.544 143.565 112.623 143.95C113.662 144.321 115.035 144.684 116.455 144.605C117.98 144.52 119.725 143.895 120.878 142.164L115.886 138.836C116.04 138.605 116.284 138.605 116.122 138.614C115.854 138.629 115.353 138.554 114.641 138.3C113.971 138.06 113.312 137.734 112.802 137.452C112.553 137.315 112.352 137.195 112.218 137.112C112.151 137.071 112.102 137.04 112.072 137.021C112.058 137.011 112.048 137.005 112.043 137.002C112.041 137 112.04 137 112.041 137C112.041 137 112.042 137.001 112.043 137.001C112.043 137.002 112.044 137.002 112.044 137.002C112.044 137.003 112.045 137.003 112.045 137.003C112.046 137.003 112.046 137.004 110.382 139.5ZM120.878 142.164C122.138 140.275 121.827 138.283 121.159 136.863C120.539 135.545 119.517 134.45 118.659 133.664C117.762 132.841 116.818 132.155 116.123 131.685C115.77 131.447 115.468 131.256 115.25 131.122C115.141 131.055 115.052 131.001 114.987 130.963C114.955 130.944 114.929 130.929 114.909 130.918C114.9 130.912 114.891 130.907 114.885 130.903C114.882 130.902 114.879 130.9 114.877 130.899C114.875 130.898 114.874 130.897 114.873 130.897C114.873 130.896 114.872 130.896 114.872 130.896C114.871 130.896 114.871 130.895 113.382 133.5C111.894 136.105 111.893 136.104 111.893 136.104C111.893 136.104 111.892 136.104 111.892 136.104C111.891 136.103 111.891 136.103 111.891 136.103C111.89 136.102 111.89 136.102 111.89 136.102C111.89 136.102 111.892 136.104 111.895 136.106C111.902 136.109 111.915 136.117 111.933 136.128C111.97 136.15 112.03 136.186 112.108 136.234C112.265 136.33 112.494 136.475 112.766 136.658C113.321 137.033 114.003 137.534 114.605 138.086C115.247 138.675 115.601 139.143 115.73 139.418C115.812 139.592 115.627 139.225 115.886 138.836L120.878 142.164ZM113.382 133.5C116.066 134.842 116.066 134.84 116.067 134.839C116.067 134.839 116.067 134.838 116.068 134.837C116.069 134.835 116.069 134.834 116.07 134.832C116.072 134.828 116.074 134.825 116.076 134.821C116.08 134.813 116.084 134.805 116.088 134.795C116.097 134.777 116.108 134.755 116.119 134.73C116.143 134.68 116.171 134.617 116.203 134.542C116.266 134.394 116.344 134.195 116.424 133.956C116.579 133.491 116.76 132.81 116.813 132.012C116.925 130.334 116.43 127.93 113.926 126.428L110.839 131.572C110.935 131.63 110.879 131.618 110.836 131.518C110.811 131.459 110.836 131.473 110.826 131.613C110.817 131.753 110.78 131.915 110.731 132.059C110.71 132.125 110.69 132.172 110.681 132.194C110.677 132.205 110.675 132.208 110.678 132.202C110.679 132.199 110.681 132.195 110.685 132.187C110.686 132.184 110.689 132.179 110.691 132.175C110.692 132.172 110.693 132.17 110.695 132.167C110.695 132.166 110.696 132.164 110.697 132.163C110.697 132.162 110.698 132.161 110.698 132.161C110.698 132.159 110.699 132.158 113.382 133.5ZM113.926 126.428C111.297 124.85 108.765 125.797 107.401 126.615C106.693 127.04 106.13 127.517 105.754 127.872C105.561 128.054 105.406 128.214 105.293 128.336C105.237 128.397 105.19 128.449 105.154 128.49C105.136 128.511 105.121 128.529 105.108 128.544C105.101 128.551 105.096 128.558 105.091 128.564C105.088 128.567 105.086 128.57 105.084 128.572C105.083 128.574 105.081 128.575 105.08 128.576C105.08 128.577 105.079 128.577 105.079 128.578C105.078 128.579 105.078 128.579 107.382 130.5C109.687 132.421 109.686 132.421 109.686 132.422C109.685 132.422 109.685 132.423 109.684 132.424C109.683 132.425 109.683 132.426 109.682 132.427C109.68 132.429 109.679 132.43 109.677 132.432C109.675 132.435 109.673 132.437 109.671 132.439C109.668 132.443 109.667 132.444 109.668 132.443C109.67 132.441 109.679 132.43 109.696 132.412C109.73 132.376 109.789 132.314 109.87 132.237C110.04 132.077 110.259 131.898 110.488 131.76C110.727 131.617 110.867 131.585 110.904 131.58C110.912 131.579 110.894 131.582 110.861 131.576C110.826 131.568 110.816 131.559 110.839 131.572L113.926 126.428ZM108.899 127.912L94.3994 119.412L91.3651 124.588L105.865 133.088L108.899 127.912ZM94.3994 124.588L108.899 116.088L105.865 110.912L91.3651 119.412L94.3994 124.588ZM107.382 113.5C105.261 115.621 105.262 115.622 105.262 115.623C105.263 115.623 105.263 115.624 105.264 115.624C105.265 115.625 105.266 115.626 105.267 115.627C105.269 115.63 105.272 115.632 105.274 115.635C105.28 115.64 105.286 115.646 105.292 115.653C105.306 115.666 105.323 115.682 105.343 115.701C105.382 115.739 105.434 115.787 105.497 115.845C105.622 115.959 105.795 116.11 106.009 116.282C106.428 116.62 107.042 117.067 107.791 117.464C109.158 118.188 111.801 119.147 114.426 117.572L111.339 112.428C111.336 112.429 111.348 112.423 111.364 112.42C111.375 112.418 111.357 112.423 111.299 112.417C111.163 112.402 110.924 112.334 110.598 112.161C110.285 111.995 109.993 111.787 109.771 111.608C109.664 111.522 109.584 111.451 109.535 111.407C109.511 111.386 109.496 111.371 109.49 111.366C109.488 111.363 109.487 111.363 109.489 111.365C109.49 111.366 109.492 111.367 109.495 111.37C109.496 111.371 109.497 111.372 109.499 111.374C109.499 111.374 109.5 111.375 109.501 111.376C109.501 111.376 109.502 111.377 109.502 111.377C109.503 111.378 109.504 111.379 107.382 113.5ZM114.426 117.572C117.238 115.885 117.305 113.011 117.024 111.416C116.879 110.593 116.622 109.884 116.419 109.403C116.315 109.156 116.217 108.951 116.141 108.801C116.103 108.726 116.07 108.663 116.044 108.614C116.031 108.59 116.019 108.569 116.01 108.552C116.005 108.544 116.001 108.536 115.997 108.529C115.995 108.526 115.993 108.523 115.992 108.52C115.991 108.518 115.99 108.517 115.989 108.515C115.989 108.515 115.988 108.514 115.988 108.513C115.987 108.513 115.987 108.512 113.382 110C110.778 111.488 110.777 111.488 110.776 111.487C110.776 111.486 110.776 111.485 110.775 111.485C110.775 111.484 110.774 111.483 110.774 111.482C110.772 111.48 110.771 111.478 110.77 111.476C110.769 111.473 110.767 111.47 110.766 111.468C110.764 111.464 110.763 111.463 110.764 111.465C110.766 111.468 110.774 111.482 110.785 111.506C110.809 111.553 110.848 111.633 110.892 111.737C110.986 111.96 111.073 112.22 111.115 112.459C111.16 112.714 111.125 112.779 111.145 112.712C111.159 112.666 111.191 112.594 111.246 112.522C111.303 112.449 111.348 112.422 111.339 112.428L114.426 117.572ZM113.382 110C114.794 112.647 114.795 112.647 114.795 112.646C114.796 112.646 114.796 112.646 114.797 112.646C114.798 112.645 114.799 112.644 114.8 112.644C114.803 112.642 114.805 112.641 114.809 112.639C114.816 112.635 114.824 112.631 114.835 112.625C114.855 112.614 114.883 112.599 114.917 112.58C114.986 112.542 115.08 112.489 115.196 112.422C115.428 112.289 115.749 112.098 116.124 111.86C116.86 111.393 117.86 110.705 118.802 109.877C119.691 109.095 120.785 107.966 121.4 106.57C121.725 105.835 121.962 104.923 121.874 103.904C121.783 102.851 121.362 101.889 120.687 101.079L116.078 104.921C116.028 104.861 115.919 104.68 115.896 104.42C115.877 104.194 115.938 104.087 115.911 104.148C115.824 104.346 115.511 104.78 114.838 105.373C114.217 105.92 113.498 106.42 112.906 106.796C112.617 106.98 112.372 107.125 112.203 107.222C112.119 107.271 112.055 107.307 112.014 107.329C111.994 107.34 111.98 107.348 111.973 107.352C111.969 107.354 111.967 107.355 111.966 107.355C111.966 107.355 111.966 107.355 111.967 107.355C111.967 107.355 111.968 107.354 111.968 107.354C111.969 107.354 111.969 107.354 111.969 107.354C111.97 107.353 111.97 107.353 113.382 110ZM120.687 101.079C119.385 99.5171 117.653 98.9688 116.078 98.9688C114.614 98.9688 113.251 99.4283 112.226 99.8836C111.167 100.354 110.242 100.925 109.6 101.358C109.274 101.579 109.007 101.774 108.816 101.918C108.721 101.99 108.644 102.05 108.588 102.094C108.56 102.116 108.537 102.134 108.519 102.149C108.51 102.156 108.503 102.162 108.497 102.167C108.494 102.169 108.491 102.171 108.489 102.173C108.487 102.174 108.486 102.175 108.485 102.176C108.485 102.176 108.484 102.177 108.484 102.177C108.483 102.178 108.483 102.178 110.382 104.5C112.282 106.822 112.281 106.822 112.281 106.823C112.281 106.823 112.28 106.823 112.28 106.824C112.279 106.824 112.278 106.825 112.278 106.825C112.277 106.826 112.276 106.827 112.276 106.827C112.275 106.828 112.275 106.827 112.277 106.826C112.281 106.823 112.289 106.817 112.301 106.806C112.327 106.786 112.371 106.752 112.431 106.707C112.551 106.616 112.733 106.483 112.961 106.329C113.428 106.013 114.035 105.646 114.663 105.366C115.326 105.072 115.806 104.969 116.078 104.969C116.188 104.969 116.2 104.986 116.157 104.968C116.099 104.944 116.069 104.91 116.078 104.921L120.687 101.079ZM110.382 104.5C112.687 102.579 112.686 102.579 112.685 102.578C112.685 102.577 112.685 102.577 112.684 102.576C112.683 102.575 112.682 102.574 112.681 102.572C112.679 102.57 112.676 102.567 112.674 102.564C112.669 102.558 112.663 102.551 112.657 102.544C112.644 102.529 112.629 102.511 112.61 102.49C112.574 102.449 112.528 102.397 112.471 102.336C112.358 102.214 112.203 102.054 112.011 101.872C111.634 101.517 111.071 101.04 110.363 100.615C109 99.7969 106.468 98.85 103.839 100.428L106.926 105.572C106.948 105.559 106.938 105.568 106.903 105.576C106.871 105.582 106.852 105.579 106.861 105.58C106.897 105.585 107.038 105.617 107.276 105.76C107.506 105.898 107.724 106.077 107.895 106.237C107.975 106.314 108.035 106.376 108.069 106.412C108.085 106.43 108.095 106.441 108.097 106.443C108.098 106.444 108.096 106.443 108.093 106.439C108.092 106.437 108.09 106.435 108.087 106.432C108.086 106.43 108.084 106.429 108.083 106.427C108.082 106.426 108.081 106.425 108.08 106.424C108.08 106.423 108.079 106.422 108.079 106.422C108.078 106.421 108.078 106.421 110.382 104.5ZM103.839 100.428C101.222 101.998 100.856 104.636 100.95 106.239C100.998 107.058 101.163 107.77 101.305 108.262C101.378 108.514 101.449 108.724 101.506 108.879C101.534 108.956 101.559 109.021 101.58 109.072C101.59 109.098 101.599 109.12 101.606 109.138C101.61 109.147 101.614 109.155 101.617 109.163C101.618 109.166 101.62 109.17 101.621 109.173C101.622 109.174 101.622 109.176 101.623 109.177C101.623 109.178 101.624 109.179 101.624 109.18C101.624 109.181 101.625 109.182 104.382 108C107.14 106.818 107.14 106.819 107.141 106.82C107.141 106.821 107.141 106.822 107.141 106.822C107.142 106.823 107.142 106.825 107.143 106.826C107.144 106.828 107.145 106.83 107.146 106.832C107.147 106.836 107.149 106.839 107.15 106.842C107.152 106.847 107.153 106.849 107.152 106.848C107.152 106.847 107.147 106.836 107.14 106.815C107.124 106.772 107.098 106.697 107.069 106.597C107.008 106.386 106.954 106.13 106.94 105.886C106.925 105.634 106.96 105.52 106.965 105.507C106.965 105.507 106.963 105.513 106.956 105.524C106.95 105.535 106.942 105.547 106.932 105.56C106.908 105.588 106.896 105.59 106.926 105.572L103.839 100.428ZM102.903 105.39L87.9032 113.89L90.8613 119.11L105.861 110.61L102.903 105.39ZM92.3822 116.5V99.5H86.3822V116.5H92.3822ZM89.3822 99.5C89.3822 102.5 89.3835 102.5 89.3848 102.5C89.3853 102.5 89.3866 102.5 89.3876 102.5C89.3894 102.5 89.3913 102.5 89.3933 102.5C89.3973 102.5 89.4015 102.5 89.406 102.5C89.4149 102.5 89.425 102.5 89.436 102.5C89.4582 102.499 89.4844 102.499 89.5146 102.498C89.5749 102.496 89.6512 102.493 89.7412 102.487C89.9205 102.476 90.1597 102.455 90.4402 102.414C90.9858 102.334 91.7648 102.17 92.5847 101.811C93.4061 101.452 94.3755 100.85 95.1435 99.8416C95.9416 98.794 96.3822 97.4894 96.3822 96H90.3822C90.3822 96.2606 90.3228 96.2685 90.3709 96.2053C90.389 96.1816 90.3584 96.2359 90.1798 96.314C89.9997 96.3928 89.7787 96.4469 89.5743 96.4767C89.4798 96.4905 89.4065 96.4965 89.367 96.499C89.3477 96.5002 89.338 96.5005 89.3397 96.5004C89.3406 96.5004 89.3444 96.5003 89.3514 96.5002C89.3549 96.5001 89.3592 96.5001 89.3643 96.5001C89.3669 96.5 89.3696 96.5 89.3726 96.5C89.3741 96.5 89.3757 96.5 89.3773 96.5C89.3781 96.5 89.3793 96.5 89.3797 96.5C89.381 96.5 89.3822 96.5 89.3822 99.5ZM96.3822 96C96.3822 94.5106 95.9416 93.206 95.1435 92.1584C94.3755 91.1504 93.4061 90.5484 92.5847 90.189C91.7648 89.8303 90.9858 89.6657 90.4402 89.5861C90.1597 89.5452 89.9205 89.5239 89.7412 89.5127C89.6512 89.507 89.5749 89.5039 89.5146 89.5021C89.4844 89.5012 89.4582 89.5007 89.436 89.5004C89.425 89.5002 89.4149 89.5001 89.406 89.5001C89.4015 89.5001 89.3973 89.5 89.3933 89.5C89.3913 89.5 89.3894 89.5 89.3876 89.5C89.3866 89.5 89.3853 89.5 89.3848 89.5C89.3835 89.5 89.3822 89.5 89.3822 92.5C89.3822 95.5 89.381 95.5 89.3797 95.5C89.3793 95.5 89.3781 95.5 89.3773 95.5C89.3757 95.5 89.3741 95.5 89.3726 95.5C89.3696 95.5 89.3669 95.5 89.3643 95.4999C89.3592 95.4999 89.3549 95.4999 89.3514 95.4998C89.3444 95.4997 89.3406 95.4996 89.3397 95.4996C89.338 95.4995 89.3477 95.4998 89.367 95.501C89.4065 95.5035 89.4798 95.5095 89.5743 95.5233C89.7787 95.5531 89.9997 95.6072 90.1798 95.686C90.3584 95.7641 90.389 95.8184 90.3709 95.7947C90.3228 95.7315 90.3822 95.7394 90.3822 96H96.3822ZM89.3822 92.5C92.3559 92.8965 92.356 92.8957 92.3561 92.8949C92.3562 92.8946 92.3563 92.8937 92.3564 92.8931C92.3565 92.8918 92.3567 92.8905 92.3569 92.889C92.3573 92.886 92.3577 92.8826 92.3583 92.8787C92.3593 92.8709 92.3605 92.8612 92.3619 92.8498C92.3648 92.8269 92.3684 92.7969 92.3727 92.7601C92.3811 92.6867 92.3921 92.5861 92.4039 92.4622C92.4274 92.215 92.4548 91.871 92.473 91.4613C92.5087 90.658 92.5127 89.529 92.3559 88.3535C92.2063 87.2314 91.8737 85.7664 91.0346 84.5078C90.0921 83.094 88.5256 82 86.3822 82V88C86.392 88 86.291 87.9962 86.1604 87.9208C86.0435 87.8534 86.0131 87.7921 86.0423 87.836C86.1407 87.9836 86.3082 88.3936 86.4086 89.1465C86.5018 89.846 86.5057 90.592 86.4789 91.1949C86.4659 91.4884 86.4464 91.7303 86.4309 91.8933C86.4232 91.9745 86.4165 92.035 86.4123 92.0714C86.4102 92.0896 86.4087 92.1017 86.4081 92.1072C86.4077 92.1099 86.4076 92.111 86.4076 92.1105C86.4077 92.1102 86.4078 92.1094 86.4079 92.1083C86.408 92.1077 86.4081 92.107 86.4082 92.1062C86.4082 92.1058 86.4083 92.1052 86.4084 92.105C86.4085 92.1042 86.4086 92.1035 89.3822 92.5Z" fill="black" mask="url(#path-4-outside-1_30_370)"/>
</svg>
