<svg width="168" height="127" viewBox="0 0 168 127" fill="none" xmlns="http://www.w3.org/2000/svg">
<path d="M33.3718 30.2772C47.8718 29.4886 53.3717 34.2772 53.3717 34.2772C53.3717 34.2772 65.3717 -3.58949 108.872 0.277184C152.372 4.14386 153.372 52.7772 153.372 52.7772C153.372 52.7772 167.872 59.7772 167.872 77.7772C167.872 95.7772 151.372 102.777 144.372 102.777H29.8717C29.8717 102.777 3.87174 98.7772 0.371741 72.2772C-3.12826 45.7772 18.8718 31.0657 33.3718 30.2772Z" fill="white"/>
<mask id="path-2-outside-1_30_356" maskUnits="userSpaceOnUse" x="53" y="47" width="71" height="80" fill="black">
<rect fill="white" x="53" y="47" width="71" height="80"/>
<path d="M85.3822 57.5C85.3822 57.5 84.3822 50 88.3822 50C92.3822 50 91.3822 57.5 91.3822 57.5C91.3822 57.5 95.3822 57.5 95.3822 61C95.3822 64.5 91.3822 64.5 91.3822 64.5V81.5L106.382 73C106.382 73 104.882 69.5 107.382 68C109.882 66.5 112.382 69.5 112.382 69.5C112.382 69.5 117.882 65 120.382 68C122.882 71 115.382 75 115.382 75C115.382 75 117.382 78.5 114.882 80C112.382 81.5 109.382 78.5 109.382 78.5L94.8822 87L109.382 95.5C109.382 95.5 111.882 92.5 114.382 94C116.882 95.5 115.382 98.5 115.382 98.5C115.382 98.5 122.382 102.5 120.382 105.5C118.382 108.5 112.382 104.5 112.382 104.5C112.382 104.5 109.882 107.25 107.382 106C104.882 104.75 105.882 101 105.882 101L91.3822 93V109.5C91.3822 109.5 95.3822 110 95.3822 113C95.3822 116 91.3822 116.5 91.3822 116.5C91.3822 116.5 92.3822 124 88.3822 124C84.3822 124 84.8822 116.5 84.8822 116.5C84.8822 116.5 81.3822 116 81.3822 113C81.3822 110 84.8822 109.5 84.8822 109.5V93L70.3822 101C70.3822 101 71.8822 104 69.3822 105.5C66.8822 107 64.3822 104.5 64.3822 104.5C64.3822 104.5 58.3822 108.5 56.3822 105.5C54.3822 102.5 60.8822 99 60.8822 99C60.8822 99 59.8822 95 62.3822 93.5C64.8822 92 67.8822 95 67.8822 95L81.3822 87L66.8822 78.5C66.8822 78.5 65.3822 81.5 62.3822 80C59.3822 78.5 61.3822 75 61.3822 75C61.3822 75 54.3822 72 56.3822 68.5C58.3822 65 64.3822 69.5 64.3822 69.5C64.3822 69.5 66.3822 67 68.8822 68C71.3822 69 70.3822 72.5 70.3822 72.5L85.3822 81.5V64.5C85.3822 64.5 81.3822 64 81.3822 61C81.3822 58 85.3822 57.5 85.3822 57.5Z"/>
</mask>
<path d="M85.3822 57.5C85.3822 57.5 84.3822 50 88.3822 50C92.3822 50 91.3822 57.5 91.3822 57.5C91.3822 57.5 95.3822 57.5 95.3822 61C95.3822 64.5 91.3822 64.5 91.3822 64.5V81.5L106.382 73C106.382 73 104.882 69.5 107.382 68C109.882 66.5 112.382 69.5 112.382 69.5C112.382 69.5 117.882 65 120.382 68C122.882 71 115.382 75 115.382 75C115.382 75 117.382 78.5 114.882 80C112.382 81.5 109.382 78.5 109.382 78.5L94.8822 87L109.382 95.5C109.382 95.5 111.882 92.5 114.382 94C116.882 95.5 115.382 98.5 115.382 98.5C115.382 98.5 122.382 102.5 120.382 105.5C118.382 108.5 112.382 104.5 112.382 104.5C112.382 104.5 109.882 107.25 107.382 106C104.882 104.75 105.882 101 105.882 101L91.3822 93V109.5C91.3822 109.5 95.3822 110 95.3822 113C95.3822 116 91.3822 116.5 91.3822 116.5C91.3822 116.5 92.3822 124 88.3822 124C84.3822 124 84.8822 116.5 84.8822 116.5C84.8822 116.5 81.3822 116 81.3822 113C81.3822 110 84.8822 109.5 84.8822 109.5V93L70.3822 101C70.3822 101 71.8822 104 69.3822 105.5C66.8822 107 64.3822 104.5 64.3822 104.5C64.3822 104.5 58.3822 108.5 56.3822 105.5C54.3822 102.5 60.8822 99 60.8822 99C60.8822 99 59.8822 95 62.3822 93.5C64.8822 92 67.8822 95 67.8822 95L81.3822 87L66.8822 78.5C66.8822 78.5 65.3822 81.5 62.3822 80C59.3822 78.5 61.3822 75 61.3822 75C61.3822 75 54.3822 72 56.3822 68.5C58.3822 65 64.3822 69.5 64.3822 69.5C64.3822 69.5 66.3822 67 68.8822 68C71.3822 69 70.3822 72.5 70.3822 72.5L85.3822 81.5V64.5C85.3822 64.5 81.3822 64 81.3822 61C81.3822 58 85.3822 57.5 85.3822 57.5Z" fill="white"/>
<path d="M85.3822 57.5L85.7543 60.4768L88.7557 60.1017L88.3559 57.1035L85.3822 57.5ZM85.3822 64.5H88.3822V61.8517L85.7543 61.5232L85.3822 64.5ZM85.3822 81.5L83.8387 84.0725L88.3822 86.7986V81.5H85.3822ZM70.3822 72.5L67.4977 71.6758L66.8655 73.8885L68.8387 75.0725L70.3822 72.5ZM64.3822 69.5L62.5822 71.9L64.9084 73.6446L66.7248 71.3741L64.3822 69.5ZM61.3822 75L63.987 76.4884L65.6559 73.5677L62.564 72.2426L61.3822 75ZM66.8822 78.5L68.3994 75.9119L65.633 74.2902L64.199 77.1584L66.8822 78.5ZM81.3822 87L82.9116 89.5809L87.2905 86.986L82.8994 84.4119L81.3822 87ZM67.8822 95L65.7609 97.1213L67.4079 98.7683L69.4116 97.5809L67.8822 95ZM60.8822 99L62.3045 101.641L64.3584 100.535L63.7927 98.2724L60.8822 99ZM56.3822 105.5L53.8861 107.164H53.8861L56.3822 105.5ZM64.3822 104.5L66.5036 102.379L64.7645 100.64L62.7181 102.004L64.3822 104.5ZM70.3822 101L68.933 98.3733L66.4106 99.7649L67.699 102.342L70.3822 101ZM84.8822 93H87.8822V87.9185L83.433 90.3733L84.8822 93ZM84.8822 109.5L85.3065 112.47L87.8822 112.102V109.5H84.8822ZM84.8822 116.5L87.8756 116.7L88.0607 113.924L85.3065 113.53L84.8822 116.5ZM91.3822 116.5L91.0101 113.523L88.0088 113.898L88.4086 116.896L91.3822 116.5ZM91.3822 109.5H88.3822V112.148L91.0101 112.477L91.3822 109.5ZM91.3822 93L92.8315 90.3733L88.3822 87.9185V93H91.3822ZM105.882 101L108.781 101.773L109.385 99.5064L107.331 98.3733L105.882 101ZM112.382 104.5L114.046 102.004L111.899 100.572L110.162 102.482L112.382 104.5ZM115.382 98.5L112.699 97.1584L111.43 99.6967L113.894 101.105L115.382 98.5ZM109.382 95.5L107.865 98.0881L110.059 99.3741L111.687 97.4206L109.382 95.5ZM94.8822 87L93.3651 84.4119L88.9501 87L93.3651 89.5881L94.8822 87ZM109.382 78.5L111.504 76.3787L109.865 74.7398L107.865 75.9119L109.382 78.5ZM115.382 75L113.97 72.3529L111.245 73.8065L112.778 76.4884L115.382 75ZM112.382 69.5L110.078 71.4206L111.981 73.7045L114.282 71.8219L112.382 69.5ZM106.382 73L107.861 75.6101L110.197 74.2863L109.14 71.8182L106.382 73ZM91.3822 81.5H88.3822V86.6482L92.8613 84.1101L91.3822 81.5ZM91.3822 64.5V61.5H88.3822V64.5H91.3822ZM91.3822 57.5L88.4086 57.1035L87.9557 60.5H91.3822V57.5ZM88.3822 47C86.2389 47 84.6724 48.094 83.7298 49.5078C82.8907 50.7664 82.5582 52.2314 82.4086 53.3535C82.2518 54.529 82.2557 55.658 82.2914 56.4613C82.3097 56.871 82.3371 57.215 82.3606 57.4622C82.3724 57.5861 82.3833 57.6867 82.3918 57.7601C82.3961 57.7969 82.3997 57.8269 82.4026 57.8498C82.404 57.8612 82.4052 57.8709 82.4062 57.8787C82.4067 57.8826 82.4072 57.886 82.4076 57.889C82.4078 57.8905 82.4079 57.8918 82.4081 57.8931C82.4082 57.8937 82.4083 57.8946 82.4083 57.8949C82.4084 57.8957 82.4085 57.8965 85.3822 57.5C88.3559 57.1035 88.356 57.1042 88.3561 57.105C88.3561 57.1051 88.3562 57.1058 88.3563 57.1062C88.3564 57.107 88.3565 57.1077 88.3565 57.1083C88.3567 57.1094 88.3568 57.1102 88.3568 57.1105C88.3569 57.111 88.3568 57.1099 88.3564 57.1072C88.3557 57.1016 88.3542 57.0896 88.3521 57.0714C88.3479 57.035 88.3413 56.9744 88.3336 56.8933C88.318 56.7303 88.2986 56.4884 88.2855 56.1949C88.2587 55.592 88.2627 54.846 88.3559 54.1465C88.4563 53.3936 88.6237 52.9836 88.7221 52.836C88.7514 52.7921 88.721 52.8534 88.6041 52.9208C88.4734 52.9962 88.3725 53 88.3822 53V47ZM85.3822 57.5C85.0101 54.5232 85.009 54.5233 85.0079 54.5234C85.0075 54.5235 85.0064 54.5236 85.0056 54.5237C85.0041 54.5239 85.0024 54.5241 85.0007 54.5244C84.9974 54.5248 84.9937 54.5253 84.9898 54.5258C84.982 54.5268 84.9731 54.528 84.9633 54.5293C84.9436 54.532 84.9198 54.5354 84.8923 54.5395C84.8373 54.5478 84.7668 54.5591 84.683 54.5741C84.5161 54.6039 84.2923 54.6489 84.0296 54.7146C83.5167 54.8428 82.7948 55.0646 82.0406 55.4417C80.5825 56.1708 78.3822 57.8511 78.3822 61L84.3822 61C84.3822 60.9657 84.3866 60.9774 84.3735 61.0135C84.3612 61.0473 84.3473 61.0648 84.3498 61.0616C84.3684 61.0384 84.468 60.9362 84.7239 60.8083C84.9697 60.6854 85.2478 60.5947 85.4848 60.5354C85.5972 60.5073 85.6859 60.4899 85.7377 60.4806C85.7633 60.4761 85.7787 60.4737 85.7823 60.4732C85.7841 60.4729 85.7828 60.4731 85.7782 60.4737C85.776 60.474 85.7728 60.4745 85.7689 60.475C85.7669 60.4752 85.7647 60.4755 85.7623 60.4758C85.761 60.476 85.7598 60.4761 85.7585 60.4763C85.7578 60.4764 85.7568 60.4765 85.7564 60.4766C85.7554 60.4767 85.7543 60.4768 85.3822 57.5ZM78.3822 61C78.3822 64.1489 80.5825 65.8292 82.0406 66.5583C82.7948 66.9354 83.5167 67.1572 84.0296 67.2854C84.2923 67.3511 84.5161 67.3961 84.683 67.4259C84.7668 67.4409 84.8373 67.4522 84.8923 67.4605C84.9198 67.4646 84.9436 67.468 84.9633 67.4707C84.9731 67.472 84.982 67.4732 84.9898 67.4742C84.9937 67.4747 84.9974 67.4752 85.0007 67.4756C85.0024 67.4759 85.0041 67.4761 85.0056 67.4763C85.0064 67.4764 85.0075 67.4765 85.0079 67.4766C85.009 67.4767 85.0101 67.4768 85.3822 64.5C85.7543 61.5232 85.7554 61.5233 85.7564 61.5234C85.7568 61.5235 85.7578 61.5236 85.7585 61.5237C85.7598 61.5239 85.761 61.524 85.7623 61.5242C85.7647 61.5245 85.7669 61.5248 85.7689 61.525C85.7728 61.5255 85.7759 61.526 85.7782 61.5263C85.7828 61.5269 85.7841 61.5271 85.7823 61.5268C85.7787 61.5263 85.7633 61.5239 85.7377 61.5194C85.6859 61.5101 85.5972 61.4927 85.4848 61.4646C85.2478 61.4053 84.9697 61.3146 84.7239 61.1917C84.468 61.0638 84.3684 60.9616 84.3498 60.9384C84.3473 60.9352 84.3612 60.9527 84.3735 60.9865C84.3866 61.0226 84.3822 61.0343 84.3822 61L78.3822 61ZM82.3822 64.5V81.5H88.3822V64.5H82.3822ZM86.9257 78.9275L71.9257 69.9275L68.8387 75.0725L83.8387 84.0725L86.9257 78.9275ZM70.3822 72.5C73.2668 73.3242 73.2671 73.3231 73.2674 73.322C73.2675 73.3217 73.2678 73.3206 73.268 73.3198C73.2685 73.3183 73.2689 73.3168 73.2694 73.3152C73.2703 73.3119 73.2712 73.3085 73.2723 73.3048C73.2743 73.2974 73.2766 73.2891 73.2792 73.2798C73.2842 73.2614 73.2901 73.2393 73.2967 73.2138C73.3099 73.1628 73.3261 73.0977 73.344 73.0201C73.3795 72.8656 73.4226 72.6574 73.4622 72.4088C73.5392 71.9249 73.613 71.2243 73.5639 70.4379C73.469 68.9202 72.8107 66.3403 69.9964 65.2146L67.7681 70.7854C67.7681 70.7854 67.7644 70.784 67.7578 70.7806C67.7511 70.7772 67.7419 70.7723 67.7308 70.7654C67.7078 70.7511 67.6811 70.7316 67.6536 70.7068C67.5956 70.6544 67.5599 70.602 67.5426 70.5708C67.5192 70.5282 67.5615 70.5865 67.5756 70.8121C67.5889 71.0257 67.5691 71.2626 67.5367 71.4662C67.5215 71.5614 67.506 71.6344 67.4967 71.6752C67.492 71.6952 67.4892 71.7063 67.489 71.7071C67.4889 71.7074 67.4895 71.7051 67.4909 71.7C67.4916 71.6974 67.4925 71.6942 67.4936 71.6901C67.4942 71.6881 67.4948 71.6859 67.4955 71.6836C67.4958 71.6824 67.4962 71.6811 67.4965 71.6798C67.4967 71.6792 67.497 71.6782 67.4971 71.6779C67.4974 71.6769 67.4977 71.6758 70.3822 72.5ZM69.9964 65.2146C67.5362 64.2305 65.3852 65.0429 64.1224 65.82C63.4841 66.2129 62.9859 66.6425 62.65 66.9668C62.4789 67.132 62.3412 67.2783 62.2399 67.3913C62.189 67.448 62.1468 67.4969 62.1134 67.5364C62.0967 67.5562 62.0822 67.5737 62.0699 67.5886C62.0637 67.5961 62.0581 67.603 62.0531 67.6092C62.0506 67.6123 62.0482 67.6153 62.0459 67.6181C62.0448 67.6194 62.0437 67.6208 62.0427 67.6221C62.0422 67.6228 62.0414 67.6237 62.0411 67.624C62.0404 67.625 62.0396 67.6259 64.3822 69.5C66.7248 71.3741 66.7241 71.375 66.7234 71.3759C66.7232 71.3762 66.7224 71.3771 66.722 71.3777C66.721 71.3788 66.7201 71.3799 66.7193 71.381C66.7175 71.3832 66.7159 71.3853 66.7143 71.3872C66.7112 71.391 66.7085 71.3943 66.7062 71.3971C66.7017 71.4026 66.6987 71.4062 66.6972 71.4079C66.6944 71.4113 66.6975 71.4075 66.7062 71.3978C66.724 71.3779 66.7622 71.3367 66.8176 71.2832C66.9348 71.17 67.0929 71.0371 67.267 70.93C67.6293 70.7071 67.7282 70.7695 67.7681 70.7854L69.9964 65.2146ZM64.3822 69.5C66.1822 67.1 66.1816 67.0995 66.1809 67.099C66.1807 67.0988 66.18 67.0983 66.1794 67.0979C66.1784 67.0971 66.1773 67.0963 66.1761 67.0954C66.1737 67.0936 66.1709 67.0915 66.1677 67.0891C66.1613 67.0844 66.1535 67.0786 66.1442 67.0718C66.1257 67.0581 66.1012 67.0403 66.0713 67.0186C66.0115 66.9754 65.9294 66.9169 65.8274 66.8464C65.6241 66.7057 65.3386 66.5148 64.9914 66.3C64.3107 65.8791 63.3306 65.328 62.2292 64.8952C61.176 64.4815 59.7364 64.0643 58.2268 64.1901C56.5367 64.3309 54.8326 65.1652 53.7775 67.0116L58.987 69.9884C58.9978 69.9694 58.954 70.0448 58.8364 70.1149C58.7311 70.1777 58.671 70.1738 58.7251 70.1693C58.9031 70.1545 59.3384 70.206 60.0353 70.4798C60.6838 70.7345 61.3287 71.0896 61.8356 71.4031C62.0822 71.5556 62.281 71.6888 62.4136 71.7806C62.4796 71.8262 62.5283 71.861 62.5574 71.882C62.5719 71.8925 62.5814 71.8995 62.5857 71.9026C62.5878 71.9042 62.5886 71.9048 62.5881 71.9044C62.5878 71.9041 62.5872 71.9037 62.5862 71.903C62.5857 71.9026 62.5851 71.9022 62.5845 71.9017C62.5841 71.9014 62.5836 71.901 62.5834 71.9009C62.5828 71.9005 62.5822 71.9 64.3822 69.5ZM53.7775 67.0116C52.7128 68.8748 52.8822 70.7788 53.6203 72.301C54.282 73.6657 55.3733 74.7047 56.2701 75.4146C57.2075 76.1567 58.1857 76.7354 58.8994 77.119C59.2632 77.3146 59.5747 77.4682 59.8005 77.5752C59.9137 77.6288 60.0063 77.6712 60.0741 77.7017C60.108 77.717 60.1359 77.7293 60.1571 77.7386C60.1677 77.7432 60.1767 77.7471 60.1839 77.7503C60.1875 77.7519 60.1907 77.7532 60.1935 77.7544C60.1949 77.755 60.1961 77.7556 60.1973 77.7561C60.1979 77.7563 60.1987 77.7567 60.199 77.7568C60.1997 77.7571 60.2005 77.7574 61.3822 75C62.564 72.2426 62.5647 72.2429 62.5653 72.2431C62.5655 72.2432 62.5661 72.2435 62.5665 72.2436C62.5673 72.244 62.5679 72.2442 62.5684 72.2445C62.5695 72.2449 62.5702 72.2452 62.5704 72.2453C62.571 72.2456 62.5699 72.2451 62.5673 72.244C62.5622 72.2417 62.5509 72.2368 62.5341 72.2292C62.5004 72.214 62.4445 72.1885 62.3702 72.1533C62.221 72.0826 62.0013 71.9745 61.7401 71.8341C61.2037 71.5458 60.557 71.1558 59.9943 70.7104C59.3911 70.2328 59.1075 69.8655 59.0192 69.6834C58.9899 69.6231 59.0229 69.6652 59.0229 69.7842C59.0229 69.9195 58.9806 69.9996 58.987 69.9884L53.7775 67.0116ZM61.3822 75C58.7775 73.5116 58.7769 73.5127 58.7763 73.5137C58.7761 73.5141 58.7754 73.5152 58.775 73.516C58.7741 73.5175 58.7732 73.5191 58.7723 73.5207C58.7704 73.524 58.7684 73.5276 58.7663 73.5313C58.7621 73.5389 58.7573 73.5473 58.7521 73.5567C58.7417 73.5755 58.7294 73.598 58.7155 73.624C58.6877 73.6761 58.653 73.7426 58.6136 73.8223C58.5351 73.9808 58.4352 74.1962 58.3312 74.4561C58.1297 74.9599 57.8809 75.7103 57.7778 76.587C57.675 77.4604 57.6999 78.6108 58.2091 79.7821C58.7448 81.014 59.7083 82.0171 61.0406 82.6833L63.7239 77.3167C63.5562 77.2329 63.6447 77.236 63.7116 77.3898C63.7521 77.483 63.7144 77.4771 63.7367 77.288C63.7585 77.1022 63.8223 76.8839 63.902 76.6845C63.9387 76.5929 63.9715 76.5231 63.9907 76.4843C64.0001 76.4654 64.0055 76.4553 64.0055 76.4553C64.0055 76.4553 64.004 76.458 64.001 76.4634C63.9995 76.4662 63.9976 76.4696 63.9953 76.4737C63.9941 76.4758 63.9928 76.4781 63.9915 76.4805C63.9908 76.4818 63.99 76.483 63.9893 76.4843C63.9889 76.485 63.9883 76.486 63.9881 76.4863C63.9876 76.4874 63.987 76.4884 61.3822 75ZM61.0406 82.6833C62.2601 83.293 63.5095 83.527 64.7231 83.3753C65.9143 83.2264 66.8639 82.7325 67.5572 82.2125C68.24 81.7004 68.7225 81.1287 69.0272 80.7098C69.1838 80.4945 69.3052 80.3033 69.3928 80.1554C69.4369 80.081 69.4732 80.0163 69.5018 79.9636C69.5161 79.9372 69.5285 79.9137 69.5391 79.8933C69.5444 79.8831 69.5493 79.8737 69.5537 79.8651C69.5559 79.8608 69.558 79.8566 69.5599 79.8527C69.5609 79.8508 69.5619 79.8489 69.5628 79.847C69.5633 79.8461 69.564 79.8448 69.5642 79.8443C69.5649 79.843 69.5655 79.8416 66.8822 78.5C64.199 77.1584 64.1996 77.1571 64.2002 77.1558C64.2005 77.1554 64.2011 77.1541 64.2015 77.1532C64.2024 77.1516 64.2032 77.1499 64.204 77.1484C64.2056 77.1452 64.2071 77.1421 64.2086 77.1393C64.2115 77.1335 64.2142 77.1284 64.2165 77.1238C64.2213 77.1147 64.225 77.1078 64.2276 77.103C64.2327 77.0935 64.2338 77.0919 64.231 77.0966C64.2249 77.1069 64.2057 77.1383 64.1748 77.1808C64.1044 77.2775 64.0244 77.3621 63.9572 77.4125C63.9006 77.455 63.9127 77.4299 63.9789 77.4216C64.0675 77.4105 64.0043 77.457 63.7239 77.3167L61.0406 82.6833ZM65.3651 81.0881L79.8651 89.5881L82.8994 84.4119L68.3994 75.9119L65.3651 81.0881ZM79.8528 84.4191L66.3528 92.4191L69.4116 97.5809L82.9116 89.5809L79.8528 84.4191ZM67.8822 95C70.0036 92.8787 70.0028 92.878 70.0021 92.8773C70.0019 92.877 70.0012 92.8763 70.0006 92.8758C69.9996 92.8748 69.9986 92.8737 69.9974 92.8726C69.9952 92.8703 69.9928 92.8679 69.9901 92.8653C69.9849 92.8601 69.9788 92.8542 69.972 92.8475C69.9584 92.8341 69.9416 92.8179 69.9219 92.799C69.8824 92.7612 69.8307 92.7127 69.7677 92.6553C69.6421 92.541 69.469 92.3895 69.2554 92.2177C68.8366 91.8805 68.2221 91.4325 67.4734 91.0361C66.1063 90.3124 63.4632 89.3528 60.8387 90.9275L63.9257 96.0725C63.9284 96.0709 63.916 96.0773 63.9005 96.0803C63.8899 96.0823 63.9074 96.0768 63.965 96.0832C64.1016 96.0984 64.3402 96.1664 64.6661 96.3389C64.9798 96.505 65.2717 96.7133 65.4934 96.8917C65.6002 96.9777 65.6809 97.0488 65.7292 97.0927C65.7531 97.1145 65.7683 97.1289 65.774 97.1343C65.7768 97.1371 65.7772 97.1375 65.7751 97.1354C65.774 97.1343 65.7723 97.1327 65.77 97.1303C65.7688 97.1292 65.7674 97.1278 65.7659 97.1263C65.7652 97.1256 65.7644 97.1248 65.7636 97.124C65.7631 97.1235 65.7625 97.1229 65.7623 97.1227C65.7616 97.122 65.7609 97.1213 67.8822 95ZM60.8387 90.9275C58.3 92.4508 57.7801 95.1124 57.6989 96.6548C57.6549 97.4902 57.7208 98.2345 57.7929 98.7595C57.8296 99.0268 57.8696 99.2495 57.9024 99.4135C57.9189 99.4959 57.9337 99.5642 57.9456 99.617C57.9516 99.6434 57.9569 99.6659 57.9613 99.6844C57.9635 99.6936 57.9655 99.7019 57.9672 99.7091C57.9681 99.7127 57.9689 99.716 57.9697 99.7191C57.9701 99.7207 57.9704 99.7221 57.9708 99.7236C57.971 99.7243 57.9712 99.7253 57.9713 99.7256C57.9716 99.7266 57.9718 99.7276 60.8822 99C63.7927 98.2724 63.7929 98.2733 63.7931 98.2743C63.7932 98.2746 63.7934 98.2755 63.7936 98.2761C63.7939 98.2772 63.7941 98.2784 63.7944 98.2794C63.7949 98.2815 63.7954 98.2834 63.7958 98.2851C63.7966 98.2885 63.7972 98.2909 63.7976 98.2926C63.7984 98.2958 63.7983 98.2957 63.7976 98.2925C63.7961 98.2859 63.7919 98.2668 63.7859 98.2369C63.7738 98.1763 63.7552 98.0748 63.7372 97.9436C63.6999 97.6718 63.672 97.3223 63.6906 96.9702C63.7097 96.6068 63.7726 96.3515 63.8391 96.2004C63.8909 96.0827 63.9196 96.0761 63.9257 96.0725L60.8387 90.9275ZM60.8822 99C59.4599 96.3586 59.4593 96.3589 59.4586 96.3593C59.4583 96.3594 59.4576 96.3598 59.4571 96.3601C59.4561 96.3607 59.4549 96.3613 59.4537 96.362C59.4512 96.3633 59.4483 96.3649 59.445 96.3666C59.4385 96.3702 59.4303 96.3747 59.4207 96.38C59.4013 96.3906 59.3759 96.4046 59.3447 96.4221C59.2825 96.4569 59.1975 96.5052 59.0934 96.566C58.8858 96.6873 58.5993 96.8602 58.2653 97.0769C57.6093 97.5023 56.7144 98.1323 55.8642 98.9052C55.0538 99.6419 54.0695 100.699 53.4931 102.016C52.8551 103.475 52.6939 105.376 53.8861 107.164L58.8784 103.836C59.0706 104.124 58.9718 104.463 58.9901 104.421C59.07 104.239 59.3357 103.858 59.9002 103.345C60.4251 102.868 61.0301 102.435 61.5304 102.111C61.7745 101.952 61.9802 101.828 62.1203 101.747C62.19 101.706 62.2427 101.676 62.2747 101.658C62.2907 101.649 62.3015 101.643 62.3066 101.64C62.3092 101.639 62.3103 101.638 62.31 101.638C62.3098 101.639 62.3093 101.639 62.3084 101.639C62.3079 101.64 62.3074 101.64 62.3067 101.64C62.3064 101.64 62.3059 101.641 62.3057 101.641C62.3051 101.641 62.3045 101.641 60.8822 99ZM53.8861 107.164C55.0398 108.895 56.7844 109.52 58.3096 109.605C59.7293 109.684 61.1029 109.321 62.1412 108.95C63.2207 108.565 64.1873 108.078 64.8645 107.704C65.209 107.514 65.4924 107.344 65.6945 107.22C65.7957 107.158 65.8773 107.106 65.9366 107.068C65.9663 107.049 65.9905 107.033 66.0089 107.021C66.0181 107.015 66.0258 107.01 66.0321 107.006C66.0352 107.004 66.0379 107.002 66.0403 107C66.0415 106.999 66.0426 106.999 66.0436 106.998C66.0441 106.998 66.0448 106.997 66.045 106.997C66.0457 106.997 66.0463 106.996 64.3822 104.5C62.7181 102.004 62.7187 102.003 62.7193 102.003C62.7194 102.003 62.72 102.003 62.7203 102.002C62.7209 102.002 62.7215 102.002 62.722 102.001C62.7229 102.001 62.7235 102 62.7237 102C62.7242 102 62.7233 102 62.721 102.002C62.7166 102.005 62.7068 102.011 62.6921 102.021C62.6626 102.04 62.6133 102.071 62.5466 102.112C62.4127 102.195 62.2117 102.315 61.9624 102.452C61.4521 102.734 60.7938 103.06 60.1232 103.3C59.4116 103.554 58.9102 103.629 58.6424 103.614C58.48 103.605 58.7246 103.605 58.8784 103.836L53.8861 107.164ZM64.3822 104.5C62.2609 106.621 62.2618 106.622 62.2626 106.623C62.2629 106.623 62.2638 106.624 62.2644 106.625C62.2655 106.626 62.2668 106.627 62.2681 106.628C62.2706 106.631 62.2733 106.634 62.2762 106.637C62.282 106.642 62.2885 106.649 62.2956 106.656C62.3099 106.669 62.3269 106.686 62.3465 106.704C62.3857 106.742 62.4357 106.788 62.4959 106.842C62.6157 106.949 62.7786 107.088 62.9795 107.243C63.3734 107.546 63.9536 107.944 64.6761 108.281C66.1078 108.949 68.4953 109.531 70.9257 108.072L67.8387 102.928C67.7692 102.969 67.6566 103.051 67.2134 102.844C66.9984 102.744 66.7973 102.61 66.6443 102.492C66.5718 102.436 66.5198 102.391 66.4932 102.367C66.4801 102.356 66.4739 102.35 66.4753 102.351C66.476 102.352 66.4787 102.354 66.4833 102.359C66.4857 102.361 66.4885 102.364 66.4919 102.367C66.4936 102.369 66.4954 102.371 66.4973 102.372C66.4983 102.373 66.4993 102.374 66.5003 102.375C66.5009 102.376 66.5017 102.377 66.5019 102.377C66.5027 102.378 66.5036 102.379 64.3822 104.5ZM70.9257 108.072C73.4304 106.57 73.9249 104.166 73.8131 102.488C73.7599 101.69 73.5786 101.009 73.4236 100.544C73.344 100.305 73.2656 100.106 73.2025 99.9577C73.1708 99.8832 73.1425 99.8203 73.1193 99.7703C73.1077 99.7452 73.0972 99.7233 73.0882 99.7046C73.0837 99.6953 73.0795 99.6867 73.0758 99.679C73.0739 99.6752 73.0721 99.6715 73.0703 99.6681C73.0695 99.6663 73.0687 99.6647 73.0679 99.6631C73.0675 99.6623 73.0669 99.6611 73.0667 99.6607C73.0661 99.6595 73.0655 99.6584 70.3822 101C67.699 102.342 67.6984 102.341 67.6978 102.339C67.6977 102.339 67.6971 102.338 67.6967 102.337C67.696 102.336 67.6953 102.334 67.6947 102.333C67.6933 102.33 67.6921 102.328 67.6909 102.325C67.6885 102.321 67.6865 102.316 67.6847 102.313C67.6812 102.305 67.6789 102.301 67.6776 102.298C67.6751 102.292 67.6767 102.295 67.6811 102.306C67.6903 102.328 67.7096 102.375 67.7315 102.441C67.7796 102.585 67.817 102.747 67.8264 102.887C67.8357 103.027 67.8106 103.041 67.8357 102.982C67.8787 102.882 67.9351 102.87 67.8387 102.928L70.9257 108.072ZM71.8315 103.627L86.3315 95.6267L83.433 90.3733L68.933 98.3733L71.8315 103.627ZM81.8822 93V109.5H87.8822V93H81.8822ZM84.8822 109.5C84.458 106.53 84.4567 106.53 84.4555 106.531C84.4551 106.531 84.4538 106.531 84.4529 106.531C84.4512 106.531 84.4494 106.531 84.4475 106.532C84.4438 106.532 84.4398 106.533 84.4357 106.533C84.4273 106.535 84.418 106.536 84.4078 106.538C84.3874 106.541 84.3634 106.545 84.336 106.549C84.2813 106.559 84.2126 106.571 84.132 106.588C83.9714 106.621 83.759 106.67 83.5112 106.74C83.0271 106.879 82.3496 107.117 81.6438 107.52C80.1995 108.346 78.3822 110.06 78.3822 113H84.3822C84.3822 112.959 84.3852 112.932 84.3874 112.918C84.3885 112.91 84.3896 112.905 84.3903 112.902C84.391 112.899 84.3914 112.898 84.3914 112.898C84.3914 112.898 84.3911 112.899 84.3906 112.9C84.39 112.902 84.3893 112.903 84.3885 112.905C84.3868 112.908 84.3858 112.909 84.3868 112.908C84.3933 112.899 84.4497 112.827 84.6206 112.73C84.7899 112.633 84.9874 112.559 85.1595 112.51C85.2399 112.487 85.3009 112.473 85.3317 112.467C85.3468 112.464 85.3533 112.463 85.3498 112.463C85.3481 112.464 85.3437 112.464 85.3366 112.465C85.333 112.466 85.3287 112.467 85.3237 112.467C85.3212 112.468 85.3185 112.468 85.3157 112.469C85.3142 112.469 85.3128 112.469 85.3112 112.469C85.3105 112.469 85.3093 112.469 85.3089 112.47C85.3077 112.47 85.3065 112.47 84.8822 109.5ZM78.3822 113C78.3822 115.94 80.1995 117.654 81.6438 118.48C82.3496 118.883 83.0271 119.121 83.5112 119.26C83.759 119.33 83.9714 119.379 84.132 119.412C84.2126 119.429 84.2813 119.441 84.336 119.451C84.3634 119.455 84.3874 119.459 84.4078 119.462C84.418 119.464 84.4273 119.465 84.4357 119.467C84.4398 119.467 84.4438 119.468 84.4475 119.468C84.4494 119.469 84.4512 119.469 84.4529 119.469C84.4538 119.469 84.4551 119.469 84.4555 119.469C84.4567 119.47 84.458 119.47 84.8822 116.5C85.3065 113.53 85.3077 113.53 85.3089 113.53C85.3093 113.531 85.3105 113.531 85.3112 113.531C85.3128 113.531 85.3142 113.531 85.3157 113.531C85.3185 113.532 85.3212 113.532 85.3237 113.533C85.3287 113.533 85.333 113.534 85.3366 113.535C85.3437 113.536 85.3481 113.536 85.3498 113.537C85.3533 113.537 85.3468 113.536 85.3317 113.533C85.3009 113.527 85.2399 113.513 85.1595 113.49C84.9874 113.441 84.7899 113.367 84.6206 113.27C84.4497 113.173 84.3933 113.101 84.3868 113.092C84.3858 113.091 84.3868 113.092 84.3885 113.095C84.3893 113.097 84.39 113.098 84.3906 113.1C84.3911 113.101 84.3914 113.102 84.3914 113.102C84.3914 113.102 84.391 113.101 84.3903 113.098C84.3896 113.095 84.3885 113.09 84.3874 113.082C84.3852 113.068 84.3822 113.041 84.3822 113H78.3822ZM84.8822 116.5C81.8889 116.3 81.8888 116.301 81.8888 116.302C81.8887 116.302 81.8887 116.303 81.8886 116.304C81.8886 116.305 81.8885 116.307 81.8884 116.308C81.8882 116.311 81.888 116.315 81.8877 116.318C81.8872 116.326 81.8866 116.336 81.886 116.348C81.8846 116.371 81.883 116.401 81.8812 116.438C81.8776 116.511 81.8733 116.612 81.8698 116.737C81.8627 116.984 81.8582 117.329 81.8673 117.739C81.8852 118.543 81.9567 119.669 82.1905 120.838C82.4152 121.962 82.84 123.39 83.7286 124.602C84.7047 125.933 86.2623 127 88.3822 127V121C88.3729 121 88.4474 121.004 88.5403 121.055C88.6187 121.099 88.6205 121.127 88.5671 121.054C88.4245 120.86 88.2243 120.413 88.074 119.662C87.9328 118.956 87.8792 118.207 87.8659 117.605C87.8594 117.312 87.8627 117.07 87.8673 116.908C87.8696 116.827 87.8722 116.767 87.874 116.731C87.8749 116.713 87.8756 116.701 87.8759 116.695C87.876 116.693 87.8761 116.692 87.8761 116.692C87.876 116.693 87.876 116.693 87.8759 116.695C87.8759 116.695 87.8758 116.696 87.8758 116.697C87.8757 116.697 87.8757 116.698 87.8757 116.698C87.8756 116.699 87.8756 116.7 84.8822 116.5ZM88.3822 127C90.5256 127 92.0921 125.906 93.0346 124.492C93.8737 123.234 94.2063 121.769 94.3559 120.646C94.5127 119.471 94.5087 118.342 94.473 117.539C94.4548 117.129 94.4274 116.785 94.4039 116.538C94.3921 116.414 94.3811 116.313 94.3727 116.24C94.3684 116.203 94.3648 116.173 94.3619 116.15C94.3605 116.139 94.3593 116.129 94.3583 116.121C94.3577 116.117 94.3573 116.114 94.3569 116.111C94.3567 116.11 94.3565 116.108 94.3564 116.107C94.3563 116.106 94.3562 116.105 94.3561 116.105C94.356 116.104 94.3559 116.104 91.3822 116.5C88.4086 116.896 88.4085 116.896 88.4084 116.895C88.4083 116.895 88.4082 116.894 88.4082 116.894C88.4081 116.893 88.408 116.892 88.4079 116.892C88.4078 116.891 88.4077 116.89 88.4076 116.89C88.4076 116.889 88.4077 116.89 88.4081 116.893C88.4087 116.898 88.4102 116.91 88.4123 116.929C88.4165 116.965 88.4232 117.026 88.4309 117.107C88.4464 117.27 88.4659 117.512 88.4789 117.805C88.5057 118.408 88.5018 119.154 88.4086 119.854C88.3082 120.606 88.1407 121.016 88.0423 121.164C88.0131 121.208 88.0435 121.147 88.1604 121.079C88.291 121.004 88.392 121 88.3822 121V127ZM91.3822 116.5C91.7543 119.477 91.7554 119.477 91.7565 119.477C91.7569 119.477 91.7581 119.476 91.7588 119.476C91.7604 119.476 91.762 119.476 91.7637 119.476C91.7671 119.475 91.7708 119.475 91.7747 119.474C91.7825 119.473 91.7913 119.472 91.8012 119.471C91.8209 119.468 91.8446 119.465 91.8722 119.46C91.9272 119.452 91.9977 119.441 92.0815 119.426C92.2484 119.396 92.4722 119.351 92.7348 119.285C93.2478 119.157 93.9697 118.935 94.7239 118.558C96.182 117.829 98.3822 116.149 98.3822 113H92.3822C92.3822 113.034 92.3778 113.023 92.3909 112.986C92.4032 112.953 92.4171 112.935 92.4146 112.938C92.3961 112.962 92.2964 113.064 92.0406 113.192C91.7947 113.315 91.5166 113.405 91.2796 113.465C91.1673 113.493 91.0786 113.51 91.0267 113.519C91.0012 113.524 90.9857 113.526 90.9821 113.527C90.9804 113.527 90.9817 113.527 90.9862 113.526C90.9885 113.526 90.9916 113.526 90.9956 113.525C90.9976 113.525 90.9998 113.524 91.0022 113.524C91.0034 113.524 91.0047 113.524 91.006 113.524C91.0067 113.524 91.0077 113.523 91.008 113.523C91.0091 113.523 91.0101 113.523 91.3822 116.5ZM98.3822 113C98.3822 109.851 96.182 108.171 94.7239 107.442C93.9697 107.065 93.2478 106.843 92.7348 106.715C92.4722 106.649 92.2484 106.604 92.0815 106.574C91.9977 106.559 91.9272 106.548 91.8722 106.54C91.8446 106.535 91.8209 106.532 91.8012 106.529C91.7913 106.528 91.7825 106.527 91.7747 106.526C91.7708 106.525 91.7671 106.525 91.7637 106.524C91.762 106.524 91.7604 106.524 91.7588 106.524C91.7581 106.524 91.7569 106.523 91.7565 106.523C91.7554 106.523 91.7543 106.523 91.3822 109.5C91.0101 112.477 91.0091 112.477 91.008 112.477C91.0077 112.477 91.0067 112.476 91.006 112.476C91.0047 112.476 91.0034 112.476 91.0022 112.476C90.9998 112.476 90.9976 112.475 90.9956 112.475C90.9916 112.474 90.9885 112.474 90.9862 112.474C90.9817 112.473 90.9804 112.473 90.9821 112.473C90.9857 112.474 91.0012 112.476 91.0267 112.481C91.0786 112.49 91.1673 112.507 91.2796 112.535C91.5166 112.595 91.7947 112.685 92.0406 112.808C92.2964 112.936 92.3961 113.038 92.4146 113.062C92.4171 113.065 92.4032 113.047 92.3909 113.014C92.3778 112.977 92.3822 112.966 92.3822 113H98.3822ZM94.3822 109.5V93H88.3822V109.5H94.3822ZM89.933 95.6267L104.433 103.627L107.331 98.3733L92.8315 90.3733L89.933 95.6267ZM105.882 101C102.984 100.227 102.983 100.228 102.983 100.229C102.983 100.229 102.983 100.23 102.982 100.231C102.982 100.233 102.982 100.234 102.981 100.236C102.98 100.239 102.979 100.242 102.979 100.246C102.977 100.253 102.974 100.262 102.972 100.271C102.967 100.289 102.962 100.312 102.956 100.337C102.943 100.389 102.928 100.456 102.911 100.536C102.876 100.695 102.835 100.91 102.797 101.168C102.723 101.672 102.653 102.393 102.7 103.202C102.786 104.718 103.362 107.344 106.041 108.683L108.724 103.317C108.722 103.316 108.745 103.328 108.771 103.356C108.794 103.38 108.798 103.393 108.788 103.374C108.761 103.318 108.707 103.157 108.69 102.86C108.674 102.575 108.698 102.281 108.733 102.043C108.75 101.929 108.767 101.842 108.778 101.791C108.783 101.766 108.787 101.751 108.788 101.747C108.788 101.746 108.788 101.747 108.787 101.751C108.786 101.753 108.785 101.756 108.785 101.759C108.784 101.761 108.783 101.763 108.783 101.766C108.783 101.767 108.782 101.768 108.782 101.769C108.782 101.77 108.782 101.771 108.781 101.771C108.781 101.772 108.781 101.773 105.882 101ZM106.041 108.683C108.593 109.96 110.984 109.074 112.299 108.329C112.991 107.937 113.547 107.5 113.923 107.172C114.116 107.005 114.271 106.857 114.384 106.744C114.441 106.688 114.488 106.639 114.524 106.601C114.543 106.582 114.558 106.566 114.571 106.552C114.578 106.545 114.583 106.538 114.589 106.533C114.591 106.53 114.594 106.527 114.596 106.525C114.597 106.524 114.598 106.522 114.599 106.521C114.6 106.521 114.6 106.52 114.601 106.52C114.601 106.519 114.602 106.518 112.382 104.5C110.162 102.482 110.163 102.481 110.164 102.48C110.164 102.48 110.165 102.479 110.165 102.479C110.166 102.478 110.167 102.477 110.168 102.476C110.169 102.474 110.171 102.473 110.172 102.471C110.175 102.468 110.177 102.466 110.179 102.464C110.182 102.461 110.183 102.459 110.183 102.46C110.181 102.461 110.172 102.471 110.156 102.487C110.123 102.52 110.063 102.578 109.982 102.648C109.812 102.797 109.586 102.97 109.341 103.109C109.088 103.252 108.905 103.308 108.802 103.322C108.737 103.331 108.737 103.323 108.724 103.317L106.041 108.683ZM112.382 104.5C110.718 106.996 110.719 106.997 110.719 106.997C110.72 106.997 110.72 106.998 110.721 106.998C110.722 106.999 110.723 106.999 110.724 107C110.727 107.002 110.729 107.004 110.732 107.006C110.739 107.01 110.746 107.015 110.756 107.021C110.774 107.033 110.798 107.049 110.828 107.068C110.887 107.106 110.969 107.158 111.07 107.22C111.272 107.344 111.555 107.514 111.9 107.704C112.577 108.078 113.544 108.565 114.623 108.95C115.662 109.321 117.035 109.684 118.455 109.605C119.98 109.52 121.725 108.895 122.878 107.164L117.886 103.836C118.04 103.605 118.284 103.605 118.122 103.614C117.854 103.629 117.353 103.554 116.641 103.3C115.971 103.06 115.312 102.734 114.802 102.452C114.553 102.315 114.352 102.195 114.218 102.112C114.151 102.071 114.102 102.04 114.072 102.021C114.058 102.011 114.048 102.005 114.043 102.002C114.041 102 114.04 102 114.041 102C114.041 102 114.042 102.001 114.043 102.001C114.043 102.002 114.044 102.002 114.044 102.002C114.044 102.003 114.045 102.003 114.045 102.003C114.046 102.003 114.046 102.004 112.382 104.5ZM122.878 107.164C124.138 105.275 123.827 103.283 123.159 101.863C122.539 100.545 121.517 99.4499 120.659 98.6635C119.762 97.8406 118.818 97.1546 118.123 96.6853C117.77 96.447 117.468 96.2558 117.25 96.1218C117.141 96.0547 117.052 96.0015 116.987 95.9634C116.955 95.9443 116.929 95.929 116.909 95.9176C116.9 95.9119 116.891 95.9072 116.885 95.9035C116.882 95.9016 116.879 95.9 116.877 95.8986C116.875 95.8979 116.874 95.8973 116.873 95.8968C116.873 95.8965 116.872 95.8961 116.872 95.896C116.871 95.8956 116.871 95.8953 115.382 98.5C113.894 101.105 113.893 101.104 113.893 101.104C113.893 101.104 113.892 101.104 113.892 101.104C113.891 101.103 113.891 101.103 113.891 101.103C113.89 101.102 113.89 101.102 113.89 101.102C113.89 101.102 113.892 101.104 113.895 101.106C113.902 101.109 113.915 101.117 113.933 101.128C113.97 101.15 114.03 101.186 114.108 101.234C114.265 101.33 114.494 101.475 114.766 101.658C115.321 102.033 116.003 102.534 116.605 103.086C117.247 103.675 117.601 104.143 117.73 104.418C117.812 104.592 117.627 104.225 117.886 103.836L122.878 107.164ZM115.382 98.5C118.066 99.8416 118.066 99.8405 118.067 99.8393C118.067 99.8389 118.067 99.8377 118.068 99.8369C118.069 99.8353 118.069 99.8337 118.07 99.8319C118.072 99.8285 118.074 99.8248 118.076 99.821C118.08 99.8133 118.084 99.8047 118.088 99.7954C118.097 99.7767 118.108 99.7548 118.119 99.7297C118.143 99.6797 118.171 99.6168 118.203 99.5423C118.266 99.394 118.344 99.1954 118.424 98.9565C118.579 98.4914 118.76 97.8096 118.813 97.0121C118.925 95.3343 118.43 92.9303 115.926 91.4275L112.839 96.5725C112.935 96.6303 112.879 96.618 112.836 96.5177C112.811 96.4591 112.836 96.4732 112.826 96.6129C112.817 96.7529 112.78 96.9148 112.731 97.0591C112.71 97.125 112.69 97.1724 112.681 97.1941C112.677 97.2045 112.675 97.2075 112.678 97.2022C112.679 97.1995 112.681 97.1945 112.685 97.1873C112.686 97.1837 112.689 97.1795 112.691 97.1747C112.692 97.1722 112.693 97.1697 112.695 97.167C112.695 97.1656 112.696 97.1642 112.697 97.1628C112.697 97.1621 112.698 97.161 112.698 97.1606C112.698 97.1595 112.699 97.1584 115.382 98.5ZM115.926 91.4275C113.297 89.85 110.765 90.7969 109.401 91.615C108.693 92.0399 108.13 92.5169 107.754 92.8719C107.561 93.0536 107.406 93.214 107.293 93.3358C107.237 93.397 107.19 93.4491 107.154 93.4903C107.136 93.5108 107.121 93.5287 107.108 93.5437C107.101 93.5511 107.096 93.5579 107.091 93.5638C107.088 93.5668 107.086 93.5696 107.084 93.5722C107.083 93.5735 107.081 93.5748 107.08 93.576C107.08 93.5766 107.079 93.5774 107.079 93.5778C107.078 93.5786 107.078 93.5794 109.382 95.5C111.687 97.4206 111.686 97.4214 111.686 97.4222C111.685 97.4224 111.685 97.4232 111.684 97.4237C111.683 97.4248 111.683 97.4258 111.682 97.4267C111.68 97.4286 111.679 97.4303 111.677 97.4318C111.675 97.4349 111.673 97.4374 111.671 97.4392C111.668 97.4429 111.667 97.4441 111.668 97.4431C111.67 97.441 111.679 97.4302 111.696 97.4122C111.73 97.3759 111.789 97.3136 111.87 97.2375C112.04 97.0768 112.259 96.8976 112.488 96.76C112.727 96.6169 112.867 96.5846 112.904 96.5802C112.912 96.5792 112.894 96.582 112.861 96.5755C112.826 96.5685 112.816 96.5589 112.839 96.5725L115.926 91.4275ZM110.899 92.9119L96.3994 84.4119L93.3651 89.5881L107.865 98.0881L110.899 92.9119ZM96.3994 89.5881L110.899 81.0881L107.865 75.9119L93.3651 84.4119L96.3994 89.5881ZM109.382 78.5C107.261 80.6213 107.262 80.622 107.262 80.6227C107.263 80.623 107.263 80.6237 107.264 80.6242C107.265 80.6252 107.266 80.6263 107.267 80.6274C107.269 80.6296 107.272 80.6321 107.274 80.6347C107.28 80.6399 107.286 80.6458 107.292 80.6525C107.306 80.6659 107.323 80.6821 107.343 80.701C107.382 80.7388 107.434 80.7873 107.497 80.8447C107.622 80.959 107.795 81.1105 108.009 81.2823C108.428 81.6195 109.042 82.0675 109.791 82.4639C111.158 83.1876 113.801 84.1472 116.426 82.5725L113.339 77.4275C113.336 77.4291 113.348 77.4227 113.364 77.4197C113.375 77.4177 113.357 77.4232 113.299 77.4168C113.163 77.4016 112.924 77.3336 112.598 77.1611C112.285 76.995 111.993 76.7867 111.771 76.6083C111.664 76.5223 111.584 76.4512 111.535 76.4073C111.511 76.3855 111.496 76.3711 111.49 76.3657C111.488 76.3629 111.487 76.3625 111.489 76.3646C111.49 76.3657 111.492 76.3673 111.495 76.3697C111.496 76.3708 111.497 76.3722 111.499 76.3737C111.499 76.3744 111.5 76.3752 111.501 76.376C111.501 76.3765 111.502 76.3771 111.502 76.3773C111.503 76.378 111.504 76.3787 109.382 78.5ZM116.426 82.5725C119.238 80.885 119.305 78.0106 119.024 76.4161C118.879 75.593 118.622 74.8842 118.419 74.4034C118.315 74.156 118.217 73.9513 118.141 73.8011C118.103 73.7256 118.07 73.6629 118.044 73.6144C118.031 73.5901 118.019 73.5693 118.01 73.5521C118.005 73.5435 118.001 73.5359 117.997 73.5291C117.995 73.5257 117.993 73.5226 117.992 73.5196C117.991 73.5182 117.99 73.5168 117.989 73.5154C117.989 73.5148 117.988 73.5138 117.988 73.5135C117.987 73.5125 117.987 73.5116 115.382 75C112.778 76.4884 112.777 76.4875 112.776 76.4866C112.776 76.4863 112.776 76.4854 112.775 76.4849C112.775 76.4838 112.774 76.4827 112.774 76.4816C112.772 76.4796 112.771 76.4777 112.77 76.476C112.769 76.4726 112.767 76.47 112.766 76.468C112.764 76.4642 112.763 76.4632 112.764 76.4649C112.766 76.4684 112.774 76.4824 112.785 76.5056C112.809 76.5527 112.848 76.633 112.892 76.7372C112.986 76.9595 113.073 77.2195 113.115 77.4589C113.16 77.714 113.125 77.7787 113.145 77.7125C113.159 77.6656 113.191 77.5942 113.246 77.5221C113.303 77.4488 113.348 77.4219 113.339 77.4275L116.426 82.5725ZM115.382 75C116.794 77.6471 116.795 77.6467 116.795 77.6464C116.796 77.6463 116.796 77.6459 116.797 77.6456C116.798 77.6451 116.799 77.6445 116.8 77.6438C116.803 77.6425 116.805 77.6409 116.809 77.6391C116.816 77.6354 116.824 77.6308 116.835 77.6252C116.855 77.6139 116.883 77.5988 116.917 77.5799C116.986 77.5421 117.08 77.4892 117.196 77.4223C117.428 77.2889 117.749 77.0983 118.124 76.8603C118.86 76.3926 119.86 75.7054 120.802 74.8771C121.691 74.0947 122.785 72.9661 123.4 71.5703C123.725 70.8353 123.962 69.9234 123.874 68.9044C123.783 67.8512 123.362 66.8893 122.687 66.0794L118.078 69.9206C118.028 69.8607 117.919 69.6801 117.896 69.4198C117.877 69.1938 117.938 69.0866 117.911 69.1485C117.824 69.3464 117.511 69.7803 116.838 70.3729C116.217 70.9196 115.498 71.4199 114.906 71.7959C114.617 71.9798 114.372 72.1252 114.203 72.2222C114.119 72.2706 114.055 72.3065 114.014 72.3288C113.994 72.3399 113.98 72.3476 113.973 72.3517C113.969 72.3537 113.967 72.3549 113.966 72.3551C113.966 72.3552 113.966 72.3551 113.967 72.3547C113.967 72.3545 113.968 72.3543 113.968 72.354C113.969 72.3539 113.969 72.3536 113.969 72.3535C113.97 72.3532 113.97 72.3529 115.382 75ZM122.687 66.0794C121.385 64.5171 119.653 63.9688 118.078 63.9688C116.614 63.9688 115.251 64.4283 114.226 64.8836C113.167 65.3542 112.242 65.9245 111.6 66.3584C111.274 66.5793 111.007 66.7743 110.816 66.9179C110.721 66.99 110.644 67.0497 110.588 67.0939C110.56 67.1161 110.537 67.1344 110.519 67.1486C110.51 67.1556 110.503 67.1617 110.497 67.1666C110.494 67.1691 110.491 67.1713 110.489 67.1732C110.487 67.1742 110.486 67.1751 110.485 67.1759C110.485 67.1763 110.484 67.1769 110.484 67.1771C110.483 67.1776 110.483 67.1781 112.382 69.5C114.282 71.8219 114.281 71.8224 114.281 71.8228C114.281 71.823 114.28 71.8234 114.28 71.8237C114.279 71.8243 114.278 71.8247 114.278 71.8252C114.277 71.826 114.276 71.8266 114.276 71.8269C114.275 71.8275 114.275 71.8271 114.277 71.8258C114.281 71.8231 114.289 71.8165 114.301 71.8065C114.327 71.7863 114.371 71.7522 114.431 71.7071C114.551 71.6163 114.733 71.4832 114.961 71.3291C115.428 71.013 116.035 70.6458 116.663 70.3664C117.326 70.0717 117.806 69.9688 118.078 69.9688C118.188 69.9688 118.2 69.9865 118.157 69.968C118.099 69.9439 118.069 69.9102 118.078 69.9206L122.687 66.0794ZM112.382 69.5C114.687 67.5794 114.686 67.5786 114.685 67.5777C114.685 67.5774 114.685 67.5766 114.684 67.576C114.683 67.5748 114.682 67.5735 114.681 67.5722C114.679 67.5696 114.676 67.5668 114.674 67.5638C114.669 67.5579 114.663 67.5511 114.657 67.5437C114.644 67.5287 114.629 67.5108 114.61 67.4903C114.574 67.4491 114.528 67.397 114.471 67.3358C114.358 67.214 114.203 67.0535 114.011 66.8719C113.634 66.5169 113.071 66.0399 112.363 65.615C111 64.7969 108.468 63.85 105.839 65.4275L108.926 70.5725C108.948 70.5589 108.938 70.5685 108.903 70.5755C108.871 70.582 108.852 70.5792 108.861 70.5802C108.897 70.5846 109.038 70.6169 109.276 70.76C109.506 70.8976 109.724 71.0768 109.895 71.2375C109.975 71.3136 110.035 71.3759 110.069 71.4122C110.085 71.4302 110.095 71.441 110.097 71.4431C110.098 71.4441 110.096 71.4429 110.093 71.4392C110.092 71.4374 110.09 71.4349 110.087 71.4318C110.086 71.4303 110.084 71.4286 110.083 71.4267C110.082 71.4258 110.081 71.4248 110.08 71.4237C110.08 71.4232 110.079 71.4224 110.079 71.4222C110.078 71.4214 110.078 71.4206 112.382 69.5ZM105.839 65.4275C103.222 66.9978 102.856 69.6358 102.95 71.2387C102.998 72.0575 103.163 72.7704 103.305 73.2623C103.378 73.5142 103.449 73.7237 103.506 73.8786C103.534 73.9564 103.559 74.0215 103.58 74.0722C103.59 74.0977 103.599 74.1196 103.606 74.1379C103.61 74.1471 103.614 74.1553 103.617 74.1626C103.618 74.1663 103.62 74.1697 103.621 74.1729C103.622 74.1745 103.622 74.176 103.623 74.1775C103.623 74.1782 103.624 74.1793 103.624 74.1797C103.624 74.1807 103.625 74.1818 106.382 73C109.14 71.8182 109.14 71.8193 109.141 71.8202C109.141 71.8206 109.141 71.8216 109.141 71.8222C109.142 71.8235 109.142 71.8247 109.143 71.8258C109.144 71.8282 109.145 71.8303 109.146 71.8323C109.147 71.8362 109.149 71.8394 109.15 71.8419C109.152 71.8469 109.153 71.849 109.152 71.8484C109.152 71.8472 109.147 71.8356 109.14 71.8147C109.124 71.7724 109.098 71.6967 109.069 71.5971C109.008 71.3858 108.954 71.13 108.94 70.8863C108.925 70.6337 108.96 70.5202 108.965 70.5073C108.965 70.5071 108.963 70.5134 108.956 70.5241C108.95 70.535 108.942 70.5474 108.932 70.5596C108.908 70.5884 108.896 70.5901 108.926 70.5725L105.839 65.4275ZM104.903 70.3899L89.9032 78.8899L92.8613 84.1101L107.861 75.6101L104.903 70.3899ZM94.3822 81.5V64.5H88.3822V81.5H94.3822ZM91.3822 64.5C91.3822 67.5 91.3835 67.5 91.3848 67.5C91.3853 67.5 91.3866 67.5 91.3876 67.5C91.3894 67.5 91.3913 67.5 91.3933 67.5C91.3973 67.5 91.4015 67.4999 91.406 67.4999C91.4149 67.4999 91.425 67.4998 91.436 67.4996C91.4582 67.4993 91.4844 67.4988 91.5146 67.4979C91.5749 67.4961 91.6512 67.493 91.7412 67.4873C91.9205 67.4761 92.1597 67.4548 92.4402 67.4139C92.9858 67.3343 93.7648 67.1697 94.5847 66.811C95.4061 66.4516 96.3755 65.8496 97.1435 64.8416C97.9416 63.794 98.3822 62.4894 98.3822 61H92.3822C92.3822 61.2606 92.3228 61.2685 92.3709 61.2053C92.389 61.1816 92.3584 61.2359 92.1798 61.314C91.9997 61.3928 91.7787 61.4469 91.5743 61.4767C91.4798 61.4905 91.4065 61.4965 91.367 61.499C91.3477 61.5002 91.338 61.5005 91.3397 61.5004C91.3406 61.5004 91.3444 61.5003 91.3514 61.5002C91.3549 61.5001 91.3592 61.5001 91.3643 61.5001C91.3669 61.5 91.3696 61.5 91.3726 61.5C91.3741 61.5 91.3757 61.5 91.3773 61.5C91.3781 61.5 91.3793 61.5 91.3797 61.5C91.381 61.5 91.3822 61.5 91.3822 64.5ZM98.3822 61C98.3822 59.5106 97.9416 58.206 97.1435 57.1584C96.3755 56.1504 95.4061 55.5484 94.5847 55.189C93.7648 54.8303 92.9858 54.6657 92.4402 54.5861C92.1597 54.5452 91.9205 54.5239 91.7412 54.5127C91.6512 54.507 91.5749 54.5039 91.5146 54.5021C91.4844 54.5012 91.4582 54.5007 91.436 54.5004C91.425 54.5002 91.4149 54.5001 91.406 54.5001C91.4015 54.5001 91.3973 54.5 91.3933 54.5C91.3913 54.5 91.3894 54.5 91.3876 54.5C91.3866 54.5 91.3853 54.5 91.3848 54.5C91.3835 54.5 91.3822 54.5 91.3822 57.5C91.3822 60.5 91.381 60.5 91.3797 60.5C91.3793 60.5 91.3781 60.5 91.3773 60.5C91.3757 60.5 91.3741 60.5 91.3726 60.5C91.3696 60.5 91.3669 60.5 91.3643 60.4999C91.3592 60.4999 91.3549 60.4999 91.3514 60.4998C91.3444 60.4997 91.3406 60.4996 91.3397 60.4996C91.338 60.4995 91.3477 60.4998 91.367 60.501C91.4065 60.5035 91.4798 60.5095 91.5743 60.5233C91.7787 60.5531 91.9997 60.6072 92.1798 60.686C92.3584 60.7641 92.389 60.8184 92.3709 60.7947C92.3228 60.7315 92.3822 60.7394 92.3822 61H98.3822ZM91.3822 57.5C94.3559 57.8965 94.356 57.8957 94.3561 57.8949C94.3562 57.8946 94.3563 57.8937 94.3564 57.8931C94.3565 57.8918 94.3567 57.8905 94.3569 57.889C94.3573 57.886 94.3577 57.8826 94.3583 57.8787C94.3593 57.8709 94.3605 57.8612 94.3619 57.8498C94.3648 57.8269 94.3684 57.7969 94.3727 57.7601C94.3811 57.6867 94.3921 57.5861 94.4039 57.4622C94.4274 57.215 94.4548 56.871 94.473 56.4613C94.5087 55.658 94.5127 54.529 94.3559 53.3535C94.2063 52.2314 93.8737 50.7664 93.0346 49.5078C92.0921 48.094 90.5256 47 88.3822 47V53C88.392 53 88.291 52.9962 88.1604 52.9208C88.0435 52.8534 88.0131 52.7921 88.0423 52.836C88.1407 52.9836 88.3082 53.3936 88.4086 54.1465C88.5018 54.846 88.5057 55.592 88.4789 56.1949C88.4659 56.4884 88.4464 56.7303 88.4309 56.8933C88.4232 56.9745 88.4165 57.035 88.4123 57.0714C88.4102 57.0896 88.4087 57.1017 88.4081 57.1072C88.4077 57.1099 88.4076 57.111 88.4076 57.1105C88.4077 57.1102 88.4078 57.1094 88.4079 57.1083C88.408 57.1077 88.4081 57.107 88.4082 57.1062C88.4082 57.1058 88.4083 57.1052 88.4084 57.105C88.4085 57.1042 88.4086 57.1035 91.3822 57.5Z" fill="black" mask="url(#path-2-outside-1_30_356)"/>
</svg>
