<svg width="180" height="162" viewBox="0 0 180 162" fill="none" xmlns="http://www.w3.org/2000/svg">
<circle cx="51.7095" cy="52" r="50.9832" stroke="#4B491A" stroke-width="1.45251"/>
<circle cx="52" cy="51.7095" r="45.0279" stroke="#A59E11" stroke-width="2.32402"/>
<circle cx="51.7095" cy="52" r="39.5084" fill="#FFEC65"/>
<path d="M45.3718 65.2772C59.8718 64.4886 65.3717 69.2772 65.3717 69.2772C65.3717 69.2772 77.3717 31.4105 120.872 35.2772C164.372 39.1439 165.372 87.7772 165.372 87.7772C165.372 87.7772 179.872 94.7772 179.872 112.777C179.872 130.777 163.372 137.777 156.372 137.777H41.8717C41.8717 137.777 15.8717 133.777 12.3717 107.277C8.87174 80.7772 30.8718 66.0657 45.3718 65.2772Z" fill="white"/>
<mask id="path-5-outside-1_30_361" maskUnits="userSpaceOnUse" x="64" y="82" width="71" height="80" fill="black">
<rect fill="white" x="64" y="82" width="71" height="80"/>
<path d="M96.3822 92.5C96.3822 92.5 95.3822 85 99.3822 85C103.382 85 102.382 92.5 102.382 92.5C102.382 92.5 106.382 92.5 106.382 96C106.382 99.5 102.382 99.5 102.382 99.5V116.5L117.382 108C117.382 108 115.882 104.5 118.382 103C120.882 101.5 123.382 104.5 123.382 104.5C123.382 104.5 128.882 100 131.382 103C133.882 106 126.382 110 126.382 110C126.382 110 128.382 113.5 125.882 115C123.382 116.5 120.382 113.5 120.382 113.5L105.882 122L120.382 130.5C120.382 130.5 122.882 127.5 125.382 129C127.882 130.5 126.382 133.5 126.382 133.5C126.382 133.5 133.382 137.5 131.382 140.5C129.382 143.5 123.382 139.5 123.382 139.5C123.382 139.5 120.882 142.25 118.382 141C115.882 139.75 116.882 136 116.882 136L102.382 128V144.5C102.382 144.5 106.382 145 106.382 148C106.382 151 102.382 151.5 102.382 151.5C102.382 151.5 103.382 159 99.3822 159C95.3822 159 95.8822 151.5 95.8822 151.5C95.8822 151.5 92.3822 151 92.3822 148C92.3822 145 95.8822 144.5 95.8822 144.5V128L81.3822 136C81.3822 136 82.8822 139 80.3822 140.5C77.8822 142 75.3822 139.5 75.3822 139.5C75.3822 139.5 69.3822 143.5 67.3822 140.5C65.3822 137.5 71.8822 134 71.8822 134C71.8822 134 70.8822 130 73.3822 128.5C75.8822 127 78.8822 130 78.8822 130L92.3822 122L77.8822 113.5C77.8822 113.5 76.3822 116.5 73.3822 115C70.3822 113.5 72.3822 110 72.3822 110C72.3822 110 65.3822 107 67.3822 103.5C69.3822 100 75.3822 104.5 75.3822 104.5C75.3822 104.5 77.3822 102 79.8822 103C82.3822 104 81.3822 107.5 81.3822 107.5L96.3822 116.5V99.5C96.3822 99.5 92.3822 99 92.3822 96C92.3822 93 96.3822 92.5 96.3822 92.5Z"/>
</mask>
<path d="M96.3822 92.5C96.3822 92.5 95.3822 85 99.3822 85C103.382 85 102.382 92.5 102.382 92.5C102.382 92.5 106.382 92.5 106.382 96C106.382 99.5 102.382 99.5 102.382 99.5V116.5L117.382 108C117.382 108 115.882 104.5 118.382 103C120.882 101.5 123.382 104.5 123.382 104.5C123.382 104.5 128.882 100 131.382 103C133.882 106 126.382 110 126.382 110C126.382 110 128.382 113.5 125.882 115C123.382 116.5 120.382 113.5 120.382 113.5L105.882 122L120.382 130.5C120.382 130.5 122.882 127.5 125.382 129C127.882 130.5 126.382 133.5 126.382 133.5C126.382 133.5 133.382 137.5 131.382 140.5C129.382 143.5 123.382 139.5 123.382 139.5C123.382 139.5 120.882 142.25 118.382 141C115.882 139.75 116.882 136 116.882 136L102.382 128V144.5C102.382 144.5 106.382 145 106.382 148C106.382 151 102.382 151.5 102.382 151.5C102.382 151.5 103.382 159 99.3822 159C95.3822 159 95.8822 151.5 95.8822 151.5C95.8822 151.5 92.3822 151 92.3822 148C92.3822 145 95.8822 144.5 95.8822 144.5V128L81.3822 136C81.3822 136 82.8822 139 80.3822 140.5C77.8822 142 75.3822 139.5 75.3822 139.5C75.3822 139.5 69.3822 143.5 67.3822 140.5C65.3822 137.5 71.8822 134 71.8822 134C71.8822 134 70.8822 130 73.3822 128.5C75.8822 127 78.8822 130 78.8822 130L92.3822 122L77.8822 113.5C77.8822 113.5 76.3822 116.5 73.3822 115C70.3822 113.5 72.3822 110 72.3822 110C72.3822 110 65.3822 107 67.3822 103.5C69.3822 100 75.3822 104.5 75.3822 104.5C75.3822 104.5 77.3822 102 79.8822 103C82.3822 104 81.3822 107.5 81.3822 107.5L96.3822 116.5V99.5C96.3822 99.5 92.3822 99 92.3822 96C92.3822 93 96.3822 92.5 96.3822 92.5Z" fill="white"/>
<path d="M96.3822 92.5L96.7543 95.4768L99.7557 95.1017L99.3559 92.1035L96.3822 92.5ZM96.3822 99.5H99.3822V96.8517L96.7543 96.5232L96.3822 99.5ZM96.3822 116.5L94.8387 119.072L99.3822 121.799V116.5H96.3822ZM81.3822 107.5L78.4977 106.676L77.8655 108.889L79.8387 110.072L81.3822 107.5ZM75.3822 104.5L73.5822 106.9L75.9084 108.645L77.7248 106.374L75.3822 104.5ZM72.3822 110L74.987 111.488L76.6559 108.568L73.564 107.243L72.3822 110ZM77.8822 113.5L79.3994 110.912L76.633 109.29L75.199 112.158L77.8822 113.5ZM92.3822 122L93.9116 124.581L98.2905 121.986L93.8994 119.412L92.3822 122ZM78.8822 130L76.7609 132.121L78.4079 133.768L80.4116 132.581L78.8822 130ZM71.8822 134L73.3045 136.641L75.3584 135.535L74.7927 133.272L71.8822 134ZM67.3822 140.5L64.8861 142.164H64.8861L67.3822 140.5ZM75.3822 139.5L77.5036 137.379L75.7645 135.64L73.7181 137.004L75.3822 139.5ZM81.3822 136L79.933 133.373L77.4106 134.765L78.699 137.342L81.3822 136ZM95.8822 128H98.8822V122.919L94.433 125.373L95.8822 128ZM95.8822 144.5L96.3065 147.47L98.8822 147.102V144.5H95.8822ZM95.8822 151.5L98.8756 151.7L99.0607 148.924L96.3065 148.53L95.8822 151.5ZM102.382 151.5L102.01 148.523L99.0088 148.898L99.4086 151.896L102.382 151.5ZM102.382 144.5H99.3822V147.148L102.01 147.477L102.382 144.5ZM102.382 128L103.831 125.373L99.3822 122.919V128H102.382ZM116.882 136L119.781 136.773L120.385 134.506L118.331 133.373L116.882 136ZM123.382 139.5L125.046 137.004L122.899 135.572L121.162 137.482L123.382 139.5ZM126.382 133.5L123.699 132.158L122.43 134.697L124.894 136.105L126.382 133.5ZM120.382 130.5L118.865 133.088L121.059 134.374L122.687 132.421L120.382 130.5ZM105.882 122L104.365 119.412L99.9501 122L104.365 124.588L105.882 122ZM120.382 113.5L122.504 111.379L120.865 109.74L118.865 110.912L120.382 113.5ZM126.382 110L124.97 107.353L122.245 108.807L123.778 111.488L126.382 110ZM123.382 104.5L121.078 106.421L122.981 108.705L125.282 106.822L123.382 104.5ZM117.382 108L118.861 110.61L121.197 109.286L120.14 106.818L117.382 108ZM102.382 116.5H99.3822V121.648L103.861 119.11L102.382 116.5ZM102.382 99.5V96.5H99.3822V99.5H102.382ZM102.382 92.5L99.4086 92.1035L98.9557 95.5H102.382V92.5ZM99.3822 82C97.2389 82 95.6724 83.094 94.7298 84.5078C93.8907 85.7664 93.5582 87.2314 93.4086 88.3535C93.2518 89.529 93.2557 90.658 93.2914 91.4613C93.3097 91.871 93.3371 92.215 93.3606 92.4622C93.3724 92.5861 93.3833 92.6867 93.3918 92.7601C93.3961 92.7969 93.3997 92.8269 93.4026 92.8498C93.404 92.8612 93.4052 92.8709 93.4062 92.8787C93.4067 92.8826 93.4072 92.886 93.4076 92.889C93.4078 92.8905 93.4079 92.8918 93.4081 92.8931C93.4082 92.8937 93.4083 92.8946 93.4083 92.8949C93.4084 92.8957 93.4085 92.8965 96.3822 92.5C99.3559 92.1035 99.356 92.1042 99.3561 92.105C99.3561 92.1051 99.3562 92.1058 99.3563 92.1062C99.3564 92.107 99.3565 92.1077 99.3565 92.1083C99.3567 92.1094 99.3568 92.1102 99.3568 92.1105C99.3569 92.111 99.3568 92.1099 99.3564 92.1072C99.3557 92.1016 99.3542 92.0896 99.3521 92.0714C99.3479 92.035 99.3413 91.9744 99.3336 91.8933C99.318 91.7303 99.2986 91.4884 99.2855 91.1949C99.2587 90.592 99.2627 89.846 99.3559 89.1465C99.4563 88.3936 99.6237 87.9836 99.7221 87.836C99.7514 87.7921 99.721 87.8534 99.6041 87.9208C99.4734 87.9962 99.3725 88 99.3822 88V82ZM96.3822 92.5C96.0101 89.5232 96.009 89.5233 96.0079 89.5234C96.0075 89.5235 96.0064 89.5236 96.0056 89.5237C96.0041 89.5239 96.0024 89.5241 96.0007 89.5244C95.9974 89.5248 95.9937 89.5253 95.9898 89.5258C95.982 89.5268 95.9731 89.528 95.9633 89.5293C95.9436 89.532 95.9198 89.5354 95.8923 89.5395C95.8373 89.5478 95.7668 89.5591 95.683 89.5741C95.5161 89.6039 95.2923 89.6489 95.0296 89.7146C94.5167 89.8428 93.7948 90.0646 93.0406 90.4417C91.5825 91.1708 89.3822 92.8511 89.3822 96L95.3822 96C95.3822 95.9657 95.3866 95.9774 95.3735 96.0135C95.3612 96.0473 95.3473 96.0648 95.3498 96.0616C95.3684 96.0384 95.468 95.9362 95.7239 95.8083C95.9697 95.6854 96.2478 95.5947 96.4848 95.5354C96.5972 95.5073 96.6859 95.4899 96.7377 95.4806C96.7633 95.4761 96.7787 95.4737 96.7823 95.4732C96.7841 95.4729 96.7828 95.4731 96.7782 95.4737C96.776 95.474 96.7728 95.4745 96.7689 95.475C96.7669 95.4752 96.7647 95.4755 96.7623 95.4758C96.761 95.476 96.7598 95.4761 96.7585 95.4763C96.7578 95.4764 96.7568 95.4765 96.7564 95.4766C96.7554 95.4767 96.7543 95.4768 96.3822 92.5ZM89.3822 96C89.3822 99.1489 91.5825 100.829 93.0406 101.558C93.7948 101.935 94.5167 102.157 95.0296 102.285C95.2923 102.351 95.5161 102.396 95.683 102.426C95.7668 102.441 95.8373 102.452 95.8923 102.46C95.9198 102.465 95.9436 102.468 95.9633 102.471C95.9731 102.472 95.982 102.473 95.9898 102.474C95.9937 102.475 95.9974 102.475 96.0007 102.476C96.0024 102.476 96.0041 102.476 96.0056 102.476C96.0064 102.476 96.0075 102.477 96.0079 102.477C96.009 102.477 96.0101 102.477 96.3822 99.5C96.7543 96.5232 96.7554 96.5233 96.7564 96.5234C96.7568 96.5235 96.7578 96.5236 96.7585 96.5237C96.7598 96.5239 96.761 96.524 96.7623 96.5242C96.7647 96.5245 96.7669 96.5248 96.7689 96.525C96.7728 96.5255 96.7759 96.526 96.7782 96.5263C96.7828 96.5269 96.7841 96.5271 96.7823 96.5268C96.7787 96.5263 96.7633 96.5239 96.7377 96.5194C96.6859 96.5101 96.5972 96.4927 96.4848 96.4646C96.2478 96.4053 95.9697 96.3146 95.7239 96.1917C95.468 96.0638 95.3684 95.9616 95.3498 95.9384C95.3473 95.9352 95.3612 95.9527 95.3735 95.9865C95.3866 96.0226 95.3822 96.0343 95.3822 96L89.3822 96ZM93.3822 99.5V116.5H99.3822V99.5H93.3822ZM97.9257 113.928L82.9257 104.928L79.8387 110.072L94.8387 119.072L97.9257 113.928ZM81.3822 107.5C84.2668 108.324 84.2671 108.323 84.2674 108.322C84.2675 108.322 84.2678 108.321 84.268 108.32C84.2685 108.318 84.2689 108.317 84.2694 108.315C84.2703 108.312 84.2712 108.308 84.2723 108.305C84.2743 108.297 84.2766 108.289 84.2792 108.28C84.2842 108.261 84.2901 108.239 84.2967 108.214C84.3099 108.163 84.3261 108.098 84.344 108.02C84.3795 107.866 84.4226 107.657 84.4622 107.409C84.5392 106.925 84.613 106.224 84.5639 105.438C84.469 103.92 83.8107 101.34 80.9964 100.215L78.7681 105.785C78.7681 105.785 78.7644 105.784 78.7578 105.781C78.7511 105.777 78.7419 105.772 78.7308 105.765C78.7078 105.751 78.6811 105.732 78.6536 105.707C78.5956 105.654 78.5599 105.602 78.5426 105.571C78.5192 105.528 78.5615 105.587 78.5756 105.812C78.5889 106.026 78.5691 106.263 78.5367 106.466C78.5215 106.561 78.506 106.634 78.4967 106.675C78.492 106.695 78.4892 106.706 78.489 106.707C78.4889 106.707 78.4895 106.705 78.4909 106.7C78.4916 106.697 78.4925 106.694 78.4936 106.69C78.4942 106.688 78.4948 106.686 78.4955 106.684C78.4958 106.682 78.4962 106.681 78.4965 106.68C78.4967 106.679 78.497 106.678 78.4971 106.678C78.4974 106.677 78.4977 106.676 81.3822 107.5ZM80.9964 100.215C78.5362 99.2305 76.3852 100.043 75.1224 100.82C74.4841 101.213 73.9859 101.642 73.65 101.967C73.4789 102.132 73.3412 102.278 73.2399 102.391C73.189 102.448 73.1468 102.497 73.1134 102.536C73.0967 102.556 73.0822 102.574 73.0699 102.589C73.0637 102.596 73.0581 102.603 73.0531 102.609C73.0506 102.612 73.0482 102.615 73.0459 102.618C73.0448 102.619 73.0437 102.621 73.0427 102.622C73.0422 102.623 73.0414 102.624 73.0411 102.624C73.0404 102.625 73.0396 102.626 75.3822 104.5C77.7248 106.374 77.7241 106.375 77.7234 106.376C77.7232 106.376 77.7224 106.377 77.722 106.378C77.721 106.379 77.7201 106.38 77.7193 106.381C77.7175 106.383 77.7159 106.385 77.7143 106.387C77.7112 106.391 77.7085 106.394 77.7062 106.397C77.7017 106.403 77.6987 106.406 77.6972 106.408C77.6944 106.411 77.6975 106.408 77.7062 106.398C77.724 106.378 77.7622 106.337 77.8176 106.283C77.9348 106.17 78.0929 106.037 78.267 105.93C78.6293 105.707 78.7282 105.769 78.7681 105.785L80.9964 100.215ZM75.3822 104.5C77.1822 102.1 77.1816 102.1 77.1809 102.099C77.1807 102.099 77.18 102.098 77.1794 102.098C77.1784 102.097 77.1773 102.096 77.1761 102.095C77.1737 102.094 77.1709 102.092 77.1677 102.089C77.1613 102.084 77.1535 102.079 77.1442 102.072C77.1257 102.058 77.1012 102.04 77.0713 102.019C77.0115 101.975 76.9294 101.917 76.8274 101.846C76.6241 101.706 76.3386 101.515 75.9914 101.3C75.3107 100.879 74.3306 100.328 73.2292 99.8952C72.176 99.4815 70.7364 99.0643 69.2268 99.1901C67.5367 99.3309 65.8326 100.165 64.7775 102.012L69.987 104.988C69.9978 104.969 69.954 105.045 69.8364 105.115C69.7311 105.178 69.671 105.174 69.7251 105.169C69.9031 105.154 70.3384 105.206 71.0353 105.48C71.6838 105.735 72.3287 106.09 72.8356 106.403C73.0822 106.556 73.281 106.689 73.4136 106.781C73.4796 106.826 73.5283 106.861 73.5574 106.882C73.5719 106.892 73.5814 106.899 73.5857 106.903C73.5878 106.904 73.5886 106.905 73.5881 106.904C73.5878 106.904 73.5872 106.904 73.5862 106.903C73.5857 106.903 73.5851 106.902 73.5845 106.902C73.5841 106.901 73.5836 106.901 73.5834 106.901C73.5828 106.9 73.5822 106.9 75.3822 104.5ZM64.7775 102.012C63.7128 103.875 63.8822 105.779 64.6203 107.301C65.282 108.666 66.3733 109.705 67.2701 110.415C68.2075 111.157 69.1857 111.735 69.8994 112.119C70.2632 112.315 70.5747 112.468 70.8005 112.575C70.9137 112.629 71.0063 112.671 71.0741 112.702C71.108 112.717 71.1359 112.729 71.1571 112.739C71.1677 112.743 71.1767 112.747 71.1839 112.75C71.1875 112.752 71.1907 112.753 71.1935 112.754C71.1949 112.755 71.1961 112.756 71.1973 112.756C71.1979 112.756 71.1987 112.757 71.199 112.757C71.1997 112.757 71.2005 112.757 72.3822 110C73.564 107.243 73.5647 107.243 73.5653 107.243C73.5655 107.243 73.5661 107.243 73.5665 107.244C73.5673 107.244 73.5679 107.244 73.5684 107.244C73.5695 107.245 73.5702 107.245 73.5704 107.245C73.571 107.246 73.5699 107.245 73.5673 107.244C73.5622 107.242 73.5509 107.237 73.5341 107.229C73.5004 107.214 73.4445 107.189 73.3702 107.153C73.221 107.083 73.0013 106.974 72.7401 106.834C72.2037 106.546 71.557 106.156 70.9943 105.71C70.3911 105.233 70.1075 104.866 70.0192 104.683C69.9899 104.623 70.0229 104.665 70.0229 104.784C70.0229 104.919 69.9806 105 69.987 104.988L64.7775 102.012ZM72.3822 110C69.7775 108.512 69.7769 108.513 69.7763 108.514C69.7761 108.514 69.7754 108.515 69.775 108.516C69.7741 108.518 69.7732 108.519 69.7723 108.521C69.7704 108.524 69.7684 108.528 69.7663 108.531C69.7621 108.539 69.7573 108.547 69.7521 108.557C69.7417 108.576 69.7294 108.598 69.7155 108.624C69.6877 108.676 69.653 108.743 69.6136 108.822C69.5351 108.981 69.4352 109.196 69.3312 109.456C69.1297 109.96 68.8809 110.71 68.7778 111.587C68.675 112.46 68.6999 113.611 69.2091 114.782C69.7448 116.014 70.7083 117.017 72.0406 117.683L74.7239 112.317C74.5562 112.233 74.6447 112.236 74.7116 112.39C74.7521 112.483 74.7144 112.477 74.7367 112.288C74.7585 112.102 74.8223 111.884 74.902 111.684C74.9387 111.593 74.9715 111.523 74.9907 111.484C75.0001 111.465 75.0055 111.455 75.0055 111.455C75.0055 111.455 75.004 111.458 75.001 111.463C74.9995 111.466 74.9976 111.47 74.9953 111.474C74.9941 111.476 74.9928 111.478 74.9915 111.481C74.9908 111.482 74.99 111.483 74.9893 111.484C74.9889 111.485 74.9883 111.486 74.9881 111.486C74.9876 111.487 74.987 111.488 72.3822 110ZM72.0406 117.683C73.2601 118.293 74.5095 118.527 75.7231 118.375C76.9143 118.226 77.8639 117.732 78.5572 117.213C79.24 116.7 79.7225 116.129 80.0272 115.71C80.1838 115.495 80.3052 115.303 80.3928 115.155C80.4369 115.081 80.4732 115.016 80.5018 114.964C80.5161 114.937 80.5285 114.914 80.5391 114.893C80.5444 114.883 80.5493 114.874 80.5537 114.865C80.5559 114.861 80.558 114.857 80.5599 114.853C80.5609 114.851 80.5619 114.849 80.5628 114.847C80.5633 114.846 80.564 114.845 80.5642 114.844C80.5649 114.843 80.5655 114.842 77.8822 113.5C75.199 112.158 75.1996 112.157 75.2002 112.156C75.2005 112.155 75.2011 112.154 75.2015 112.153C75.2024 112.152 75.2032 112.15 75.204 112.148C75.2056 112.145 75.2071 112.142 75.2086 112.139C75.2115 112.134 75.2142 112.128 75.2165 112.124C75.2213 112.115 75.225 112.108 75.2276 112.103C75.2327 112.094 75.2338 112.092 75.231 112.097C75.2249 112.107 75.2057 112.138 75.1748 112.181C75.1044 112.278 75.0244 112.362 74.9572 112.413C74.9006 112.455 74.9127 112.43 74.9789 112.422C75.0675 112.411 75.0043 112.457 74.7239 112.317L72.0406 117.683ZM76.3651 116.088L90.8651 124.588L93.8994 119.412L79.3994 110.912L76.3651 116.088ZM90.8528 119.419L77.3528 127.419L80.4116 132.581L93.9116 124.581L90.8528 119.419ZM78.8822 130C81.0036 127.879 81.0028 127.878 81.0021 127.877C81.0019 127.877 81.0012 127.876 81.0006 127.876C80.9996 127.875 80.9986 127.874 80.9974 127.873C80.9952 127.87 80.9928 127.868 80.9901 127.865C80.9849 127.86 80.9788 127.854 80.972 127.847C80.9584 127.834 80.9416 127.818 80.9219 127.799C80.8824 127.761 80.8307 127.713 80.7677 127.655C80.6421 127.541 80.469 127.39 80.2554 127.218C79.8366 126.88 79.2221 126.433 78.4734 126.036C77.1063 125.312 74.4632 124.353 71.8387 125.928L74.9257 131.072C74.9284 131.071 74.916 131.077 74.9005 131.08C74.8899 131.082 74.9074 131.077 74.965 131.083C75.1016 131.098 75.3402 131.166 75.6661 131.339C75.9798 131.505 76.2717 131.713 76.4934 131.892C76.6002 131.978 76.6809 132.049 76.7292 132.093C76.7531 132.114 76.7683 132.129 76.774 132.134C76.7768 132.137 76.7772 132.137 76.7751 132.135C76.774 132.134 76.7723 132.133 76.77 132.13C76.7688 132.129 76.7674 132.128 76.7659 132.126C76.7652 132.126 76.7644 132.125 76.7636 132.124C76.7631 132.124 76.7625 132.123 76.7623 132.123C76.7616 132.122 76.7609 132.121 78.8822 130ZM71.8387 125.928C69.3 127.451 68.7801 130.112 68.6989 131.655C68.6549 132.49 68.7208 133.234 68.7929 133.759C68.8296 134.027 68.8696 134.249 68.9024 134.414C68.9189 134.496 68.9337 134.564 68.9456 134.617C68.9516 134.643 68.9569 134.666 68.9613 134.684C68.9635 134.694 68.9655 134.702 68.9672 134.709C68.9681 134.713 68.9689 134.716 68.9697 134.719C68.9701 134.721 68.9704 134.722 68.9708 134.724C68.971 134.724 68.9712 134.725 68.9713 134.726C68.9716 134.727 68.9718 134.728 71.8822 134C74.7927 133.272 74.7929 133.273 74.7931 133.274C74.7932 133.275 74.7934 133.275 74.7936 133.276C74.7939 133.277 74.7941 133.278 74.7944 133.279C74.7949 133.282 74.7954 133.283 74.7958 133.285C74.7966 133.288 74.7972 133.291 74.7976 133.293C74.7984 133.296 74.7983 133.296 74.7976 133.292C74.7961 133.286 74.7919 133.267 74.7859 133.237C74.7738 133.176 74.7552 133.075 74.7372 132.944C74.6999 132.672 74.672 132.322 74.6906 131.97C74.7097 131.607 74.7726 131.352 74.8391 131.2C74.8909 131.083 74.9196 131.076 74.9257 131.072L71.8387 125.928ZM71.8822 134C70.4599 131.359 70.4593 131.359 70.4586 131.359C70.4583 131.359 70.4576 131.36 70.4571 131.36C70.4561 131.361 70.4549 131.361 70.4537 131.362C70.4512 131.363 70.4483 131.365 70.445 131.367C70.4385 131.37 70.4303 131.375 70.4207 131.38C70.4013 131.391 70.3759 131.405 70.3447 131.422C70.2825 131.457 70.1975 131.505 70.0934 131.566C69.8858 131.687 69.5993 131.86 69.2653 132.077C68.6093 132.502 67.7144 133.132 66.8642 133.905C66.0538 134.642 65.0695 135.699 64.4931 137.016C63.8551 138.475 63.6939 140.376 64.8861 142.164L69.8784 138.836C70.0706 139.124 69.9718 139.463 69.9901 139.421C70.07 139.239 70.3357 138.858 70.9002 138.345C71.4251 137.868 72.0301 137.435 72.5304 137.111C72.7745 136.952 72.9802 136.828 73.1203 136.747C73.19 136.706 73.2427 136.676 73.2747 136.658C73.2907 136.649 73.3015 136.643 73.3066 136.64C73.3092 136.639 73.3103 136.638 73.31 136.638C73.3098 136.639 73.3093 136.639 73.3084 136.639C73.3079 136.64 73.3074 136.64 73.3067 136.64C73.3064 136.64 73.3059 136.641 73.3057 136.641C73.3051 136.641 73.3045 136.641 71.8822 134ZM64.8861 142.164C66.0398 143.895 67.7844 144.52 69.3096 144.605C70.7293 144.684 72.1029 144.321 73.1412 143.95C74.2207 143.565 75.1873 143.078 75.8645 142.704C76.209 142.514 76.4924 142.344 76.6945 142.22C76.7957 142.158 76.8773 142.106 76.9366 142.068C76.9663 142.049 76.9905 142.033 77.0089 142.021C77.0181 142.015 77.0258 142.01 77.0321 142.006C77.0352 142.004 77.0379 142.002 77.0403 142C77.0415 141.999 77.0426 141.999 77.0436 141.998C77.0441 141.998 77.0448 141.997 77.045 141.997C77.0457 141.997 77.0463 141.996 75.3822 139.5C73.7181 137.004 73.7187 137.003 73.7193 137.003C73.7194 137.003 73.72 137.003 73.7203 137.002C73.7209 137.002 73.7215 137.002 73.722 137.001C73.7229 137.001 73.7235 137 73.7237 137C73.7242 137 73.7233 137 73.721 137.002C73.7166 137.005 73.7068 137.011 73.6921 137.021C73.6626 137.04 73.6133 137.071 73.5466 137.112C73.4127 137.195 73.2117 137.315 72.9624 137.452C72.4521 137.734 71.7938 138.06 71.1232 138.3C70.4116 138.554 69.9102 138.629 69.6424 138.614C69.48 138.605 69.7246 138.605 69.8784 138.836L64.8861 142.164ZM75.3822 139.5C73.2609 141.621 73.2618 141.622 73.2626 141.623C73.2629 141.623 73.2638 141.624 73.2644 141.625C73.2655 141.626 73.2668 141.627 73.2681 141.628C73.2706 141.631 73.2733 141.634 73.2762 141.637C73.282 141.642 73.2885 141.649 73.2956 141.656C73.3099 141.669 73.3269 141.686 73.3465 141.704C73.3857 141.742 73.4357 141.788 73.4959 141.842C73.6157 141.949 73.7786 142.088 73.9795 142.243C74.3734 142.546 74.9536 142.944 75.6761 143.281C77.1078 143.949 79.4953 144.531 81.9257 143.072L78.8387 137.928C78.7692 137.969 78.6566 138.051 78.2134 137.844C77.9984 137.744 77.7973 137.61 77.6443 137.492C77.5718 137.436 77.5198 137.391 77.4932 137.367C77.4801 137.356 77.4739 137.35 77.4753 137.351C77.476 137.352 77.4787 137.354 77.4833 137.359C77.4857 137.361 77.4885 137.364 77.4919 137.367C77.4936 137.369 77.4954 137.371 77.4973 137.372C77.4983 137.373 77.4993 137.374 77.5003 137.375C77.5009 137.376 77.5017 137.377 77.5019 137.377C77.5027 137.378 77.5036 137.379 75.3822 139.5ZM81.9257 143.072C84.4304 141.57 84.9249 139.166 84.8131 137.488C84.7599 136.69 84.5786 136.009 84.4236 135.544C84.344 135.305 84.2656 135.106 84.2025 134.958C84.1708 134.883 84.1425 134.82 84.1193 134.77C84.1077 134.745 84.0972 134.723 84.0882 134.705C84.0837 134.695 84.0795 134.687 84.0758 134.679C84.0739 134.675 84.0721 134.672 84.0703 134.668C84.0695 134.666 84.0687 134.665 84.0679 134.663C84.0675 134.662 84.0669 134.661 84.0667 134.661C84.0661 134.66 84.0655 134.658 81.3822 136C78.699 137.342 78.6984 137.341 78.6978 137.339C78.6977 137.339 78.6971 137.338 78.6967 137.337C78.696 137.336 78.6953 137.334 78.6947 137.333C78.6933 137.33 78.6921 137.328 78.6909 137.325C78.6885 137.321 78.6865 137.316 78.6847 137.313C78.6812 137.305 78.6789 137.301 78.6776 137.298C78.6751 137.292 78.6767 137.295 78.6811 137.306C78.6903 137.328 78.7096 137.375 78.7315 137.441C78.7796 137.585 78.817 137.747 78.8264 137.887C78.8357 138.027 78.8106 138.041 78.8357 137.982C78.8787 137.882 78.9351 137.87 78.8387 137.928L81.9257 143.072ZM82.8315 138.627L97.3315 130.627L94.433 125.373L79.933 133.373L82.8315 138.627ZM92.8822 128V144.5H98.8822V128H92.8822ZM95.8822 144.5C95.458 141.53 95.4567 141.53 95.4555 141.531C95.4551 141.531 95.4538 141.531 95.4529 141.531C95.4512 141.531 95.4494 141.531 95.4475 141.532C95.4438 141.532 95.4398 141.533 95.4357 141.533C95.4273 141.535 95.418 141.536 95.4078 141.538C95.3874 141.541 95.3634 141.545 95.336 141.549C95.2813 141.559 95.2126 141.571 95.132 141.588C94.9714 141.621 94.759 141.67 94.5112 141.74C94.0271 141.879 93.3496 142.117 92.6438 142.52C91.1995 143.346 89.3822 145.06 89.3822 148H95.3822C95.3822 147.959 95.3852 147.932 95.3874 147.918C95.3885 147.91 95.3896 147.905 95.3903 147.902C95.391 147.899 95.3914 147.898 95.3914 147.898C95.3914 147.898 95.3911 147.899 95.3906 147.9C95.39 147.902 95.3893 147.903 95.3885 147.905C95.3868 147.908 95.3858 147.909 95.3868 147.908C95.3933 147.899 95.4497 147.827 95.6206 147.73C95.7899 147.633 95.9874 147.559 96.1595 147.51C96.2399 147.487 96.3009 147.473 96.3317 147.467C96.3468 147.464 96.3533 147.463 96.3498 147.463C96.3481 147.464 96.3437 147.464 96.3366 147.465C96.333 147.466 96.3287 147.467 96.3237 147.467C96.3212 147.468 96.3185 147.468 96.3157 147.469C96.3142 147.469 96.3128 147.469 96.3112 147.469C96.3105 147.469 96.3093 147.469 96.3089 147.47C96.3077 147.47 96.3065 147.47 95.8822 144.5ZM89.3822 148C89.3822 150.94 91.1995 152.654 92.6438 153.48C93.3496 153.883 94.0271 154.121 94.5112 154.26C94.759 154.33 94.9714 154.379 95.132 154.412C95.2126 154.429 95.2813 154.441 95.336 154.451C95.3634 154.455 95.3874 154.459 95.4078 154.462C95.418 154.464 95.4273 154.465 95.4357 154.467C95.4398 154.467 95.4438 154.468 95.4475 154.468C95.4494 154.469 95.4512 154.469 95.4529 154.469C95.4538 154.469 95.4551 154.469 95.4555 154.469C95.4567 154.47 95.458 154.47 95.8822 151.5C96.3065 148.53 96.3077 148.53 96.3089 148.53C96.3093 148.531 96.3105 148.531 96.3112 148.531C96.3128 148.531 96.3142 148.531 96.3157 148.531C96.3185 148.532 96.3212 148.532 96.3237 148.533C96.3287 148.533 96.333 148.534 96.3366 148.535C96.3437 148.536 96.3481 148.536 96.3498 148.537C96.3533 148.537 96.3468 148.536 96.3317 148.533C96.3009 148.527 96.2399 148.513 96.1595 148.49C95.9874 148.441 95.7899 148.367 95.6206 148.27C95.4497 148.173 95.3933 148.101 95.3868 148.092C95.3858 148.091 95.3868 148.092 95.3885 148.095C95.3893 148.097 95.39 148.098 95.3906 148.1C95.3911 148.101 95.3914 148.102 95.3914 148.102C95.3914 148.102 95.391 148.101 95.3903 148.098C95.3896 148.095 95.3885 148.09 95.3874 148.082C95.3852 148.068 95.3822 148.041 95.3822 148H89.3822ZM95.8822 151.5C92.8889 151.3 92.8888 151.301 92.8888 151.302C92.8887 151.302 92.8887 151.303 92.8886 151.304C92.8886 151.305 92.8885 151.307 92.8884 151.308C92.8882 151.311 92.888 151.315 92.8877 151.318C92.8872 151.326 92.8866 151.336 92.886 151.348C92.8846 151.371 92.883 151.401 92.8812 151.438C92.8776 151.511 92.8733 151.612 92.8698 151.737C92.8627 151.984 92.8582 152.329 92.8673 152.739C92.8852 153.543 92.9567 154.669 93.1905 155.838C93.4152 156.962 93.84 158.39 94.7286 159.602C95.7047 160.933 97.2623 162 99.3822 162V156C99.3729 156 99.4474 156.004 99.5403 156.055C99.6187 156.099 99.6205 156.127 99.5671 156.054C99.4245 155.86 99.2243 155.413 99.074 154.662C98.9328 153.956 98.8792 153.207 98.8659 152.605C98.8594 152.312 98.8627 152.07 98.8673 151.908C98.8696 151.827 98.8722 151.767 98.874 151.731C98.8749 151.713 98.8756 151.701 98.8759 151.695C98.876 151.693 98.8761 151.692 98.8761 151.692C98.876 151.693 98.876 151.693 98.8759 151.695C98.8759 151.695 98.8758 151.696 98.8758 151.697C98.8757 151.697 98.8757 151.698 98.8757 151.698C98.8756 151.699 98.8756 151.7 95.8822 151.5ZM99.3822 162C101.526 162 103.092 160.906 104.035 159.492C104.874 158.234 105.206 156.769 105.356 155.646C105.513 154.471 105.509 153.342 105.473 152.539C105.455 152.129 105.427 151.785 105.404 151.538C105.392 151.414 105.381 151.313 105.373 151.24C105.368 151.203 105.365 151.173 105.362 151.15C105.36 151.139 105.359 151.129 105.358 151.121C105.358 151.117 105.357 151.114 105.357 151.111C105.357 151.11 105.357 151.108 105.356 151.107C105.356 151.106 105.356 151.105 105.356 151.105C105.356 151.104 105.356 151.104 102.382 151.5C99.4086 151.896 99.4085 151.896 99.4084 151.895C99.4083 151.895 99.4082 151.894 99.4082 151.894C99.4081 151.893 99.408 151.892 99.4079 151.892C99.4078 151.891 99.4077 151.89 99.4076 151.89C99.4076 151.889 99.4077 151.89 99.4081 151.893C99.4087 151.898 99.4102 151.91 99.4123 151.929C99.4165 151.965 99.4232 152.026 99.4309 152.107C99.4464 152.27 99.4659 152.512 99.4789 152.805C99.5057 153.408 99.5018 154.154 99.4086 154.854C99.3082 155.606 99.1407 156.016 99.0423 156.164C99.0131 156.208 99.0435 156.147 99.1604 156.079C99.291 156.004 99.392 156 99.3822 156V162ZM102.382 151.5C102.754 154.477 102.755 154.477 102.757 154.477C102.757 154.477 102.758 154.476 102.759 154.476C102.76 154.476 102.762 154.476 102.764 154.476C102.767 154.475 102.771 154.475 102.775 154.474C102.782 154.473 102.791 154.472 102.801 154.471C102.821 154.468 102.845 154.465 102.872 154.46C102.927 154.452 102.998 154.441 103.081 154.426C103.248 154.396 103.472 154.351 103.735 154.285C104.248 154.157 104.97 153.935 105.724 153.558C107.182 152.829 109.382 151.149 109.382 148H103.382C103.382 148.034 103.378 148.023 103.391 147.986C103.403 147.953 103.417 147.935 103.415 147.938C103.396 147.962 103.296 148.064 103.041 148.192C102.795 148.315 102.517 148.405 102.28 148.465C102.167 148.493 102.079 148.51 102.027 148.519C102.001 148.524 101.986 148.526 101.982 148.527C101.98 148.527 101.982 148.527 101.986 148.526C101.989 148.526 101.992 148.526 101.996 148.525C101.998 148.525 102 148.524 102.002 148.524C102.003 148.524 102.005 148.524 102.006 148.524C102.007 148.524 102.008 148.523 102.008 148.523C102.009 148.523 102.01 148.523 102.382 151.5ZM109.382 148C109.382 144.851 107.182 143.171 105.724 142.442C104.97 142.065 104.248 141.843 103.735 141.715C103.472 141.649 103.248 141.604 103.081 141.574C102.998 141.559 102.927 141.548 102.872 141.54C102.845 141.535 102.821 141.532 102.801 141.529C102.791 141.528 102.782 141.527 102.775 141.526C102.771 141.525 102.767 141.525 102.764 141.524C102.762 141.524 102.76 141.524 102.759 141.524C102.758 141.524 102.757 141.523 102.757 141.523C102.755 141.523 102.754 141.523 102.382 144.5C102.01 147.477 102.009 147.477 102.008 147.477C102.008 147.477 102.007 147.476 102.006 147.476C102.005 147.476 102.003 147.476 102.002 147.476C102 147.476 101.998 147.475 101.996 147.475C101.992 147.474 101.989 147.474 101.986 147.474C101.982 147.473 101.98 147.473 101.982 147.473C101.986 147.474 102.001 147.476 102.027 147.481C102.079 147.49 102.167 147.507 102.28 147.535C102.517 147.595 102.795 147.685 103.041 147.808C103.296 147.936 103.396 148.038 103.415 148.062C103.417 148.065 103.403 148.047 103.391 148.014C103.378 147.977 103.382 147.966 103.382 148H109.382ZM105.382 144.5V128H99.3822V144.5H105.382ZM100.933 130.627L115.433 138.627L118.331 133.373L103.831 125.373L100.933 130.627ZM116.882 136C113.984 135.227 113.983 135.228 113.983 135.229C113.983 135.229 113.983 135.23 113.982 135.231C113.982 135.233 113.982 135.234 113.981 135.236C113.98 135.239 113.979 135.242 113.979 135.246C113.977 135.253 113.974 135.262 113.972 135.271C113.967 135.289 113.962 135.312 113.956 135.337C113.943 135.389 113.928 135.456 113.911 135.536C113.876 135.695 113.835 135.91 113.797 136.168C113.723 136.672 113.653 137.393 113.7 138.202C113.786 139.718 114.362 142.344 117.041 143.683L119.724 138.317C119.722 138.316 119.745 138.328 119.771 138.356C119.794 138.38 119.798 138.393 119.788 138.374C119.761 138.318 119.707 138.157 119.69 137.86C119.674 137.575 119.698 137.281 119.733 137.043C119.75 136.929 119.767 136.842 119.778 136.791C119.783 136.766 119.787 136.751 119.788 136.747C119.788 136.746 119.788 136.747 119.787 136.751C119.786 136.753 119.785 136.756 119.785 136.759C119.784 136.761 119.783 136.763 119.783 136.766C119.783 136.767 119.782 136.768 119.782 136.769C119.782 136.77 119.782 136.771 119.781 136.771C119.781 136.772 119.781 136.773 116.882 136ZM117.041 143.683C119.593 144.96 121.984 144.074 123.299 143.329C123.991 142.937 124.547 142.5 124.923 142.172C125.116 142.005 125.271 141.857 125.384 141.744C125.441 141.688 125.488 141.639 125.524 141.601C125.543 141.582 125.558 141.566 125.571 141.552C125.578 141.545 125.583 141.538 125.589 141.533C125.591 141.53 125.594 141.527 125.596 141.525C125.597 141.524 125.598 141.522 125.599 141.521C125.6 141.521 125.6 141.52 125.601 141.52C125.601 141.519 125.602 141.518 123.382 139.5C121.162 137.482 121.163 137.481 121.164 137.48C121.164 137.48 121.165 137.479 121.165 137.479C121.166 137.478 121.167 137.477 121.168 137.476C121.169 137.474 121.171 137.473 121.172 137.471C121.175 137.468 121.177 137.466 121.179 137.464C121.182 137.461 121.183 137.459 121.183 137.46C121.181 137.461 121.172 137.471 121.156 137.487C121.123 137.52 121.063 137.578 120.982 137.648C120.812 137.797 120.586 137.97 120.341 138.109C120.088 138.252 119.905 138.308 119.802 138.322C119.737 138.331 119.737 138.323 119.724 138.317L117.041 143.683ZM123.382 139.5C121.718 141.996 121.719 141.997 121.719 141.997C121.72 141.997 121.72 141.998 121.721 141.998C121.722 141.999 121.723 141.999 121.724 142C121.727 142.002 121.729 142.004 121.732 142.006C121.739 142.01 121.746 142.015 121.756 142.021C121.774 142.033 121.798 142.049 121.828 142.068C121.887 142.106 121.969 142.158 122.07 142.22C122.272 142.344 122.555 142.514 122.9 142.704C123.577 143.078 124.544 143.565 125.623 143.95C126.662 144.321 128.035 144.684 129.455 144.605C130.98 144.52 132.725 143.895 133.878 142.164L128.886 138.836C129.04 138.605 129.284 138.605 129.122 138.614C128.854 138.629 128.353 138.554 127.641 138.3C126.971 138.06 126.312 137.734 125.802 137.452C125.553 137.315 125.352 137.195 125.218 137.112C125.151 137.071 125.102 137.04 125.072 137.021C125.058 137.011 125.048 137.005 125.043 137.002C125.041 137 125.04 137 125.041 137C125.041 137 125.042 137.001 125.043 137.001C125.043 137.002 125.044 137.002 125.044 137.002C125.044 137.003 125.045 137.003 125.045 137.003C125.046 137.003 125.046 137.004 123.382 139.5ZM133.878 142.164C135.138 140.275 134.827 138.283 134.159 136.863C133.539 135.545 132.517 134.45 131.659 133.664C130.762 132.841 129.818 132.155 129.123 131.685C128.77 131.447 128.468 131.256 128.25 131.122C128.141 131.055 128.052 131.001 127.987 130.963C127.955 130.944 127.929 130.929 127.909 130.918C127.9 130.912 127.891 130.907 127.885 130.903C127.882 130.902 127.879 130.9 127.877 130.899C127.875 130.898 127.874 130.897 127.873 130.897C127.873 130.896 127.872 130.896 127.872 130.896C127.871 130.896 127.871 130.895 126.382 133.5C124.894 136.105 124.893 136.104 124.893 136.104C124.893 136.104 124.892 136.104 124.892 136.104C124.891 136.103 124.891 136.103 124.891 136.103C124.89 136.102 124.89 136.102 124.89 136.102C124.89 136.102 124.892 136.104 124.895 136.106C124.902 136.109 124.915 136.117 124.933 136.128C124.97 136.15 125.03 136.186 125.108 136.234C125.265 136.33 125.494 136.475 125.766 136.658C126.321 137.033 127.003 137.534 127.605 138.086C128.247 138.675 128.601 139.143 128.73 139.418C128.812 139.592 128.627 139.225 128.886 138.836L133.878 142.164ZM126.382 133.5C129.066 134.842 129.066 134.84 129.067 134.839C129.067 134.839 129.067 134.838 129.068 134.837C129.069 134.835 129.069 134.834 129.07 134.832C129.072 134.828 129.074 134.825 129.076 134.821C129.08 134.813 129.084 134.805 129.088 134.795C129.097 134.777 129.108 134.755 129.119 134.73C129.143 134.68 129.171 134.617 129.203 134.542C129.266 134.394 129.344 134.195 129.424 133.956C129.579 133.491 129.76 132.81 129.813 132.012C129.925 130.334 129.43 127.93 126.926 126.428L123.839 131.572C123.935 131.63 123.879 131.618 123.836 131.518C123.811 131.459 123.836 131.473 123.826 131.613C123.817 131.753 123.78 131.915 123.731 132.059C123.71 132.125 123.69 132.172 123.681 132.194C123.677 132.205 123.675 132.208 123.678 132.202C123.679 132.199 123.681 132.195 123.685 132.187C123.686 132.184 123.689 132.179 123.691 132.175C123.692 132.172 123.693 132.17 123.695 132.167C123.695 132.166 123.696 132.164 123.697 132.163C123.697 132.162 123.698 132.161 123.698 132.161C123.698 132.159 123.699 132.158 126.382 133.5ZM126.926 126.428C124.297 124.85 121.765 125.797 120.401 126.615C119.693 127.04 119.13 127.517 118.754 127.872C118.561 128.054 118.406 128.214 118.293 128.336C118.237 128.397 118.19 128.449 118.154 128.49C118.136 128.511 118.121 128.529 118.108 128.544C118.101 128.551 118.096 128.558 118.091 128.564C118.088 128.567 118.086 128.57 118.084 128.572C118.083 128.574 118.081 128.575 118.08 128.576C118.08 128.577 118.079 128.577 118.079 128.578C118.078 128.579 118.078 128.579 120.382 130.5C122.687 132.421 122.686 132.421 122.686 132.422C122.685 132.422 122.685 132.423 122.684 132.424C122.683 132.425 122.683 132.426 122.682 132.427C122.68 132.429 122.679 132.43 122.677 132.432C122.675 132.435 122.673 132.437 122.671 132.439C122.668 132.443 122.667 132.444 122.668 132.443C122.67 132.441 122.679 132.43 122.696 132.412C122.73 132.376 122.789 132.314 122.87 132.237C123.04 132.077 123.259 131.898 123.488 131.76C123.727 131.617 123.867 131.585 123.904 131.58C123.912 131.579 123.894 131.582 123.861 131.576C123.826 131.568 123.816 131.559 123.839 131.572L126.926 126.428ZM121.899 127.912L107.399 119.412L104.365 124.588L118.865 133.088L121.899 127.912ZM107.399 124.588L121.899 116.088L118.865 110.912L104.365 119.412L107.399 124.588ZM120.382 113.5C118.261 115.621 118.262 115.622 118.262 115.623C118.263 115.623 118.263 115.624 118.264 115.624C118.265 115.625 118.266 115.626 118.267 115.627C118.269 115.63 118.272 115.632 118.274 115.635C118.28 115.64 118.286 115.646 118.292 115.653C118.306 115.666 118.323 115.682 118.343 115.701C118.382 115.739 118.434 115.787 118.497 115.845C118.622 115.959 118.795 116.11 119.009 116.282C119.428 116.62 120.042 117.067 120.791 117.464C122.158 118.188 124.801 119.147 127.426 117.572L124.339 112.428C124.336 112.429 124.348 112.423 124.364 112.42C124.375 112.418 124.357 112.423 124.299 112.417C124.163 112.402 123.924 112.334 123.598 112.161C123.285 111.995 122.993 111.787 122.771 111.608C122.664 111.522 122.584 111.451 122.535 111.407C122.511 111.386 122.496 111.371 122.49 111.366C122.488 111.363 122.487 111.363 122.489 111.365C122.49 111.366 122.492 111.367 122.495 111.37C122.496 111.371 122.497 111.372 122.499 111.374C122.499 111.374 122.5 111.375 122.501 111.376C122.501 111.376 122.502 111.377 122.502 111.377C122.503 111.378 122.504 111.379 120.382 113.5ZM127.426 117.572C130.238 115.885 130.305 113.011 130.024 111.416C129.879 110.593 129.622 109.884 129.419 109.403C129.315 109.156 129.217 108.951 129.141 108.801C129.103 108.726 129.07 108.663 129.044 108.614C129.031 108.59 129.019 108.569 129.01 108.552C129.005 108.544 129.001 108.536 128.997 108.529C128.995 108.526 128.993 108.523 128.992 108.52C128.991 108.518 128.99 108.517 128.989 108.515C128.989 108.515 128.988 108.514 128.988 108.513C128.987 108.513 128.987 108.512 126.382 110C123.778 111.488 123.777 111.488 123.776 111.487C123.776 111.486 123.776 111.485 123.775 111.485C123.775 111.484 123.774 111.483 123.774 111.482C123.772 111.48 123.771 111.478 123.77 111.476C123.769 111.473 123.767 111.47 123.766 111.468C123.764 111.464 123.763 111.463 123.764 111.465C123.766 111.468 123.774 111.482 123.785 111.506C123.809 111.553 123.848 111.633 123.892 111.737C123.986 111.96 124.073 112.22 124.115 112.459C124.16 112.714 124.125 112.779 124.145 112.712C124.159 112.666 124.191 112.594 124.246 112.522C124.303 112.449 124.348 112.422 124.339 112.428L127.426 117.572ZM126.382 110C127.794 112.647 127.795 112.647 127.795 112.646C127.796 112.646 127.796 112.646 127.797 112.646C127.798 112.645 127.799 112.644 127.8 112.644C127.803 112.642 127.805 112.641 127.809 112.639C127.816 112.635 127.824 112.631 127.835 112.625C127.855 112.614 127.883 112.599 127.917 112.58C127.986 112.542 128.08 112.489 128.196 112.422C128.428 112.289 128.749 112.098 129.124 111.86C129.86 111.393 130.86 110.705 131.802 109.877C132.691 109.095 133.785 107.966 134.4 106.57C134.725 105.835 134.962 104.923 134.874 103.904C134.783 102.851 134.362 101.889 133.687 101.079L129.078 104.921C129.028 104.861 128.919 104.68 128.896 104.42C128.877 104.194 128.938 104.087 128.911 104.148C128.824 104.346 128.511 104.78 127.838 105.373C127.217 105.92 126.498 106.42 125.906 106.796C125.617 106.98 125.372 107.125 125.203 107.222C125.119 107.271 125.055 107.307 125.014 107.329C124.994 107.34 124.98 107.348 124.973 107.352C124.969 107.354 124.967 107.355 124.966 107.355C124.966 107.355 124.966 107.355 124.967 107.355C124.967 107.355 124.968 107.354 124.968 107.354C124.969 107.354 124.969 107.354 124.969 107.354C124.97 107.353 124.97 107.353 126.382 110ZM133.687 101.079C132.385 99.5171 130.653 98.9688 129.078 98.9688C127.614 98.9688 126.251 99.4283 125.226 99.8836C124.167 100.354 123.242 100.925 122.6 101.358C122.274 101.579 122.007 101.774 121.816 101.918C121.721 101.99 121.644 102.05 121.588 102.094C121.56 102.116 121.537 102.134 121.519 102.149C121.51 102.156 121.503 102.162 121.497 102.167C121.494 102.169 121.491 102.171 121.489 102.173C121.487 102.174 121.486 102.175 121.485 102.176C121.485 102.176 121.484 102.177 121.484 102.177C121.483 102.178 121.483 102.178 123.382 104.5C125.282 106.822 125.281 106.822 125.281 106.823C125.281 106.823 125.28 106.823 125.28 106.824C125.279 106.824 125.278 106.825 125.278 106.825C125.277 106.826 125.276 106.827 125.276 106.827C125.275 106.828 125.275 106.827 125.277 106.826C125.281 106.823 125.289 106.817 125.301 106.806C125.327 106.786 125.371 106.752 125.431 106.707C125.551 106.616 125.733 106.483 125.961 106.329C126.428 106.013 127.035 105.646 127.663 105.366C128.326 105.072 128.806 104.969 129.078 104.969C129.188 104.969 129.2 104.986 129.157 104.968C129.099 104.944 129.069 104.91 129.078 104.921L133.687 101.079ZM123.382 104.5C125.687 102.579 125.686 102.579 125.685 102.578C125.685 102.577 125.685 102.577 125.684 102.576C125.683 102.575 125.682 102.574 125.681 102.572C125.679 102.57 125.676 102.567 125.674 102.564C125.669 102.558 125.663 102.551 125.657 102.544C125.644 102.529 125.629 102.511 125.61 102.49C125.574 102.449 125.528 102.397 125.471 102.336C125.358 102.214 125.203 102.054 125.011 101.872C124.634 101.517 124.071 101.04 123.363 100.615C122 99.7969 119.468 98.85 116.839 100.428L119.926 105.572C119.948 105.559 119.938 105.568 119.903 105.576C119.871 105.582 119.852 105.579 119.861 105.58C119.897 105.585 120.038 105.617 120.276 105.76C120.506 105.898 120.724 106.077 120.895 106.237C120.975 106.314 121.035 106.376 121.069 106.412C121.085 106.43 121.095 106.441 121.097 106.443C121.098 106.444 121.096 106.443 121.093 106.439C121.092 106.437 121.09 106.435 121.087 106.432C121.086 106.43 121.084 106.429 121.083 106.427C121.082 106.426 121.081 106.425 121.08 106.424C121.08 106.423 121.079 106.422 121.079 106.422C121.078 106.421 121.078 106.421 123.382 104.5ZM116.839 100.428C114.222 101.998 113.856 104.636 113.95 106.239C113.998 107.058 114.163 107.77 114.305 108.262C114.378 108.514 114.449 108.724 114.506 108.879C114.534 108.956 114.559 109.021 114.58 109.072C114.59 109.098 114.599 109.12 114.606 109.138C114.61 109.147 114.614 109.155 114.617 109.163C114.618 109.166 114.62 109.17 114.621 109.173C114.622 109.174 114.622 109.176 114.623 109.177C114.623 109.178 114.624 109.179 114.624 109.18C114.624 109.181 114.625 109.182 117.382 108C120.14 106.818 120.14 106.819 120.141 106.82C120.141 106.821 120.141 106.822 120.141 106.822C120.142 106.823 120.142 106.825 120.143 106.826C120.144 106.828 120.145 106.83 120.146 106.832C120.147 106.836 120.149 106.839 120.15 106.842C120.152 106.847 120.153 106.849 120.152 106.848C120.152 106.847 120.147 106.836 120.14 106.815C120.124 106.772 120.098 106.697 120.069 106.597C120.008 106.386 119.954 106.13 119.94 105.886C119.925 105.634 119.96 105.52 119.965 105.507C119.965 105.507 119.963 105.513 119.956 105.524C119.95 105.535 119.942 105.547 119.932 105.56C119.908 105.588 119.896 105.59 119.926 105.572L116.839 100.428ZM115.903 105.39L100.903 113.89L103.861 119.11L118.861 110.61L115.903 105.39ZM105.382 116.5V99.5H99.3822V116.5H105.382ZM102.382 99.5C102.382 102.5 102.384 102.5 102.385 102.5C102.385 102.5 102.387 102.5 102.388 102.5C102.389 102.5 102.391 102.5 102.393 102.5C102.397 102.5 102.401 102.5 102.406 102.5C102.415 102.5 102.425 102.5 102.436 102.5C102.458 102.499 102.484 102.499 102.515 102.498C102.575 102.496 102.651 102.493 102.741 102.487C102.92 102.476 103.16 102.455 103.44 102.414C103.986 102.334 104.765 102.17 105.585 101.811C106.406 101.452 107.375 100.85 108.144 99.8416C108.942 98.794 109.382 97.4894 109.382 96H103.382C103.382 96.2606 103.323 96.2685 103.371 96.2053C103.389 96.1816 103.358 96.2359 103.18 96.314C103 96.3928 102.779 96.4469 102.574 96.4767C102.48 96.4905 102.407 96.4965 102.367 96.499C102.348 96.5002 102.338 96.5005 102.34 96.5004C102.341 96.5004 102.344 96.5003 102.351 96.5002C102.355 96.5001 102.359 96.5001 102.364 96.5001C102.367 96.5 102.37 96.5 102.373 96.5C102.374 96.5 102.376 96.5 102.377 96.5C102.378 96.5 102.379 96.5 102.38 96.5C102.381 96.5 102.382 96.5 102.382 99.5ZM109.382 96C109.382 94.5106 108.942 93.206 108.144 92.1584C107.375 91.1504 106.406 90.5484 105.585 90.189C104.765 89.8303 103.986 89.6657 103.44 89.5861C103.16 89.5452 102.92 89.5239 102.741 89.5127C102.651 89.507 102.575 89.5039 102.515 89.5021C102.484 89.5012 102.458 89.5007 102.436 89.5004C102.425 89.5002 102.415 89.5001 102.406 89.5001C102.401 89.5001 102.397 89.5 102.393 89.5C102.391 89.5 102.389 89.5 102.388 89.5C102.387 89.5 102.385 89.5 102.385 89.5C102.384 89.5 102.382 89.5 102.382 92.5C102.382 95.5 102.381 95.5 102.38 95.5C102.379 95.5 102.378 95.5 102.377 95.5C102.376 95.5 102.374 95.5 102.373 95.5C102.37 95.5 102.367 95.5 102.364 95.4999C102.359 95.4999 102.355 95.4999 102.351 95.4998C102.344 95.4997 102.341 95.4996 102.34 95.4996C102.338 95.4995 102.348 95.4998 102.367 95.501C102.407 95.5035 102.48 95.5095 102.574 95.5233C102.779 95.5531 103 95.6072 103.18 95.686C103.358 95.7641 103.389 95.8184 103.371 95.7947C103.323 95.7315 103.382 95.7394 103.382 96H109.382ZM102.382 92.5C105.356 92.8965 105.356 92.8957 105.356 92.8949C105.356 92.8946 105.356 92.8937 105.356 92.8931C105.357 92.8918 105.357 92.8905 105.357 92.889C105.357 92.886 105.358 92.8826 105.358 92.8787C105.359 92.8709 105.36 92.8612 105.362 92.8498C105.365 92.8269 105.368 92.7969 105.373 92.7601C105.381 92.6867 105.392 92.5861 105.404 92.4622C105.427 92.215 105.455 91.871 105.473 91.4613C105.509 90.658 105.513 89.529 105.356 88.3535C105.206 87.2314 104.874 85.7664 104.035 84.5078C103.092 83.094 101.526 82 99.3822 82V88C99.392 88 99.291 87.9962 99.1604 87.9208C99.0435 87.8534 99.0131 87.7921 99.0423 87.836C99.1407 87.9836 99.3082 88.3936 99.4086 89.1465C99.5018 89.846 99.5057 90.592 99.4789 91.1949C99.4659 91.4884 99.4464 91.7303 99.4309 91.8933C99.4232 91.9745 99.4165 92.035 99.4123 92.0714C99.4102 92.0896 99.4087 92.1017 99.4081 92.1072C99.4077 92.1099 99.4076 92.111 99.4076 92.1105C99.4077 92.1102 99.4078 92.1094 99.4079 92.1083C99.408 92.1077 99.4081 92.107 99.4082 92.1062C99.4082 92.1058 99.4083 92.1052 99.4084 92.105C99.4085 92.1042 99.4086 92.1035 102.382 92.5Z" fill="black" mask="url(#path-5-outside-1_30_361)"/>
</svg>
