<svg width="223" height="134" viewBox="0 0 223 134" fill="none" xmlns="http://www.w3.org/2000/svg">
<g clip-path="url(#clip0_30_478)">
<path d="M105.825 1.67588C106.413 2.3911 106.774 3.2664 106.86 4.18868C106.946 5.11095 106.753 6.03783 106.307 6.84953C102.821 13.2501 101 20.4246 101.013 27.713C101.013 51.9592 120.779 71.5925 145.14 71.5925C148.317 71.5925 151.411 71.2609 154.383 70.6277C155.295 70.4304 156.244 70.5059 157.112 70.8447C157.981 71.1836 158.731 71.7709 159.268 72.5332C159.834 73.3258 160.123 74.2835 160.089 75.2573C160.056 76.2311 159.701 77.1664 159.081 77.9179C154.351 83.7273 148.385 88.408 141.617 91.6189C134.849 94.8298 127.45 96.4898 119.959 96.4779C92.1609 96.4779 69.6453 74.0829 69.6453 46.4901C69.6453 25.7231 82.3925 7.91079 100.542 0.361367C101.447 -0.0207361 102.45 -0.0991611 103.403 0.137873C104.355 0.374907 105.205 0.914601 105.825 1.67588V1.67588Z" fill="#FFF467"/>
<path d="M134.732 18.9821C134.818 18.721 134.985 18.4937 135.208 18.3327C135.431 18.1716 135.699 18.0849 135.974 18.0849C136.249 18.0849 136.517 18.1716 136.74 18.3327C136.963 18.4937 137.13 18.721 137.216 18.9821L139.55 25.9888C140.593 29.1123 143.041 31.5605 146.165 32.6036L153.171 34.9372C153.432 35.0237 153.66 35.1902 153.821 35.4132C153.982 35.6362 154.068 35.9043 154.068 36.1794C154.068 36.4544 153.982 36.7225 153.821 36.9455C153.66 37.1685 153.432 37.3351 153.171 37.4215L146.165 39.7551C144.624 40.2683 143.224 41.1333 142.076 42.2815C140.928 43.4296 140.063 44.8294 139.55 46.3699L137.216 53.3766C137.13 53.6378 136.963 53.865 136.74 54.026C136.517 54.1871 136.249 54.2738 135.974 54.2738C135.699 54.2738 135.431 54.1871 135.208 54.026C134.985 53.865 134.818 53.6378 134.732 53.3766L132.398 46.3699C131.885 44.8294 131.02 43.4296 129.872 42.2815C128.724 41.1333 127.324 40.2683 125.784 39.7551L118.777 37.4215C118.516 37.3351 118.288 37.1685 118.127 36.9455C117.966 36.7225 117.88 36.4544 117.88 36.1794C117.88 35.9043 117.966 35.6362 118.127 35.4132C118.288 35.1902 118.516 35.0237 118.777 34.9372L125.784 32.6036C127.324 32.0904 128.724 31.2254 129.872 30.0773C131.02 28.9291 131.885 27.5293 132.398 25.9888L134.732 18.9821V18.9821ZM153.238 0.596964C153.297 0.42527 153.409 0.27639 153.557 0.171022C153.705 0.0656534 153.882 0.0090332 154.064 0.0090332C154.245 0.0090332 154.423 0.0656534 154.571 0.171022C154.719 0.27639 154.83 0.42527 154.89 0.596964L156.446 5.2641C157.139 7.35044 158.773 8.98455 160.859 9.67798L165.527 11.2337C165.698 11.2932 165.847 11.4048 165.953 11.5528C166.058 11.7009 166.115 11.8781 166.115 12.0598C166.115 12.2415 166.058 12.4187 165.953 12.5668C165.847 12.7148 165.698 12.8264 165.527 12.8859L160.859 14.4416C159.831 14.7836 158.897 15.3607 158.131 16.1268C157.365 16.893 156.788 17.8273 156.446 18.8555L154.89 23.5226C154.83 23.6943 154.719 23.8432 154.571 23.9486C154.423 24.0539 154.245 24.1106 154.064 24.1106C153.882 24.1106 153.705 24.0539 153.557 23.9486C153.409 23.8432 153.297 23.6943 153.238 23.5226L151.682 18.8555C151.34 17.8273 150.763 16.893 149.997 16.1268C149.23 15.3607 148.296 14.7836 147.268 14.4416L142.601 12.8859C142.429 12.8264 142.28 12.7148 142.175 12.5668C142.07 12.4187 142.013 12.2415 142.013 12.0598C142.013 11.8781 142.07 11.7009 142.175 11.5528C142.28 11.4048 142.429 11.2932 142.601 11.2337L147.268 9.67798C149.354 8.98455 150.988 7.35044 151.682 5.2641L153.238 0.602994V0.596964Z" fill="#FFF467"/>
</g>
<path d="M100.131 47.4763C113.377 46.7559 118.402 51.1304 118.402 51.1304C118.402 51.1304 129.364 16.5383 169.102 20.0706C208.84 23.6029 209.754 68.0305 209.754 68.0305C209.754 68.0305 223 74.4252 223 90.8686C223 107.312 207.927 113.707 201.532 113.707H96.9338C96.9338 113.707 73.1822 110.053 69.9849 85.8442C66.7875 61.6359 86.8851 48.1966 100.131 47.4763Z" fill="#F8F8F8"/>
<path d="M33.0914 61.7315C47.4696 60.9496 52.9233 65.6979 52.9233 65.6979C52.9233 65.6979 64.8225 28.1494 107.957 31.9836C151.092 35.8178 152.083 84.0425 152.083 84.0425C152.083 84.0425 166.461 90.9837 166.461 108.832C166.461 126.681 150.1 133.622 143.159 133.622H29.6208C29.6208 133.622 3.83921 129.656 0.368618 103.379C-3.10198 77.1013 18.7132 62.5134 33.0914 61.7315Z" fill="white"/>
<defs>
<clipPath id="clip0_30_478">
<rect width="96.4783" height="96.4783" fill="white" transform="translate(69.6453)"/>
</clipPath>
</defs>
</svg>
