<svg width="178" height="179" viewBox="0 0 178 179" fill="none" xmlns="http://www.w3.org/2000/svg">
<path d="M89 173.406C135.081 173.406 172.438 135.84 172.438 89.5C172.438 43.1599 135.081 5.59375 89 5.59375C42.9187 5.59375 5.5625 43.1599 5.5625 89.5C5.5625 135.84 42.9187 173.406 89 173.406Z" fill="#FFEC65"/>
<path d="M139.062 118.028C149.815 118.028 158.531 109.263 158.531 98.45C158.531 87.6373 149.815 78.8718 139.062 78.8718C128.31 78.8718 119.594 87.6373 119.594 98.45C119.594 109.263 128.31 118.028 139.062 118.028Z" fill="#C2BD57"/>
<path d="M50.3406 125.859C59.5568 125.859 67.0281 118.346 67.0281 109.078C67.0281 99.8101 59.5568 92.2969 50.3406 92.2969C41.1243 92.2969 33.6531 99.8101 33.6531 109.078C33.6531 118.346 41.1243 125.859 50.3406 125.859Z" fill="#C2BD57"/>
<path d="M67.3062 165.016C81.1305 165.016 92.3374 153.746 92.3374 139.844C92.3374 125.942 81.1305 114.672 67.3062 114.672C53.4818 114.672 42.2749 125.942 42.2749 139.844C42.2749 153.746 53.4818 165.016 67.3062 165.016Z" fill="#C2BD57"/>
<path d="M66.75 59.2937C72.8942 59.2937 77.875 54.2849 77.875 48.1062C77.875 41.9275 72.8942 36.9187 66.75 36.9187C60.6058 36.9187 55.625 41.9275 55.625 48.1062C55.625 54.2849 60.6058 59.2937 66.75 59.2937Z" fill="#C2BD57"/>
<path d="M102.906 62.0906C109.05 62.0906 114.031 57.0818 114.031 50.9031C114.031 44.7244 109.05 39.7156 102.906 39.7156C96.7621 39.7156 91.7812 44.7244 91.7812 50.9031C91.7812 57.0818 96.7621 62.0906 102.906 62.0906Z" fill="#C2BD57"/>
<path d="M33.6531 83.6267C39.7972 83.6267 44.7781 78.6179 44.7781 72.4392C44.7781 66.2605 39.7972 61.2517 33.6531 61.2517C27.5089 61.2517 22.5281 66.2605 22.5281 72.4392C22.5281 78.6179 27.5089 83.6267 33.6531 83.6267Z" fill="#C2BD57"/>
<path d="M108.469 31.325C111.541 31.325 114.031 28.8205 114.031 25.7312C114.031 22.6419 111.541 20.1375 108.469 20.1375C105.397 20.1375 102.906 22.6419 102.906 25.7312C102.906 28.8205 105.397 31.325 108.469 31.325Z" fill="#C2BD57"/>
<path d="M22.5281 114.672C25.6002 114.672 28.0906 112.167 28.0906 109.078C28.0906 105.989 25.6002 103.484 22.5281 103.484C19.456 103.484 16.9656 105.989 16.9656 109.078C16.9656 112.167 19.456 114.672 22.5281 114.672Z" fill="#C2BD57"/>
<path d="M144.625 145.438C147.697 145.438 150.188 142.933 150.188 139.844C150.188 136.754 147.697 134.25 144.625 134.25C141.553 134.25 139.062 136.754 139.062 139.844C139.062 142.933 141.553 145.438 144.625 145.438Z" fill="#C2BD57"/>
<path d="M69.5312 92.0173C74.1394 92.0173 77.875 88.2607 77.875 83.6267C77.875 78.9927 74.1394 75.2361 69.5312 75.2361C64.9231 75.2361 61.1875 78.9927 61.1875 83.6267C61.1875 88.2607 64.9231 92.0173 69.5312 92.0173Z" fill="#C2BD57"/>
<path d="M41.7188 49.5046C44.7908 49.5046 47.2812 47.0002 47.2812 43.9109C47.2812 40.8215 44.7908 38.3171 41.7188 38.3171C38.6467 38.3171 36.1562 40.8215 36.1562 43.9109C36.1562 47.0002 38.6467 49.5046 41.7188 49.5046Z" fill="#C2BD57"/>
<path d="M127.938 158.303C134.082 158.303 139.062 153.294 139.062 147.116C139.062 140.937 134.082 135.928 127.938 135.928C121.793 135.928 116.812 140.937 116.812 147.116C116.812 153.294 121.793 158.303 127.938 158.303Z" fill="#C2BD57"/>
<path d="M67.3062 30.2063C67.3062 38.0376 73.4249 44.1907 81.2124 44.1907C88.9999 44.1907 95.1187 38.0376 95.1187 30.2063C95.1187 22.375 88.9999 16.2219 81.2124 16.2219C73.4249 15.9422 67.3062 22.375 67.3062 30.2063" fill="#C2BD57"/>
</svg>
