<svg width="170" height="138" viewBox="0 0 170 138" fill="none" xmlns="http://www.w3.org/2000/svg">
<path d="M32.25 1.49402C32.7747 2.13157 33.0961 2.9118 33.1728 3.73391C33.2494 4.55602 33.0778 5.38222 32.68 6.10577C29.5725 11.8112 27.9496 18.2065 27.9608 24.7033C27.9608 46.3161 45.58 63.8171 67.295 63.8171C70.1276 63.8171 72.885 63.5215 75.5349 62.9571C76.3472 62.7812 77.1933 62.8485 77.9676 63.1506C78.7419 63.4527 79.41 63.9761 79.8886 64.6556C80.3938 65.3622 80.6514 66.2159 80.6212 67.0839C80.5911 67.952 80.275 68.7857 79.722 69.4555C75.5063 74.634 70.1881 78.8064 64.1551 81.6685C58.1221 84.5307 51.5265 86.0104 44.849 85.9998C20.0702 85.9998 0 66.037 0 41.441C0 22.9295 11.3628 7.05177 27.5415 0.322273C28.3474 -0.0183304 29.2421 -0.0882378 30.0911 0.123053C30.9402 0.334343 31.6977 0.815422 32.25 1.49402V1.49402Z" fill="#FFF467"/>
<path d="M58.0178 16.9205C58.0949 16.6877 58.2434 16.4852 58.4421 16.3416C58.6409 16.1981 58.8799 16.1208 59.1251 16.1208C59.3703 16.1208 59.6092 16.1981 59.808 16.3416C60.0068 16.4852 60.1553 16.6877 60.2323 16.9205L62.3125 23.1663C63.2423 25.9505 65.4246 28.1328 68.2088 29.0626L74.4546 31.1428C74.6873 31.2198 74.8899 31.3683 75.0335 31.5671C75.177 31.7659 75.2543 32.0048 75.2543 32.25C75.2543 32.4952 75.177 32.7342 75.0335 32.9329C74.8899 33.1317 74.6873 33.2802 74.4546 33.3573L68.2088 35.4374C66.8357 35.8949 65.5879 36.6659 64.5644 37.6894C63.541 38.7128 62.77 39.9606 62.3125 41.3338L60.2323 47.5795C60.1553 47.8123 60.0068 48.0148 59.808 48.1584C59.6092 48.302 59.3703 48.3792 59.1251 48.3792C58.8799 48.3792 58.6409 48.302 58.4421 48.1584C58.2434 48.0148 58.0949 47.8123 58.0178 47.5795L55.9377 41.3338C55.4802 39.9606 54.7092 38.7128 53.6857 37.6894C52.6623 36.6659 51.4145 35.8949 50.0413 35.4374L43.7956 33.3573C43.5628 33.2802 43.3603 33.1317 43.2167 32.9329C43.0731 32.7342 42.9958 32.4952 42.9958 32.25C42.9958 32.0048 43.0731 31.7659 43.2167 31.5671C43.3603 31.3683 43.5628 31.2198 43.7956 31.1428L50.0413 29.0626C51.4145 28.6051 52.6623 27.8341 53.6857 26.8106C54.7092 25.7872 55.4802 24.5394 55.9377 23.1663L58.0178 16.9205V16.9205ZM74.5137 0.532133C74.5668 0.379087 74.6662 0.246376 74.7982 0.152452C74.9301 0.0585274 75.0881 0.00805664 75.2501 0.00805664C75.4121 0.00805664 75.57 0.0585274 75.702 0.152452C75.834 0.246376 75.9334 0.379087 75.9865 0.532133L77.3732 4.69238C77.9913 6.55213 79.448 8.00876 81.3077 8.62688L85.468 10.0136C85.621 10.0667 85.7537 10.1661 85.8476 10.2981C85.9416 10.4301 85.992 10.588 85.992 10.75C85.992 10.912 85.9416 11.0699 85.8476 11.2019C85.7537 11.3339 85.621 11.4333 85.468 11.4864L81.3077 12.8731C80.3912 13.178 79.5584 13.6924 78.8754 14.3754C78.1924 15.0583 77.6781 15.8911 77.3732 16.8076L75.9865 20.9679C75.9334 21.1209 75.834 21.2536 75.702 21.3476C75.57 21.4415 75.4121 21.492 75.2501 21.492C75.0881 21.492 74.9301 21.4415 74.7982 21.3476C74.6662 21.2536 74.5668 21.1209 74.5137 20.9679L73.127 16.8076C72.8221 15.8911 72.3077 15.0583 71.6247 14.3754C70.9418 13.6924 70.109 13.178 69.1925 12.8731L65.0322 11.4864C64.8792 11.4333 64.7464 11.3339 64.6525 11.2019C64.5586 11.0699 64.5081 10.912 64.5081 10.75C64.5081 10.588 64.5586 10.4301 64.6525 10.2981C64.7464 10.1661 64.8792 10.0667 65.0322 10.0136L69.1925 8.62688C71.0522 8.00876 72.5088 6.55213 73.127 4.69238L74.5137 0.537508V0.532133Z" fill="#FFF467"/>
<path d="M35.3718 65.2772C49.8718 64.4886 55.3717 69.2772 55.3717 69.2772C55.3717 69.2772 67.3717 31.4105 110.872 35.2772C154.372 39.1439 155.372 87.7772 155.372 87.7772C155.372 87.7772 169.872 94.7772 169.872 112.777C169.872 130.777 153.372 137.777 146.372 137.777H31.8717C31.8717 137.777 5.87174 133.777 2.37174 107.277C-1.12826 80.7772 20.8718 66.0657 35.3718 65.2772Z" fill="white"/>
</svg>
