<svg width="168" height="142" viewBox="0 0 168 142" fill="none" xmlns="http://www.w3.org/2000/svg">
<path d="M142.249 112.182C142.298 112.133 142.357 112.094 142.421 112.067C142.486 112.04 142.555 112.026 142.625 112.026C142.695 112.026 142.764 112.04 142.829 112.067C142.893 112.094 142.952 112.133 143.001 112.182C143.565 112.748 144.918 114.375 146.131 116.329C147.332 118.263 148.469 120.632 148.469 122.652C148.469 124.611 147.908 126.214 146.864 127.331C145.82 128.452 144.342 129.027 142.625 129.027C140.909 129.027 139.431 128.452 138.386 127.331C137.341 126.214 136.781 124.611 136.781 122.652C136.781 120.631 137.918 118.264 139.119 116.329C140.332 114.374 141.685 112.749 142.249 112.182V112.182Z" fill="#ADE8FF"/>
<path d="M112.999 122.807C113.048 122.758 113.107 122.719 113.171 122.692C113.236 122.665 113.305 122.651 113.375 122.651C113.445 122.651 113.514 122.665 113.579 122.692C113.643 122.719 113.702 122.758 113.751 122.807C114.315 123.373 115.668 125 116.881 126.954C118.082 128.888 119.219 131.257 119.219 133.277C119.219 135.236 118.658 136.839 117.614 137.956C116.57 139.077 115.092 139.652 113.375 139.652C111.659 139.652 110.181 139.077 109.136 137.956C108.091 136.839 107.531 135.236 107.531 133.277C107.531 131.256 108.668 128.889 109.869 126.954C111.082 124.999 112.435 123.374 112.999 122.807V122.807Z" fill="#ADE8FF"/>
<path d="M54.4989 122.807C54.5482 122.758 54.6068 122.719 54.6714 122.692C54.7359 122.665 54.8051 122.651 54.875 122.651C54.9449 122.651 55.0141 122.665 55.0786 122.692C55.1432 122.719 55.2018 122.758 55.2511 122.807C55.8153 123.373 57.1679 125 58.3813 126.954C59.5819 128.888 60.7188 131.257 60.7188 133.277C60.7188 135.236 60.1577 136.839 59.1144 137.956C58.0699 139.077 56.592 139.652 54.875 139.652C53.1591 139.652 51.6811 139.077 50.6356 137.956C49.5912 136.839 49.0312 135.236 49.0312 133.277C49.0312 131.256 50.1681 128.889 51.3687 126.954C52.5821 124.999 53.9347 123.374 54.4989 122.807V122.807Z" fill="#ADE8FF"/>
<path d="M83.7489 110.057C83.7982 110.008 83.8568 109.969 83.9214 109.942C83.9859 109.915 84.0551 109.901 84.125 109.901C84.1949 109.901 84.2641 109.915 84.3286 109.942C84.3932 109.969 84.4518 110.008 84.5011 110.057C85.0653 110.623 86.4179 112.25 87.6313 114.204C88.8319 116.138 89.9688 118.507 89.9688 120.527C89.9688 122.486 89.4077 124.089 88.3644 125.206C87.3199 126.327 85.842 126.902 84.125 126.902C82.4091 126.902 80.9311 126.327 79.8856 125.206C78.8412 124.089 78.2812 122.486 78.2812 120.527C78.2812 118.506 79.4181 116.139 80.6187 114.204C81.8321 112.249 83.1847 110.624 83.7489 110.057V110.057Z" fill="#ADE8FF"/>
<path d="M25.2489 110.057C25.2982 110.008 25.3568 109.969 25.4214 109.942C25.4859 109.915 25.5551 109.901 25.625 109.901C25.6949 109.901 25.7641 109.915 25.8286 109.942C25.8932 109.969 25.9518 110.008 26.0011 110.057C26.5653 110.623 27.9179 112.25 29.1313 114.204C30.3319 116.138 31.4688 118.507 31.4688 120.527C31.4688 122.486 30.9077 124.089 29.8644 125.206C28.8199 126.327 27.342 126.902 25.625 126.902C23.9091 126.902 22.4311 126.327 21.3856 125.206C20.3412 124.089 19.7812 122.486 19.7812 120.527C19.7812 118.506 20.9181 116.139 22.1187 114.204C23.3321 112.249 24.6847 110.624 25.2489 110.057V110.057Z" fill="#ADE8FF"/>
<path d="M33.3718 30.2772C47.8718 29.4886 53.3717 34.2772 53.3717 34.2772C53.3717 34.2772 65.3717 -3.58949 108.872 0.277184C152.372 4.14386 153.372 52.7772 153.372 52.7772C153.372 52.7772 167.872 59.7772 167.872 77.7772C167.872 95.7772 151.372 102.777 144.372 102.777H29.8717C29.8717 102.777 3.87174 98.7772 0.371741 72.2772C-3.12826 45.7772 18.8718 31.0657 33.3718 30.2772Z" fill="white"/>
</svg>
