<svg width="180" height="222" viewBox="0 0 180 222" fill="none" xmlns="http://www.w3.org/2000/svg">
<path d="M42.25 1.49396C42.7747 2.1315 43.0961 2.91174 43.1728 3.73385C43.2494 4.55596 43.0778 5.38216 42.68 6.10571C39.5725 11.8111 37.9496 18.2064 37.9608 24.7032C37.9608 46.3161 55.58 63.8171 77.295 63.8171C80.1276 63.8171 82.885 63.5215 85.5349 62.9571C86.3472 62.7812 87.1933 62.8485 87.9676 63.1505C88.7419 63.4526 89.41 63.9761 89.8886 64.6556C90.3938 65.3621 90.6514 66.2158 90.6212 67.0839C90.5911 67.9519 90.275 68.7857 89.722 69.4555C85.5063 74.6339 80.1881 78.8063 74.1551 81.6685C68.1221 84.5306 61.5265 86.0103 54.849 85.9997C30.0702 85.9997 10 66.037 10 41.441C10 22.9295 21.3628 7.05171 37.5415 0.322212C38.3474 -0.0183914 39.2421 -0.0882988 40.0911 0.122992C40.9402 0.334282 41.6977 0.815361 42.25 1.49396V1.49396Z" fill="#FFF467"/>
<path d="M68.0178 16.9205C68.0949 16.6877 68.2434 16.4852 68.4421 16.3416C68.6409 16.1981 68.8799 16.1208 69.1251 16.1208C69.3703 16.1208 69.6092 16.1981 69.808 16.3416C70.0068 16.4852 70.1553 16.6877 70.2323 16.9205L72.3125 23.1663C73.2423 25.9505 75.4246 28.1328 78.2088 29.0626L84.4546 31.1428C84.6873 31.2198 84.8899 31.3683 85.0335 31.5671C85.177 31.7659 85.2543 32.0048 85.2543 32.25C85.2543 32.4952 85.177 32.7342 85.0335 32.9329C84.8899 33.1317 84.6873 33.2802 84.4546 33.3573L78.2088 35.4374C76.8357 35.8949 75.5879 36.6659 74.5644 37.6894C73.541 38.7128 72.77 39.9606 72.3125 41.3338L70.2323 47.5795C70.1553 47.8123 70.0068 48.0148 69.808 48.1584C69.6092 48.302 69.3703 48.3792 69.1251 48.3792C68.8799 48.3792 68.6409 48.302 68.4421 48.1584C68.2434 48.0148 68.0949 47.8123 68.0178 47.5795L65.9377 41.3338C65.4802 39.9606 64.7092 38.7128 63.6857 37.6894C62.6623 36.6659 61.4145 35.8949 60.0413 35.4374L53.7956 33.3573C53.5628 33.2802 53.3603 33.1317 53.2167 32.9329C53.0731 32.7342 52.9958 32.4952 52.9958 32.25C52.9958 32.0048 53.0731 31.7659 53.2167 31.5671C53.3603 31.3683 53.5628 31.2198 53.7956 31.1428L60.0413 29.0626C61.4145 28.6051 62.6623 27.8341 63.6857 26.8106C64.7092 25.7872 65.4802 24.5394 65.9377 23.1663L68.0178 16.9205V16.9205ZM84.5137 0.532133C84.5668 0.379087 84.6662 0.246376 84.7982 0.152452C84.9301 0.0585274 85.0881 0.00805664 85.2501 0.00805664C85.4121 0.00805664 85.57 0.0585274 85.702 0.152452C85.834 0.246376 85.9334 0.379087 85.9865 0.532133L87.3732 4.69238C87.9913 6.55213 89.448 8.00876 91.3077 8.62688L95.468 10.0136C95.621 10.0667 95.7537 10.1661 95.8476 10.2981C95.9416 10.4301 95.992 10.588 95.992 10.75C95.992 10.912 95.9416 11.0699 95.8476 11.2019C95.7537 11.3339 95.621 11.4333 95.468 11.4864L91.3077 12.8731C90.3912 13.178 89.5584 13.6924 88.8754 14.3754C88.1924 15.0583 87.6781 15.8911 87.3732 16.8076L85.9865 20.9679C85.9334 21.1209 85.834 21.2536 85.702 21.3476C85.57 21.4415 85.4121 21.492 85.2501 21.492C85.0881 21.492 84.9301 21.4415 84.7982 21.3476C84.6662 21.2536 84.5668 21.1209 84.5137 20.9679L83.127 16.8076C82.8221 15.8911 82.3077 15.0583 81.6247 14.3754C80.9418 13.6924 80.109 13.178 79.1925 12.8731L75.0322 11.4864C74.8792 11.4333 74.7464 11.3339 74.6525 11.2019C74.5586 11.0699 74.5081 10.912 74.5081 10.75C74.5081 10.588 74.5586 10.4301 74.6525 10.2981C74.7464 10.1661 74.8792 10.0667 75.0322 10.0136L79.1925 8.62688C81.0522 8.00876 82.5088 6.55213 83.127 4.69238L84.5137 0.537508V0.532133Z" fill="#FFF467"/>
<path d="M45.3718 65.2772C59.8718 64.4886 65.3717 69.2772 65.3717 69.2772C65.3717 69.2772 77.3717 31.4105 120.872 35.2772C164.372 39.1439 165.372 87.7772 165.372 87.7772C165.372 87.7772 179.872 94.7772 179.872 112.777C179.872 130.777 163.372 137.777 156.372 137.777H41.8717C41.8717 137.777 15.8717 133.777 12.3717 107.277C8.87174 80.7772 30.8718 66.0657 45.3718 65.2772Z" fill="white"/>
<rect x="117.074" y="142.777" width="7.6651" height="26.5907" rx="3.83255" transform="rotate(15.1682 117.074 142.777)" fill="#ADE8FF"/>
<rect x="99.6191" y="143.046" width="7.6651" height="40.303" rx="3.83255" transform="rotate(15.1682 99.6191 143.046)" fill="#ADE8FF"/>
<rect x="84.0737" y="143.028" width="7.6651" height="78.7367" rx="3.83255" transform="rotate(15.0142 84.0737 143.028)" fill="#ADE8FF"/>
<rect x="65.5454" y="143.028" width="7.6651" height="40.303" rx="3.83255" transform="rotate(15.1682 65.5454 143.028)" fill="#ADE8FF"/>
</svg>
