<svg width="168" height="153" viewBox="0 0 168 153" fill="none" xmlns="http://www.w3.org/2000/svg">
<path d="M33.3718 30.2772C47.8718 29.4886 53.3717 34.2772 53.3717 34.2772C53.3717 34.2772 65.3717 -3.58949 108.872 0.277184C152.372 4.14386 153.372 52.7772 153.372 52.7772C153.372 52.7772 167.872 59.7772 167.872 77.7772C167.872 95.7772 151.372 102.777 144.372 102.777H29.8717C29.8717 102.777 3.87174 98.7772 0.371741 72.2772C-3.12826 45.7772 18.8718 31.0657 33.3718 30.2772Z" fill="white"/>
<path d="M105.5 67H136L127.5 90.5H142.5L108.5 151.5L112 110.5H94L105.5 67Z" fill="#FFF467" stroke="black" stroke-width="3.5"/>
<path d="M50.5 67H81L72.5 90.5H87.5L53.5 151.5L57 110.5H39L50.5 67Z" fill="#FFF467" stroke="black" stroke-width="3.5"/>
</svg>
