<svg width="180" height="220" viewBox="0 0 180 220" fill="none" xmlns="http://www.w3.org/2000/svg">
<circle cx="51.7095" cy="52" r="50.9832" stroke="#4B491A" stroke-width="1.45251"/>
<circle cx="52" cy="51.7095" r="45.0279" stroke="#A59E11" stroke-width="2.32402"/>
<circle cx="51.7095" cy="52" r="39.5084" fill="#FFEC65"/>
<path d="M45.3718 65.2772C59.8718 64.4886 65.3717 69.2772 65.3717 69.2772C65.3717 69.2772 77.3717 31.4105 120.872 35.2772C164.372 39.1439 165.372 87.7772 165.372 87.7772C165.372 87.7772 179.872 94.7772 179.872 112.777C179.872 130.777 163.372 137.777 156.372 137.777H41.8717C41.8717 137.777 15.8717 133.777 12.3717 107.277C8.87174 80.7772 30.8718 66.0657 45.3718 65.2772Z" fill="white"/>
<path d="M130.5 96H161L152.5 119.5H167.5L133.5 180.5L137 139.5H119L130.5 96Z" fill="#FFF467" stroke="black" stroke-width="3.5"/>
<rect x="127.311" y="140.777" width="7.6651" height="27.9403" rx="3.83255" transform="rotate(15.1682 127.311 140.777)" fill="#ADE8FF"/>
<rect x="112.49" y="141.777" width="7.6651" height="59.2021" rx="3.83255" transform="rotate(15.1682 112.49 141.777)" fill="#ADE8FF"/>
<rect x="97.9377" y="141.777" width="7.6651" height="41.8021" rx="3.83255" transform="rotate(15.1682 97.9377 141.777)" fill="#ADE8FF"/>
<rect x="81.8" y="141.777" width="7.6651" height="78.8716" rx="3.83255" transform="rotate(15.1682 81.8 141.777)" fill="#ADE8FF"/>
<rect x="65.1001" y="141.777" width="7.6651" height="58.6218" rx="3.83255" transform="rotate(15.0142 65.1001 141.777)" fill="#ADE8FF"/>
<rect x="49.5454" y="141.777" width="7.6651" height="40.303" rx="3.83255" transform="rotate(15.1682 49.5454 141.777)" fill="#ADE8FF"/>
</svg>
